//Event file generated from Sappy .s format.
	#include "MPlayDef.event"

	#define	EnemyPhase_grp  voicegroup000
	#define	EnemyPhase_pri  0
	#define	EnemyPhase_rev  0
	#define	EnemyPhase_mvl  75
	#define	EnemyPhase_key  0
	#define	EnemyPhase_tbs  1
	#define	EnemyPhase_exg  0
	#define	EnemyPhase_cmp  1

	// .rodata
	//	EnemyPhase
	ALIGN 4

//**************** Track 1 (Midi-Chn.1) ****************//

EnemyPhase_1:
	BYTE	KEYSH   EnemyPhase_key+0
EnemyPhase_1_B1:
// 000   ----------------------------------------
	BYTE	TEMPO   122*EnemyPhase_tbs/2
	BYTE		VOICE   65
	BYTE	W96
// 001   ----------------------------------------
	BYTE	W96
// 002   ----------------------------------------
	BYTE	W96
// 003   ----------------------------------------
	BYTE	W96
// 004   ----------------------------------------
	BYTE	W72
	BYTE		VOL     122*EnemyPhase_mvl/mxv
	BYTE		PAN     c_v+11
	BYTE	W23
	BYTE	W01
// 005   ----------------------------------------
	BYTE	W02
	BYTE	W03
	BYTE	W03
	BYTE	W03
	BYTE	W03
	BYTE	W03
	BYTE	W03
	BYTE	W03
	BYTE	W03
	BYTE	W03
	BYTE	W03
	BYTE	W03
	BYTE	W03
	BYTE	W03
	BYTE	W03
	BYTE	W02
	BYTE	W14
	BYTE		N11     Fn3   v076
	BYTE	W12
	BYTE		        Gn3   v092
	BYTE	W12
	BYTE		        As3   v104
	BYTE	W12
// 006   ----------------------------------------
	BYTE		TIE     Cn4 
	BYTE	W05
	BYTE	W01
	BYTE	W01
	BYTE	W01
	BYTE	W01
	BYTE	W01
	BYTE	W01
	BYTE	W01
	BYTE	W01
	BYTE	W01
	BYTE	W01
	BYTE	W01
	BYTE	W01
	BYTE	W01
	BYTE	W01
	BYTE	W01
	BYTE	W06
	BYTE	W03
	BYTE	W03
	BYTE	W03
	BYTE	W03
	BYTE	W03
	BYTE	W03
	BYTE	W03
	BYTE	W03
	BYTE	W03
	BYTE	W03
	BYTE	W03
	BYTE	W03
	BYTE	W03
	BYTE	W03
	BYTE	W03
	BYTE	W03
	BYTE	W03
	BYTE	W03
	BYTE	W03
	BYTE	W03
	BYTE	W03
	BYTE	W03
	BYTE	W03
	BYTE	W01
// 007   ----------------------------------------
	BYTE	W02
	BYTE	W03
	BYTE	W02
	BYTE	W07
	BYTE		EOT   
	BYTE	W02
	BYTE		N11     Fn4   v096
	BYTE	W12
	BYTE		N03     Fn4   v036
	BYTE	W04
	BYTE		N11     Ds4   v096
	BYTE	W12
	BYTE		N03     Ds4   v036
	BYTE	W04
	BYTE		N11     Cn4   v104
	BYTE	W12
	BYTE		N03     Cn4   v036
	BYTE	W04
	BYTE		N11     As3   v112
	BYTE	W12
	BYTE		N03     As3   v036
	BYTE	W04
	BYTE		N11     An3   v116
	BYTE	W12
	BYTE		N03     An3   v040
	BYTE	W04
// 008   ----------------------------------------
	BYTE		TIE     Fn3   v112
	BYTE	W14
	BYTE	W06
	BYTE	W03
	BYTE	W06
	BYTE	W06
	BYTE	W03
	BYTE	W06
	BYTE	W03
	BYTE	W03
	BYTE	W03
	BYTE	W06
	BYTE	W03
	BYTE	W03
	BYTE	W03
	BYTE	W03
	BYTE	W03
	BYTE	W03
	BYTE	W03
	BYTE	W03
	BYTE	W03
	BYTE	W03
	BYTE	W03
	BYTE	W03
	BYTE	W01
// 009   ----------------------------------------
	BYTE	W02
	BYTE	W03
	BYTE	W03
	BYTE	W03
	BYTE	W03
	BYTE	W03
	BYTE	W03
	BYTE	W02
	BYTE		EOT   
	BYTE	W01
	BYTE	W01
	BYTE		N23     As3   v108
	BYTE	W02
	BYTE	W01
	BYTE	W02
	BYTE	W01
	BYTE	W02
	BYTE	W01
	BYTE	W02
	BYTE	W01
	BYTE	W02
	BYTE	W01
	BYTE	W02
	BYTE	W01
	BYTE	W02
	BYTE	W01
	BYTE	W02
	BYTE	W01
	BYTE		        An3 
	BYTE	W02
	BYTE	W01
	BYTE	W02
	BYTE	W01
	BYTE	W02
	BYTE	W01
	BYTE	W02
	BYTE	W01
	BYTE	W02
	BYTE	W01
	BYTE	W02
	BYTE	W01
	BYTE	W02
	BYTE	W04
	BYTE		N22     Fn3   v104
	BYTE	W24
// 010   ----------------------------------------
	BYTE		TIE     Cn4   v108
	BYTE	W05
	BYTE	W02
	BYTE	W01
	BYTE	W02
	BYTE	W01
	BYTE	W02
	BYTE	W01
	BYTE	W02
	BYTE	W01
	BYTE	W02
	BYTE	W06
	BYTE	W06
	BYTE	W06
	BYTE	W06
	BYTE	W03
	BYTE	W03
	BYTE	W03
	BYTE	W06
	BYTE	W03
	BYTE	W03
	BYTE	W03
	BYTE	W03
	BYTE	W03
	BYTE	W03
	BYTE	W03
	BYTE	W03
	BYTE	W03
	BYTE	W03
	BYTE	W03
	BYTE	W03
	BYTE	W02
// 011   ----------------------------------------
	BYTE	W01
	BYTE	W03
	BYTE	W03
	BYTE	W03
	BYTE	W03
	BYTE	W02
	BYTE	W07
	BYTE		EOT   
	BYTE	W02
	BYTE		N23     As3   v112
	BYTE	W24
	BYTE		        An3   v104
	BYTE	W24
	BYTE		        Fn3 
	BYTE	W24
// 012   ----------------------------------------
	BYTE		TIE     Cn3 
	BYTE	W16
	BYTE	W07
	BYTE	W10
	BYTE	W07
	BYTE	W07
	BYTE	W03
	BYTE	W07
	BYTE	W07
	BYTE	W03
	BYTE	W07
	BYTE	W03
	BYTE	W04
	BYTE	W06
	BYTE	W04
	BYTE	W03
	BYTE	W02
// 013   ----------------------------------------
	BYTE	W01
	BYTE	W04
	BYTE	W03
	BYTE	W04
	BYTE	W03
	BYTE	W03
	BYTE	W04
	BYTE	W03
	BYTE	W03
	BYTE	W04
	BYTE	W03
	BYTE	W04
	BYTE	W03
	BYTE	W03
	BYTE	W04
	BYTE	W01
	BYTE		EOT   
	BYTE	W02
	BYTE	W03
	BYTE	W04
	BYTE	W01
	BYTE		N11     Fn3   v108
	BYTE	W01
	BYTE	W02
	BYTE	W01
	BYTE	W02
	BYTE	W01
	BYTE	W02
	BYTE	W01
	BYTE	W02
	BYTE		        Gn3   v104
	BYTE	W01
	BYTE	W02
	BYTE	W01
	BYTE	W01
	BYTE	W07
	BYTE		        As3 
	BYTE	W12
// 014   ----------------------------------------
	BYTE		TIE     Cn4   v112
	BYTE	W06
	BYTE	W02
	BYTE	W01
	BYTE	W02
	BYTE	W01
	BYTE	W02
	BYTE	W01
	BYTE	W02
	BYTE	W01
	BYTE	W02
	BYTE	W06
	BYTE	W06
	BYTE	W03
	BYTE	W06
	BYTE	W03
	BYTE	W03
	BYTE	W03
	BYTE	W03
	BYTE	W03
	BYTE	W03
	BYTE	W03
	BYTE	W03
	BYTE	W03
	BYTE	W03
	BYTE	W03
	BYTE	W03
	BYTE	W03
	BYTE	W03
	BYTE	W03
	BYTE	W03
	BYTE	W03
	BYTE	W03
	BYTE	W01
// 015   ----------------------------------------
	BYTE	W02
	BYTE	W03
	BYTE		EOT   
	BYTE	W02
	BYTE	W05
	BYTE		N05   
	BYTE	W12
	BYTE		        Cn4   v108
	BYTE	W12
	BYTE		N04     Gn3 
	BYTE	W12
	BYTE		N04   
	BYTE	W12
	BYTE		N05     Dn3   v104
	BYTE	W12
	BYTE		N04   
	BYTE	W09
	BYTE	W01
	BYTE	W02
	BYTE		        Gn2   v112
	BYTE	W01
	BYTE	W02
	BYTE	W01
	BYTE	W02
	BYTE	W01
	BYTE	W02
	BYTE	W01
	BYTE	W02
// 016   ----------------------------------------
	BYTE		N92     Fn1   v096
	BYTE		N92     Cn3 
	BYTE	W06
	BYTE	W03
	BYTE	W03
	BYTE	W03
	BYTE	W03
	BYTE	W03
	BYTE	W03
	BYTE	W03
	BYTE	W03
	BYTE	W03
	BYTE	W03
	BYTE	W03
	BYTE	W03
	BYTE	W03
	BYTE	W03
	BYTE	W03
	BYTE	W03
	BYTE	W03
	BYTE	W03
	BYTE	W03
	BYTE	W03
	BYTE	W03
	BYTE	W03
	BYTE	W03
	BYTE	W03
	BYTE	W03
	BYTE	W03
	BYTE	W03
	BYTE	W03
	BYTE	W06
// 017   ----------------------------------------
	BYTE		        Ds1   v088
	BYTE		N92     As2 
	BYTE	W19
	BYTE	W03
	BYTE	W06
	BYTE	W03
	BYTE	W03
	BYTE	W03
	BYTE	W03
	BYTE	W03
	BYTE	W03
	BYTE	W03
	BYTE	W03
	BYTE	W03
	BYTE	W03
	BYTE	W03
	BYTE	W03
	BYTE	W03
	BYTE	W03
	BYTE	W03
	BYTE	W03
	BYTE	W03
	BYTE	W03
	BYTE	W03
	BYTE	W03
	BYTE	W03
	BYTE	W03
	BYTE	W02
// 018   ----------------------------------------
	BYTE		        Dn1   v092
	BYTE		N92     An2   v096
	BYTE	W06
	BYTE	W03
	BYTE	W03
	BYTE	W03
	BYTE	W03
	BYTE	W03
	BYTE	W03
	BYTE	W03
	BYTE	W03
	BYTE	W03
	BYTE	W03
	BYTE	W03
	BYTE	W03
	BYTE	W03
	BYTE	W03
	BYTE	W03
	BYTE	W03
	BYTE	W03
	BYTE	W03
	BYTE	W03
	BYTE	W03
	BYTE	W03
	BYTE	W03
	BYTE	W03
	BYTE	W03
	BYTE	W03
	BYTE	W15
// 019   ----------------------------------------
	BYTE		TIE     Cs1   v092
	BYTE		TIE     Gs2   v100
	BYTE	W01
	BYTE	W02
	BYTE	W01
	BYTE	W02
	BYTE	W01
	BYTE	W02
	BYTE	W01
	BYTE	W02
	BYTE	W01
	BYTE	W02
	BYTE	W01
	BYTE	W02
	BYTE	W01
	BYTE	W02
	BYTE	W01
	BYTE	W02
	BYTE	W01
	BYTE	W02
	BYTE	W01
	BYTE	W02
	BYTE	W01
	BYTE	W02
	BYTE	W01
	BYTE	W02
	BYTE	W06
	BYTE	W03
	BYTE	W06
	BYTE	W03
	BYTE	W03
	BYTE	W03
	BYTE	W03
	BYTE	W03
	BYTE	W03
	BYTE	W03
	BYTE	W03
	BYTE	W03
	BYTE	W03
	BYTE	W03
	BYTE	W03
	BYTE	W03
	BYTE	W03
	BYTE	W03
// 020   ----------------------------------------
	BYTE	W03
	BYTE	W03
	BYTE	W40
	BYTE	W01
	BYTE		EOT     Cs1 
	BYTE		        Gs2 
	BYTE	W48
	BYTE	W01
// 021   ----------------------------------------
	BYTE	W96
// 022   ----------------------------------------
	BYTE	W96
// 023   ----------------------------------------
	BYTE	W96
// 024   ----------------------------------------
	BYTE	W48
	BYTE	GoTo
	 POIN2	EnemyPhase_1_B1
EnemyPhase_1_B2:
	BYTE	FINE

//**************** Track 2 (Midi-Chn.2) ****************//

EnemyPhase_2:
	BYTE	KEYSH   EnemyPhase_key+0
EnemyPhase_2_B1:
// 000   ----------------------------------------
	BYTE		VOICE   57
	BYTE		VOL     110*EnemyPhase_mvl/mxv
	BYTE		PAN     c_v+20
	BYTE		TIE     Cn3   v104
	BYTE	W05
	BYTE	W02
	BYTE	W01
	BYTE	W02
	BYTE	W01
	BYTE	W02
	BYTE	W01
	BYTE	W02
	BYTE	W01
	BYTE	W01
	BYTE	W06
	BYTE	W06
	BYTE	W03
	BYTE	W03
	BYTE	W03
	BYTE	W06
	BYTE	W03
	BYTE	W03
	BYTE	W03
	BYTE	W03
	BYTE	W03
	BYTE	W03
	BYTE	W03
	BYTE	W03
	BYTE	W03
	BYTE	W03
	BYTE	W03
	BYTE	W03
	BYTE	W03
	BYTE	W03
	BYTE	W03
	BYTE	W03
	BYTE	W03
// 001   ----------------------------------------
	BYTE	W01
	BYTE	W10
	BYTE		EOT   
	BYTE	W01
	BYTE		N05     Cn3   v060
	BYTE	W12
	BYTE		N22     Cn3   v104
	BYTE	W24
	BYTE		N23     As2 
	BYTE	W24
	BYTE		        Ds3 
	BYTE	W24
// 002   ----------------------------------------
	BYTE		TIE     Cn3 
	BYTE	W04
	BYTE	W01
	BYTE	W02
	BYTE	W01
	BYTE	W02
	BYTE	W01
	BYTE	W02
	BYTE	W01
	BYTE	W02
	BYTE	W01
	BYTE	W01
	BYTE	W06
	BYTE	W06
	BYTE	W03
	BYTE	W06
	BYTE	W03
	BYTE	W03
	BYTE	W03
	BYTE	W03
	BYTE	W03
	BYTE	W03
	BYTE	W03
	BYTE	W03
	BYTE	W03
	BYTE	W03
	BYTE	W03
	BYTE	W03
	BYTE	W03
	BYTE	W03
	BYTE	W03
	BYTE	W03
	BYTE	W03
	BYTE	W03
	BYTE	W03
// 003   ----------------------------------------
	BYTE	W03
	BYTE	W01
	BYTE	W07
	BYTE		EOT   
	BYTE	W01
	BYTE		N05     Cn3   v060
	BYTE	W12
	BYTE		N23     Fn3   v104
	BYTE	W24
	BYTE		        Ds3   v100
	BYTE	W24
	BYTE		        As2 
	BYTE	W24
// 004   ----------------------------------------
	BYTE		TIE     Cn3   v104
	BYTE	W12
	BYTE	W06
	BYTE	W06
	BYTE	W03
	BYTE	W06
	BYTE	W03
	BYTE	W06
	BYTE	W03
	BYTE	W03
	BYTE	W06
	BYTE	W03
	BYTE	W03
	BYTE	W03
	BYTE	W03
	BYTE	W03
	BYTE	W03
	BYTE	W03
	BYTE	W06
	BYTE	W03
	BYTE	W03
	BYTE	W03
	BYTE	W03
	BYTE	W03
// 005   ----------------------------------------
	BYTE	W03
	BYTE	W03
	BYTE	W03
	BYTE	W03
	BYTE	W03
	BYTE	W03
	BYTE	W03
	BYTE	W03
	BYTE	W03
	BYTE	W03
	BYTE	W03
	BYTE	W03
	BYTE	W02
	BYTE	W06
	BYTE		EOT   
	BYTE	W04
	BYTE		N05     Cn3   v060
	BYTE	W48
// 006   ----------------------------------------
	BYTE	W96
// 007   ----------------------------------------
	BYTE	W96
// 008   ----------------------------------------
	BYTE	W96
// 009   ----------------------------------------
	BYTE	W96
// 010   ----------------------------------------
	BYTE	W96
// 011   ----------------------------------------
	BYTE	W96
// 012   ----------------------------------------
	BYTE	W72
	BYTE		VOL     95*EnemyPhase_mvl/mxv
	BYTE		PAN     c_v-14
	BYTE	W24
// 013   ----------------------------------------
	BYTE	W60
	BYTE		N11     Fn4   v104
	BYTE	W12
	BYTE		        Gn4   v096
	BYTE	W12
	BYTE		N12     As4   v084
	BYTE	W12
// 014   ----------------------------------------
	BYTE		TIE     Cn5   v104
	BYTE	W07
	BYTE	W01
	BYTE	W02
	BYTE	W01
	BYTE	W02
	BYTE	W01
	BYTE	W02
	BYTE	W01
	BYTE	W02
	BYTE	W01
	BYTE	W02
	BYTE	W01
	BYTE	W02
	BYTE	W01
	BYTE	W02
	BYTE	W19
	BYTE	W03
	BYTE	W03
	BYTE	W03
	BYTE	W03
	BYTE	W03
	BYTE	W03
	BYTE	W03
	BYTE	W03
	BYTE	W03
	BYTE	W03
	BYTE	W03
	BYTE	W03
	BYTE	W03
	BYTE	W03
	BYTE	W02
	BYTE	W05
// 015   ----------------------------------------
	BYTE	W07
	BYTE		EOT   
	BYTE	W05
	BYTE		N03     Cn5   v100
	BYTE	W06
	BYTE		        Cn5   v052
	BYTE	W06
	BYTE		        Cn5   v108
	BYTE	W06
	BYTE		        Cn5   v056
	BYTE	W06
	BYTE		N04     Gn4   v092
	BYTE	W06
	BYTE		        Gn4   v040
	BYTE	W06
	BYTE		        Gn4   v112
	BYTE	W06
	BYTE		        Gn4   v060
	BYTE	W06
	BYTE		N05     Dn4   v104
	BYTE	W06
	BYTE		        Dn4   v056
	BYTE	W06
	BYTE		        Dn4   v120
	BYTE	W06
	BYTE		        Dn4   v068
	BYTE	W06
	BYTE		        Gn3   v108
	BYTE	W06
	BYTE		        Gn3   v060
	BYTE	W06
// 016   ----------------------------------------
	BYTE	W24
	BYTE		N06     Gn4   v104
	BYTE		N06     Cn5 
	BYTE	W06
	BYTE		        Gn4   v052
	BYTE		N06     Cn5 
	BYTE	W06
	BYTE		        Gn4   v104
	BYTE		N06     Cn5 
	BYTE	W06
	BYTE		        Gn4   v052
	BYTE		N06     Cn5 
	BYTE	W06
	BYTE		        Dn4   v104
	BYTE		N06     Gn4 
	BYTE	W06
	BYTE		        Dn4   v052
	BYTE		N06     Gn4 
	BYTE	W06
	BYTE		        Dn4   v100
	BYTE		N06     Gn4 
	BYTE	W06
	BYTE		        Dn4   v052
	BYTE		N06     Gn4 
	BYTE	W06
	BYTE		        An3   v104
	BYTE		N06     Dn4 
	BYTE	W06
	BYTE		        An3   v056
	BYTE		N06     Dn4 
	BYTE	W06
	BYTE		        An3   v104
	BYTE		N06     Dn4 
	BYTE	W06
	BYTE		        An3   v052
	BYTE		N06     Dn4 
	BYTE	W06
// 017   ----------------------------------------
	BYTE	W12
	BYTE		        Gn4   v096
	BYTE		N06     Cn5 
	BYTE	W06
	BYTE		        Gn4   v048
	BYTE		N06     Cn5 
	BYTE	W06
	BYTE		        Gn4   v100
	BYTE		N06     Cn5 
	BYTE	W06
	BYTE		        Gn4   v048
	BYTE		N06     Cn5 
	BYTE	W06
	BYTE		        Dn4   v100
	BYTE		N06     Gn4 
	BYTE	W06
	BYTE		        Dn4   v052
	BYTE		N06     Gn4 
	BYTE	W06
	BYTE		        Dn4   v100
	BYTE		N06     Gn4 
	BYTE	W06
	BYTE		        Dn4   v048
	BYTE		N06     Gn4 
	BYTE	W06
	BYTE		        An3   v104
	BYTE		N06     Dn4 
	BYTE	W06
	BYTE		        An3   v056
	BYTE		N06     Dn4 
	BYTE	W06
	BYTE		        An3   v104
	BYTE		N06     Dn4 
	BYTE	W06
	BYTE		        An3   v052
	BYTE		N06     Dn4 
	BYTE	W06
	BYTE		        Dn3   v104
	BYTE		N06     Gn3 
	BYTE	W06
	BYTE		        Dn3   v052
	BYTE		N06     Gn3 
	BYTE	W06
// 018   ----------------------------------------
	BYTE		        Gn4   v100
	BYTE		N06     Cn5 
	BYTE	W06
	BYTE		        Gn4   v048
	BYTE		N06     Cn5 
	BYTE	W06
	BYTE		        Gn4   v100
	BYTE		N06     Cn5 
	BYTE	W06
	BYTE		        Gn4   v048
	BYTE		N06     Cn5 
	BYTE	W06
	BYTE		        Dn4   v100
	BYTE		N06     Gn4 
	BYTE	W06
	BYTE		        Dn4   v048
	BYTE		N06     Gn4 
	BYTE	W06
	BYTE		        Dn4   v096
	BYTE		N06     Gn4 
	BYTE	W06
	BYTE		        Dn4   v048
	BYTE		N06     Gn4 
	BYTE	W06
	BYTE		        An3   v104
	BYTE		N06     Dn4 
	BYTE	W06
	BYTE		        An3   v056
	BYTE		N06     Dn4 
	BYTE	W06
	BYTE		        An3   v100
	BYTE		N06     Dn4 
	BYTE	W06
	BYTE		        An3   v052
	BYTE		N06     Dn4 
	BYTE	W06
	BYTE		        Dn3   v100
	BYTE		N06     Gn3 
	BYTE	W06
	BYTE		        Dn3   v052
	BYTE		N06     Gn3 
	BYTE	W06
	BYTE		        Dn3   v096
	BYTE		N06     Gn3 
	BYTE	W06
	BYTE		        Dn3   v048
	BYTE		N06     Gn3 
	BYTE	W06
// 019   ----------------------------------------
	BYTE	W12
	BYTE		        Gn4   v096
	BYTE		N06     Cn5 
	BYTE	W06
	BYTE		        Gn4   v048
	BYTE		N06     Cn5 
	BYTE	W06
	BYTE		        Gn4   v088
	BYTE		N06     Cn5 
	BYTE	W06
	BYTE		        Gn4   v036
	BYTE		N06     Cn5 
	BYTE	W06
	BYTE		        Dn4   v100
	BYTE		N06     Gn4 
	BYTE	W06
	BYTE		        Dn4   v052
	BYTE		N06     Gn4 
	BYTE	W06
	BYTE		        Dn4   v100
	BYTE		N06     Gn4 
	BYTE	W06
	BYTE		        Dn4   v048
	BYTE		N06     Gn4 
	BYTE	W06
	BYTE		        An3   v104
	BYTE		N06     Dn4 
	BYTE	W06
	BYTE		        An3   v056
	BYTE		N06     Dn4 
	BYTE	W06
	BYTE		        An3   v104
	BYTE		N06     Dn4 
	BYTE	W06
	BYTE		        An3   v052
	BYTE		N06     Dn4 
	BYTE	W06
	BYTE		        Dn3   v100
	BYTE		N06     Gn3 
	BYTE	W06
	BYTE		        Dn3   v052
	BYTE		N06     Gn3 
	BYTE	W06
// 020   ----------------------------------------
	BYTE		        Gn3   v096
	BYTE	W06
	BYTE		        Gn3   v048
	BYTE	W06
	BYTE		        Dn4   v096
	BYTE	W06
	BYTE		        Dn4   v048
	BYTE	W06
	BYTE		        Dn4   v100
	BYTE	W06
	BYTE		        Dn4   v052
	BYTE	W06
	BYTE		        Gn4   v100
	BYTE	W06
	BYTE		        Gn4   v048
	BYTE	W06
	BYTE		TIE     Cn5   v108
	BYTE	W06
	BYTE	W01
	BYTE	W02
	BYTE	W01
	BYTE	W02
	BYTE	W01
	BYTE	W02
	BYTE	W01
	BYTE	W02
	BYTE	W01
	BYTE	W02
	BYTE	W01
	BYTE	W02
	BYTE	W01
	BYTE	W02
	BYTE	W01
	BYTE	W06
	BYTE	W03
	BYTE	W03
	BYTE	W03
	BYTE	W03
	BYTE	W02
// 021   ----------------------------------------
	BYTE	W01
	BYTE	W03
	BYTE	W03
	BYTE	W03
	BYTE	W03
	BYTE	W03
	BYTE	W03
	BYTE	W03
	BYTE	W03
	BYTE	W03
	BYTE	W03
	BYTE	W03
	BYTE	W03
	BYTE	W12
	BYTE		EOT   
	BYTE	W11
	BYTE		VOL     110*EnemyPhase_mvl/mxv
	BYTE		PAN     c_v+20
	BYTE	W36
// 022   ----------------------------------------
	BYTE	W96
// 023   ----------------------------------------
	BYTE	W96
// 024   ----------------------------------------
	BYTE	W48
	BYTE	GoTo
	 POIN2	EnemyPhase_2_B1
EnemyPhase_2_B2:
	BYTE	FINE

//**************** Track 3 (Midi-Chn.3) ****************//

EnemyPhase_3:
	BYTE	KEYSH   EnemyPhase_key+0
EnemyPhase_3_B1:
// 000   ----------------------------------------
	BYTE		VOICE   33
	BYTE		VOL     122*EnemyPhase_mvl/mxv
	BYTE		PAN     c_v+0
	BYTE		N06     Fn1   v127
	BYTE	W12
	BYTE		        Cn2   v100
	BYTE	W06
	BYTE		        Fn2   v096
	BYTE	W06
	BYTE		        Fn1   v124
	BYTE	W12
	BYTE		        Cn2   v096
	BYTE	W06
	BYTE		        Fn2   v100
	BYTE	W06
	BYTE		        Fn1   v120
	BYTE	W12
	BYTE		        Cn2   v100
	BYTE	W06
	BYTE		        Fn2   v104
	BYTE	W06
	BYTE		        Fn1   v127
	BYTE	W12
	BYTE		        Cn2   v088
	BYTE	W06
	BYTE		        Fn2   v108
	BYTE	W06
// 001   ----------------------------------------
EnemyPhase_3_001:
	BYTE		N06     Ds1   v127
	BYTE	W12
	BYTE		        As1   v092
	BYTE	W06
	BYTE		        Ds2   v096
	BYTE	W06
	BYTE		        Ds1   v120
	BYTE	W12
	BYTE		        As1   v092
	BYTE	W06
	BYTE		        Ds2   v096
	BYTE	W06
	BYTE		        Ds1   v127
	BYTE	W12
	BYTE		        As1   v092
	BYTE	W06
	BYTE		        Ds2 
	BYTE	W06
	BYTE		        Ds1   v124
	BYTE	W12
	BYTE		        As1   v096
	BYTE	W06
	BYTE		        Ds2   v100
	BYTE	W06
	BYTE	PEND
// 002   ----------------------------------------
EnemyPhase_3_002:
	BYTE		N06     Fn1   v127
	BYTE	W12
	BYTE		        Cn2   v100
	BYTE	W06
	BYTE		        Fn2   v096
	BYTE	W06
	BYTE		        Fn1   v124
	BYTE	W12
	BYTE		        Cn2   v096
	BYTE	W06
	BYTE		        Fn2   v100
	BYTE	W06
	BYTE		        Fn1   v120
	BYTE	W12
	BYTE		        Cn2   v100
	BYTE	W06
	BYTE		        Fn2   v104
	BYTE	W06
	BYTE		        Fn1   v127
	BYTE	W12
	BYTE		        Cn2   v088
	BYTE	W06
	BYTE		        Fn2   v108
	BYTE	W06
	BYTE	PEND
// 003   ----------------------------------------
	BYTE	PATT
	 POIN2	EnemyPhase_3_001
// 004   ----------------------------------------
	BYTE	PATT
	 POIN2	EnemyPhase_3_002
// 005   ----------------------------------------
	BYTE	PATT
	 POIN2	EnemyPhase_3_001
// 006   ----------------------------------------
	BYTE	PATT
	 POIN2	EnemyPhase_3_002
// 007   ----------------------------------------
	BYTE	PATT
	 POIN2	EnemyPhase_3_001
// 008   ----------------------------------------
	BYTE	PATT
	 POIN2	EnemyPhase_3_002
// 009   ----------------------------------------
	BYTE	PATT
	 POIN2	EnemyPhase_3_001
// 010   ----------------------------------------
	BYTE	PATT
	 POIN2	EnemyPhase_3_002
// 011   ----------------------------------------
	BYTE	PATT
	 POIN2	EnemyPhase_3_001
// 012   ----------------------------------------
	BYTE	PATT
	 POIN2	EnemyPhase_3_002
// 013   ----------------------------------------
	BYTE	PATT
	 POIN2	EnemyPhase_3_001
// 014   ----------------------------------------
	BYTE	PATT
	 POIN2	EnemyPhase_3_002
// 015   ----------------------------------------
	BYTE	PATT
	 POIN2	EnemyPhase_3_001
// 016   ----------------------------------------
	BYTE		N05     Fn1   v124
	BYTE	W12
	BYTE		N05   
	BYTE	W12
	BYTE		N05   
	BYTE	W12
	BYTE		N03   
	BYTE	W12
	BYTE		N04   
	BYTE	W12
	BYTE		N04   
	BYTE	W12
	BYTE		N04   
	BYTE	W12
	BYTE		N04   
	BYTE	W12
// 017   ----------------------------------------
	BYTE		N05     Ds1 
	BYTE	W12
	BYTE		N04   
	BYTE	W12
	BYTE		N05   
	BYTE	W12
	BYTE		N05   
	BYTE	W12
	BYTE		N04   
	BYTE	W12
	BYTE		N04   
	BYTE	W12
	BYTE		        Ds1   v120
	BYTE	W12
	BYTE		N04   
	BYTE	W12
// 018   ----------------------------------------
	BYTE		        Dn2   v124
	BYTE	W12
	BYTE		N04   
	BYTE	W12
	BYTE		N05   
	BYTE	W12
	BYTE		N05   
	BYTE	W12
	BYTE		N04     Dn2   v127
	BYTE	W12
	BYTE		N04   
	BYTE	W12
	BYTE		        Dn2   v124
	BYTE	W12
	BYTE		N04   
	BYTE	W12
// 019   ----------------------------------------
	BYTE		        Cs2   v120
	BYTE	W12
	BYTE		N04   
	BYTE	W12
	BYTE		N04   
	BYTE	W12
	BYTE		N04   
	BYTE	W12
	BYTE		N04   
	BYTE	W12
	BYTE		N03   
	BYTE	W12
	BYTE		N04   
	BYTE	W12
	BYTE		N04   
	BYTE	W12
// 020   ----------------------------------------
	BYTE		        Cs2   v116
	BYTE	W12
	BYTE		N03   
	BYTE	W12
	BYTE		N04     Cs2   v120
	BYTE	W12
	BYTE		N04   
	BYTE	W12
	BYTE		N06     Cn2   v124
	BYTE	W12
	BYTE		        Gn1   v100
	BYTE	W06
	BYTE		        Cn2   v096
	BYTE	W06
	BYTE		        Cn2   v124
	BYTE	W12
	BYTE		        Gn1   v100
	BYTE	W06
	BYTE		        Cn2   v096
	BYTE	W06
// 021   ----------------------------------------
	BYTE		        Cn2   v124
	BYTE	W12
	BYTE		        Gn1   v100
	BYTE	W06
	BYTE		        Cn2 
	BYTE	W06
	BYTE		        Cn2   v124
	BYTE	W12
	BYTE		        Gn1   v100
	BYTE	W06
	BYTE		        Cn2 
	BYTE	W06
	BYTE		        Cn2   v124
	BYTE	W12
	BYTE		        Gn1   v100
	BYTE	W06
	BYTE		        Cn2   v096
	BYTE	W06
	BYTE		        Cn2   v124
	BYTE	W12
	BYTE		        Gn1   v100
	BYTE	W06
	BYTE		        Cn2 
	BYTE	W06
// 022   ----------------------------------------
	BYTE		        Cn2   v124
	BYTE	W12
	BYTE		        Gn1   v100
	BYTE	W06
	BYTE		        Cn2 
	BYTE	W06
	BYTE		        Cn2   v124
	BYTE	W12
	BYTE		        Gn1   v100
	BYTE	W06
	BYTE		        Cn2 
	BYTE	W06
	BYTE		        Cs1   v127
	BYTE	W12
	BYTE		        Gs1   v092
	BYTE	W06
	BYTE		        Cs2   v088
	BYTE	W06
	BYTE		        Cs1   v127
	BYTE	W12
	BYTE		        Gs1   v092
	BYTE	W06
	BYTE		        Cs2   v096
	BYTE	W06
// 023   ----------------------------------------
	BYTE		        Cs1   v127
	BYTE	W12
	BYTE		        Gs1   v088
	BYTE	W06
	BYTE		        Cs2   v092
	BYTE	W06
	BYTE		        Cs1   v124
	BYTE	W12
	BYTE		        Gs1   v088
	BYTE	W06
	BYTE		        Cs2   v092
	BYTE	W06
	BYTE		        Ds1   v127
	BYTE	W12
	BYTE		        As1   v100
	BYTE	W06
	BYTE		        Ds2 
	BYTE	W06
	BYTE		        Ds1   v127
	BYTE	W12
	BYTE		        As1   v100
	BYTE	W06
	BYTE		        Ds2 
	BYTE	W06
// 024   ----------------------------------------
	BYTE		        Ds1   v127
	BYTE	W12
	BYTE		        As1   v104
	BYTE	W06
	BYTE		        Ds2   v088
	BYTE	W06
	BYTE		        Ds1   v127
	BYTE	W12
	BYTE		        As1   v100
	BYTE	W06
	BYTE		        Ds2   v104
	BYTE	W06
	BYTE	GoTo
	 POIN2	EnemyPhase_3_B1
EnemyPhase_3_B2:
	BYTE	FINE

//**************** Track 4 (Midi-Chn.4) ****************//

EnemyPhase_4:
	BYTE	KEYSH   EnemyPhase_key+0
EnemyPhase_4_B1:
// 000   ----------------------------------------
	BYTE		VOICE   48
	BYTE		VOL     122*EnemyPhase_mvl/mxv
	BYTE		PAN     c_v-21
	BYTE		TIE     Gn2   v100
	BYTE		TIE     Cn3   v096
	BYTE	W05
	BYTE	W02
	BYTE	W01
	BYTE	W02
	BYTE	W01
	BYTE	W02
	BYTE	W01
	BYTE	W02
	BYTE	W01
	BYTE	W01
	BYTE	W06
	BYTE	W06
	BYTE	W03
	BYTE	W03
	BYTE	W03
	BYTE	W06
	BYTE	W03
	BYTE	W03
	BYTE	W03
	BYTE	W03
	BYTE	W03
	BYTE	W03
	BYTE	W03
	BYTE	W03
	BYTE	W03
	BYTE	W03
	BYTE	W03
	BYTE	W03
	BYTE	W03
	BYTE	W03
	BYTE	W03
	BYTE	W03
	BYTE	W03
// 001   ----------------------------------------
	BYTE	W01
	BYTE	W07
	BYTE		EOT   
	BYTE	W02
	BYTE		EOT     Gn2 
	BYTE	W02
	BYTE		N06     Gn2   v048
	BYTE		N06     Cn3 
	BYTE	W12
	BYTE		N23     Gn2   v104
	BYTE		N23     Cn3   v096
	BYTE	W24
	BYTE		N11     Fn2   v108
	BYTE		N22     As2   v096
	BYTE	W12
	BYTE		N03     Fs2   v100
	BYTE	W04
	BYTE		        Gn2   v096
	BYTE	W04
	BYTE		        Gs2 
	BYTE	W04
	BYTE		N23     As2   v104
	BYTE		N23     Ds3   v096
	BYTE	W24
// 002   ----------------------------------------
	BYTE		TIE     Fn2   v092
	BYTE		TIE     Cn3   v104
	BYTE	W04
	BYTE	W01
	BYTE	W02
	BYTE	W01
	BYTE	W02
	BYTE	W01
	BYTE	W02
	BYTE	W01
	BYTE	W02
	BYTE	W01
	BYTE	W01
	BYTE	W06
	BYTE	W06
	BYTE	W03
	BYTE	W06
	BYTE	W03
	BYTE	W03
	BYTE	W03
	BYTE	W03
	BYTE	W03
	BYTE	W03
	BYTE	W03
	BYTE	W03
	BYTE	W03
	BYTE	W03
	BYTE	W03
	BYTE	W03
	BYTE	W03
	BYTE	W03
	BYTE	W03
	BYTE	W03
	BYTE	W03
	BYTE	W03
	BYTE	W03
// 003   ----------------------------------------
	BYTE	W03
	BYTE	W01
	BYTE	W04
	BYTE		EOT     Fn2 
	BYTE		        Cn3 
	BYTE	W04
	BYTE		N06     Fn2   v048
	BYTE		N06     Cn3 
	BYTE	W12
	BYTE		N23     Cn3   v104
	BYTE		N23     Fn3 
	BYTE	W24
	BYTE		        As2   v096
	BYTE		N23     Ds3 
	BYTE	W24
	BYTE		        Fn2 
	BYTE		N23     As2   v108
	BYTE	W24
// 004   ----------------------------------------
	BYTE		TIE     Gn2   v096
	BYTE		TIE     Cn3   v100
	BYTE	W28
	BYTE	W06
	BYTE	W06
	BYTE	W06
	BYTE	W06
	BYTE	W03
	BYTE	W06
	BYTE	W03
	BYTE	W06
	BYTE	W03
	BYTE	W06
	BYTE	W03
	BYTE	W03
	BYTE	W03
	BYTE	W03
	BYTE	W03
	BYTE	W02
// 005   ----------------------------------------
	BYTE	W01
	BYTE	W03
	BYTE	W03
	BYTE	W03
	BYTE	W03
	BYTE	W03
	BYTE	W03
	BYTE	W03
	BYTE	W03
	BYTE	W03
	BYTE	W03
	BYTE	W03
	BYTE	W03
	BYTE	W03
	BYTE	W03
	BYTE	W03
	BYTE	W03
	BYTE	W01
	BYTE		EOT     Gn2 
	BYTE	W01
	BYTE	W02
	BYTE		        Cn3 
	BYTE	W01
	BYTE		N05     Fn2   v048
	BYTE		N05     Cn3 
	BYTE	W02
	BYTE	W01
	BYTE	W02
	BYTE	W01
	BYTE		N11     Fn2   v100
	BYTE		N11     Cn3 
	BYTE	W02
	BYTE	W01
	BYTE	W02
	BYTE	W01
	BYTE	W02
	BYTE	W01
	BYTE	W02
	BYTE	W01
	BYTE		        Gn2   v096
	BYTE		N11     Dn3 
	BYTE	W02
	BYTE	W01
	BYTE	W02
	BYTE	W01
	BYTE	W02
	BYTE	W01
	BYTE	W01
	BYTE	W02
	BYTE		        As2   v092
	BYTE		N11     Fn3   v104
	BYTE	W12
// 006   ----------------------------------------
	BYTE		TIE     Cn3 
	BYTE		TIE     Gn3   v096
	BYTE	W06
	BYTE	W02
	BYTE	W01
	BYTE	W02
	BYTE	W01
	BYTE	W02
	BYTE	W01
	BYTE	W02
	BYTE	W01
	BYTE	W02
	BYTE	W06
	BYTE	W06
	BYTE	W03
	BYTE	W06
	BYTE	W03
	BYTE	W03
	BYTE	W03
	BYTE	W03
	BYTE	W03
	BYTE	W03
	BYTE	W03
	BYTE	W03
	BYTE	W03
	BYTE	W03
	BYTE	W03
	BYTE	W03
	BYTE	W03
	BYTE	W03
	BYTE	W03
	BYTE	W03
	BYTE	W03
	BYTE	W03
	BYTE	W01
// 007   ----------------------------------------
	BYTE	W02
	BYTE	W03
	BYTE	W02
	BYTE	W07
	BYTE		EOT     Cn3 
	BYTE	W01
	BYTE		        Gn3 
	BYTE	W01
	BYTE		N15     Fn3   v100
	BYTE		N15     Cn4   v104
	BYTE	W16
	BYTE		        Ds3 
	BYTE		N15     As3 
	BYTE	W16
	BYTE		        Cn3 
	BYTE		N15     Gn3   v092
	BYTE	W16
	BYTE		        As2   v096
	BYTE		N15     Fn3   v092
	BYTE	W16
	BYTE		        An2   v104
	BYTE		N15     Ds3   v100
	BYTE	W16
// 008   ----------------------------------------
	BYTE		TIE     Fn2 
	BYTE		TIE     Cn3 
	BYTE	W14
	BYTE	W06
	BYTE	W06
	BYTE	W03
	BYTE	W06
	BYTE	W06
	BYTE	W03
	BYTE	W03
	BYTE	W06
	BYTE	W03
	BYTE	W03
	BYTE	W03
	BYTE	W03
	BYTE	W03
	BYTE	W03
	BYTE	W03
	BYTE	W03
	BYTE	W03
	BYTE	W03
	BYTE	W03
	BYTE	W03
	BYTE	W03
	BYTE	W03
	BYTE	W01
// 009   ----------------------------------------
	BYTE	W02
	BYTE	W03
	BYTE	W03
	BYTE	W03
	BYTE	W03
	BYTE	W03
	BYTE	W01
	BYTE		EOT   
	BYTE	W01
	BYTE		EOT     Fn2 
	BYTE	W01
	BYTE	W03
	BYTE	W01
	BYTE		N23     As2 
	BYTE		N23     Fn3   v096
	BYTE	W16
	BYTE	W02
	BYTE	W01
	BYTE	W02
	BYTE	W01
	BYTE	W02
	BYTE		        An2   v104
	BYTE		N23     Ds3   v096
	BYTE	W01
	BYTE	W02
	BYTE	W01
	BYTE	W02
	BYTE	W01
	BYTE	W02
	BYTE	W01
	BYTE	W02
	BYTE	W01
	BYTE	W02
	BYTE	W01
	BYTE	W02
	BYTE	W01
	BYTE	W02
	BYTE	W01
	BYTE	W02
	BYTE		N22     Fn2   v112
	BYTE		N23     Cn3   v096
	BYTE	W01
	BYTE	W02
	BYTE	W01
	BYTE	W02
	BYTE	W01
	BYTE	W02
	BYTE	W15
// 010   ----------------------------------------
	BYTE		TIE     Cn3   v108
	BYTE		TIE     Fn3   v104
	BYTE	W05
	BYTE	W02
	BYTE	W01
	BYTE	W02
	BYTE	W01
	BYTE	W02
	BYTE	W01
	BYTE	W02
	BYTE	W01
	BYTE	W02
	BYTE	W06
	BYTE	W06
	BYTE	W06
	BYTE	W06
	BYTE	W03
	BYTE	W03
	BYTE	W03
	BYTE	W06
	BYTE	W03
	BYTE	W03
	BYTE	W03
	BYTE	W03
	BYTE	W03
	BYTE	W03
	BYTE	W03
	BYTE	W03
	BYTE	W03
	BYTE	W03
	BYTE	W03
	BYTE	W03
	BYTE	W02
// 011   ----------------------------------------
	BYTE	W01
	BYTE	W03
	BYTE	W03
	BYTE	W03
	BYTE	W03
	BYTE	W02
	BYTE	W07
	BYTE		EOT     Cn3 
	BYTE		        Fn3 
	BYTE	W02
	BYTE		N23     As2   v096
	BYTE		N23     Fn3 
	BYTE	W24
	BYTE		        An2   v088
	BYTE		N23     Ds3   v108
	BYTE	W24
	BYTE		        Fn2   v104
	BYTE		N22     Cn3   v100
	BYTE	W24
// 012   ----------------------------------------
	BYTE		TIE     Fn2   v108
	BYTE		TIE     Cn3 
	BYTE	W15
	BYTE	W06
	BYTE	W06
	BYTE	W06
	BYTE	W06
	BYTE	W06
	BYTE	W06
	BYTE	W03
	BYTE	W06
	BYTE	W03
	BYTE	W06
	BYTE	W03
	BYTE	W03
	BYTE	W03
	BYTE	W06
	BYTE	W03
	BYTE	W03
	BYTE	W03
	BYTE	W03
// 013   ----------------------------------------
	BYTE	W03
	BYTE	W03
	BYTE	W03
	BYTE	W03
	BYTE	W03
	BYTE	W03
	BYTE	W03
	BYTE	W03
	BYTE	W03
	BYTE	W03
	BYTE	W03
	BYTE	W03
	BYTE	W03
	BYTE	W03
	BYTE	W03
	BYTE	W03
	BYTE	W03
	BYTE	W03
	BYTE	W02
	BYTE		EOT     Fn2 
	BYTE		        Cn3 
	BYTE	W01
	BYTE		N02     Fn2   v048
	BYTE		N02     Cn3 
	BYTE	W02
	BYTE	W01
	BYTE		N11     Fn2   v092
	BYTE		N11     Cn3 
	BYTE	W02
	BYTE	W01
	BYTE	W02
	BYTE	W01
	BYTE	W02
	BYTE	W01
	BYTE	W02
	BYTE	W01
	BYTE		        Gn2   v104
	BYTE		N11     Dn3   v092
	BYTE	W02
	BYTE	W01
	BYTE	W02
	BYTE	W01
	BYTE	W02
	BYTE	W01
	BYTE	W02
	BYTE	W01
	BYTE		        As2   v104
	BYTE		N11     Fn3 
	BYTE	W02
	BYTE	W01
	BYTE	W01
	BYTE	W08
// 014   ----------------------------------------
	BYTE		TIE     Cn3   v096
	BYTE		TIE     Gn3   v100
	BYTE	W06
	BYTE	W02
	BYTE	W01
	BYTE	W02
	BYTE	W01
	BYTE	W02
	BYTE	W01
	BYTE	W02
	BYTE	W01
	BYTE	W02
	BYTE	W06
	BYTE	W06
	BYTE	W03
	BYTE	W03
	BYTE	W03
	BYTE	W03
	BYTE	W03
	BYTE	W03
	BYTE	W03
	BYTE	W03
	BYTE	W03
	BYTE	W03
	BYTE	W03
	BYTE	W03
	BYTE	W03
	BYTE	W03
	BYTE	W03
	BYTE	W03
	BYTE	W03
	BYTE	W03
	BYTE	W03
	BYTE	W03
	BYTE	W03
	BYTE	W01
// 015   ----------------------------------------
	BYTE	W05
	BYTE		EOT     Cn3 
	BYTE	W01
	BYTE		        Gn3 
	BYTE	W06
	BYTE		N05     Gn3   v104
	BYTE	W06
	BYTE		        Gn3   v056
	BYTE	W06
	BYTE		        Gn3   v108
	BYTE	W06
	BYTE		        Gn3   v064
	BYTE	W06
	BYTE		        Dn3   v100
	BYTE	W06
	BYTE		        Dn3   v056
	BYTE	W06
	BYTE		        Dn3   v104
	BYTE	W06
	BYTE		        Dn3   v060
	BYTE	W06
	BYTE		        An2   v100
	BYTE	W06
	BYTE		        An2   v056
	BYTE	W06
	BYTE		        An2   v096
	BYTE	W06
	BYTE		        An2   v052
	BYTE	W06
	BYTE		        Dn2   v100
	BYTE	W06
	BYTE		N06     Dn2   v056
	BYTE	W06
// 016   ----------------------------------------
	BYTE	W96
// 017   ----------------------------------------
	BYTE	W96
// 018   ----------------------------------------
	BYTE	W96
// 019   ----------------------------------------
	BYTE	W96
// 020   ----------------------------------------
	BYTE	W96
// 021   ----------------------------------------
	BYTE	W96
// 022   ----------------------------------------
	BYTE	W96
// 023   ----------------------------------------
	BYTE	W48
	BYTE		N05     Gn4   v080
	BYTE		N05     Cn5   v084
	BYTE	W06
	BYTE		        Gn4   v076
	BYTE		N05     Cn5   v068
	BYTE	W06
	BYTE		        Cn5   v076
	BYTE		N05     Fn5   v080
	BYTE	W06
	BYTE		        Cn5   v068
	BYTE		N05     Fn5 
	BYTE	W06
	BYTE		        Gn4   v092
	BYTE		N05     Cn5 
	BYTE	W06
	BYTE		        Gn4   v072
	BYTE		N05     Cn5   v068
	BYTE	W06
	BYTE		        Cn5   v080
	BYTE		N05     Fn5   v100
	BYTE	W06
	BYTE		        Cn5   v088
	BYTE		N05     Fn5 
	BYTE	W06
// 024   ----------------------------------------
	BYTE		        Gn4 
	BYTE		N05     Cn5   v092
	BYTE	W06
	BYTE		        Gn4   v084
	BYTE		N05     Cn5   v092
	BYTE	W06
	BYTE		        Cn5   v100
	BYTE		N05     Fn5 
	BYTE	W06
	BYTE		        Cn5   v080
	BYTE		N05     Fn5   v088
	BYTE	W06
	BYTE		        Gn4   v108
	BYTE		N05     Cn5   v100
	BYTE	W06
	BYTE		        Gn4   v080
	BYTE		N05     Cn5   v100
	BYTE	W06
	BYTE		        Cn5   v112
	BYTE		N05     Fn5   v104
	BYTE	W06
	BYTE		        Cn5   v100
	BYTE		N05     Fn5   v096
	BYTE	W06
	BYTE	GoTo
	 POIN2	EnemyPhase_4_B1
EnemyPhase_4_B2:
	BYTE	FINE

//**************** Track 5 (Midi-Chn.5) ****************//

EnemyPhase_5:
	BYTE	KEYSH   EnemyPhase_key+0
EnemyPhase_5_B1:
// 000   ----------------------------------------
	BYTE		VOICE   75
	BYTE		VOL     87*EnemyPhase_mvl/mxv
	BYTE		PAN     c_v+37
	BYTE		N02     Cn5   v088
	BYTE	W03
	BYTE		        Cn5   v036
	BYTE	W03
	BYTE		        Fn5   v088
	BYTE	W03
	BYTE		        Fn5   v036
	BYTE	W03
	BYTE		        Gn5   v088
	BYTE	W03
	BYTE		        Gn5   v036
	BYTE	W03
	BYTE		        Cn6   v088
	BYTE	W03
	BYTE		        Cn6   v036
	BYTE	W03
	BYTE		        Cn5   v088
	BYTE	W03
	BYTE		        Cn5   v036
	BYTE	W03
	BYTE		        Cn6   v088
	BYTE	W03
	BYTE		        Cn6   v036
	BYTE	W03
	BYTE		        As5   v088
	BYTE	W03
	BYTE		        As5   v036
	BYTE	W03
	BYTE		        Fn5   v088
	BYTE	W03
	BYTE		        Fn5   v036
	BYTE	W03
	BYTE		        Gn5   v088
	BYTE	W03
	BYTE		        Gn5   v036
	BYTE	W03
	BYTE		        Cn6   v088
	BYTE	W03
	BYTE		        Cn6   v036
	BYTE	W03
	BYTE		        Fn6   v088
	BYTE	W03
	BYTE		        Fn6   v036
	BYTE	W03
	BYTE		        Gn5   v088
	BYTE	W03
	BYTE		        Gn5   v036
	BYTE	W03
	BYTE		        Cn5   v088
	BYTE	W03
	BYTE		        Cn5   v036
	BYTE	W03
	BYTE		        Fn5   v088
	BYTE	W03
	BYTE		        Fn5   v036
	BYTE	W03
	BYTE		        Gn5   v088
	BYTE	W03
	BYTE		        Gn5   v036
	BYTE	W03
	BYTE		        Cn6   v088
	BYTE	W03
	BYTE		        Cn6   v036
	BYTE	W03
// 001   ----------------------------------------
EnemyPhase_5_001:
	BYTE		N02     Cn5   v088
	BYTE	W03
	BYTE		        Cn5   v036
	BYTE	W03
	BYTE		        Fn5   v088
	BYTE	W03
	BYTE		        Fn5   v036
	BYTE	W03
	BYTE		        Gn5   v088
	BYTE	W03
	BYTE		        Gn5   v036
	BYTE	W03
	BYTE		        Cn6   v088
	BYTE	W03
	BYTE		        Cn6   v036
	BYTE	W03
	BYTE		        Cn5   v088
	BYTE	W03
	BYTE		        Cn5   v036
	BYTE	W03
	BYTE		        Cn6   v088
	BYTE	W03
	BYTE		        Cn6   v036
	BYTE	W03
	BYTE		        As5   v088
	BYTE	W03
	BYTE		        As5   v036
	BYTE	W03
	BYTE		        Fn5   v088
	BYTE	W03
	BYTE		        Fn5   v036
	BYTE	W03
	BYTE		        Gn5   v088
	BYTE	W03
	BYTE		        Gn5   v036
	BYTE	W03
	BYTE		        Cn6   v088
	BYTE	W03
	BYTE		        Cn6   v036
	BYTE	W03
	BYTE		        As5   v088
	BYTE	W03
	BYTE		        As5   v036
	BYTE	W03
	BYTE		        Fn6   v088
	BYTE	W03
	BYTE		        Fn6   v036
	BYTE	W03
	BYTE		        Gn5   v088
	BYTE	W03
	BYTE		        Gn5   v036
	BYTE	W03
	BYTE		        Fn6   v088
	BYTE	W03
	BYTE		        Fn6   v036
	BYTE	W03
	BYTE		        Ds6   v088
	BYTE	W03
	BYTE		        Ds6   v036
	BYTE	W03
	BYTE		        As5   v088
	BYTE	W03
	BYTE		        As5   v036
	BYTE	W03
	BYTE	PEND
// 002   ----------------------------------------
EnemyPhase_5_002:
	BYTE		N02     Cn5   v088
	BYTE	W03
	BYTE		        Cn5   v036
	BYTE	W03
	BYTE		        Fn5   v088
	BYTE	W03
	BYTE		        Fn5   v036
	BYTE	W03
	BYTE		        Gn5   v088
	BYTE	W03
	BYTE		        Gn5   v036
	BYTE	W03
	BYTE		        Cn6   v088
	BYTE	W03
	BYTE		        Cn6   v036
	BYTE	W03
	BYTE		        Cn5   v088
	BYTE	W03
	BYTE		        Cn5   v036
	BYTE	W03
	BYTE		        Cn6   v088
	BYTE	W03
	BYTE		        Cn6   v036
	BYTE	W03
	BYTE		        As5   v088
	BYTE	W03
	BYTE		        As5   v036
	BYTE	W03
	BYTE		        Fn5   v088
	BYTE	W03
	BYTE		        Fn5   v036
	BYTE	W03
	BYTE		        Gn5   v088
	BYTE	W03
	BYTE		        Gn5   v036
	BYTE	W03
	BYTE		        Cn6   v088
	BYTE	W03
	BYTE		        Cn6   v036
	BYTE	W03
	BYTE		        Fn6   v088
	BYTE	W03
	BYTE		        Fn6   v036
	BYTE	W03
	BYTE		        Gn5   v088
	BYTE	W03
	BYTE		        Gn5   v036
	BYTE	W03
	BYTE		        Cn5   v088
	BYTE	W03
	BYTE		        Cn5   v036
	BYTE	W03
	BYTE		        Fn5   v088
	BYTE	W03
	BYTE		        Fn5   v036
	BYTE	W03
	BYTE		        Gn5   v088
	BYTE	W03
	BYTE		        Gn5   v036
	BYTE	W03
	BYTE		        Cn6   v088
	BYTE	W03
	BYTE		        Cn6   v036
	BYTE	W03
	BYTE	PEND
// 003   ----------------------------------------
EnemyPhase_5_003:
	BYTE		N02     Cn5   v088
	BYTE	W03
	BYTE		        Cn5   v036
	BYTE	W03
	BYTE		        Fn5   v088
	BYTE	W03
	BYTE		        Fn5   v036
	BYTE	W03
	BYTE		        Gn5   v088
	BYTE	W03
	BYTE		        Gn5   v036
	BYTE	W03
	BYTE		        Cn6   v088
	BYTE	W03
	BYTE		        Cn6   v036
	BYTE	W03
	BYTE		        Cn5   v088
	BYTE	W03
	BYTE		        Cn5   v036
	BYTE	W03
	BYTE		        Cn6   v088
	BYTE	W03
	BYTE		        Cn6   v036
	BYTE	W03
	BYTE		        As5   v088
	BYTE	W03
	BYTE		        As5   v036
	BYTE	W03
	BYTE		        Fn5   v088
	BYTE	W03
	BYTE		        Fn5   v036
	BYTE	W03
	BYTE		        Gn5   v088
	BYTE	W03
	BYTE		        Gn5   v036
	BYTE	W03
	BYTE		        Cn6   v088
	BYTE	W03
	BYTE		        Cn6   v036
	BYTE	W03
	BYTE		        As5   v088
	BYTE	W03
	BYTE		        As5   v036
	BYTE	W03
	BYTE		        Ds6   v088
	BYTE	W03
	BYTE		        Ds6   v036
	BYTE	W03
	BYTE		        Gn5   v088
	BYTE	W03
	BYTE		        Gn5   v036
	BYTE	W03
	BYTE		        Cn6   v088
	BYTE	W03
	BYTE		        Cn6   v036
	BYTE	W03
	BYTE		        Fn6   v088
	BYTE	W03
	BYTE		        Fn6   v036
	BYTE	W03
	BYTE		        Gn6   v088
	BYTE	W03
	BYTE		        Gn6   v036
	BYTE	W03
	BYTE	PEND
// 004   ----------------------------------------
	BYTE	PATT
	 POIN2	EnemyPhase_5_002
// 005   ----------------------------------------
	BYTE	PATT
	 POIN2	EnemyPhase_5_001
// 006   ----------------------------------------
	BYTE	PATT
	 POIN2	EnemyPhase_5_002
// 007   ----------------------------------------
	BYTE	PATT
	 POIN2	EnemyPhase_5_003
// 008   ----------------------------------------
	BYTE	PATT
	 POIN2	EnemyPhase_5_002
// 009   ----------------------------------------
	BYTE	PATT
	 POIN2	EnemyPhase_5_001
// 010   ----------------------------------------
	BYTE	PATT
	 POIN2	EnemyPhase_5_002
// 011   ----------------------------------------
	BYTE	PATT
	 POIN2	EnemyPhase_5_003
// 012   ----------------------------------------
	BYTE	PATT
	 POIN2	EnemyPhase_5_002
// 013   ----------------------------------------
	BYTE	PATT
	 POIN2	EnemyPhase_5_001
// 014   ----------------------------------------
	BYTE	PATT
	 POIN2	EnemyPhase_5_002
// 015   ----------------------------------------
	BYTE	PATT
	 POIN2	EnemyPhase_5_003
// 016   ----------------------------------------
	BYTE	W96
// 017   ----------------------------------------
	BYTE	W96
// 018   ----------------------------------------
	BYTE		N03     Cn6   v127
	BYTE	W06
	BYTE		        Cn6   v048
	BYTE	W06
	BYTE		        Cn6   v127
	BYTE	W06
	BYTE		        Cn6   v048
	BYTE	W06
	BYTE		        Gn5   v127
	BYTE	W06
	BYTE		        Gn5   v048
	BYTE	W06
	BYTE		        Gn5   v127
	BYTE	W06
	BYTE		        Gn5   v048
	BYTE	W06
	BYTE		        Dn5   v127
	BYTE	W06
	BYTE		        Dn5   v048
	BYTE	W06
	BYTE		        Dn5   v127
	BYTE	W06
	BYTE		        Dn5   v048
	BYTE	W06
	BYTE		        Gn4   v127
	BYTE	W06
	BYTE		        Gn4   v048
	BYTE	W06
	BYTE		        Gn4   v127
	BYTE	W06
	BYTE		        Gn4   v048
	BYTE	W06
// 019   ----------------------------------------
	BYTE	W12
	BYTE		        Gn5   v127
	BYTE		N03     Cn6 
	BYTE	W06
	BYTE		        Gn5   v044
	BYTE		N03     Cn6 
	BYTE	W06
	BYTE		        Gn5   v127
	BYTE		N03     Cn6 
	BYTE	W06
	BYTE		        Gn5   v044
	BYTE		N03     Cn6 
	BYTE	W06
	BYTE		        Dn5   v127
	BYTE		N03     Gn5 
	BYTE	W06
	BYTE		        Dn5   v044
	BYTE		N03     Gn5 
	BYTE	W06
	BYTE		        Dn5   v127
	BYTE		N03     Gn5 
	BYTE	W06
	BYTE		        Dn5   v044
	BYTE		N03     Gn5 
	BYTE	W06
	BYTE		        An4   v127
	BYTE		N03     Dn5 
	BYTE	W06
	BYTE		        An4   v044
	BYTE		N03     Dn5 
	BYTE	W06
	BYTE		        An4   v127
	BYTE		N03     Dn5 
	BYTE	W06
	BYTE		        An4   v044
	BYTE		N03     Dn5 
	BYTE	W06
	BYTE		        Gn4   v127
	BYTE	W06
	BYTE		        Gn4   v044
	BYTE	W06
// 020   ----------------------------------------
	BYTE		        Gn4   v120
	BYTE	W06
	BYTE		        Gn4   v036
	BYTE	W06
	BYTE		        An4   v120
	BYTE		N03     Dn5 
	BYTE	W06
	BYTE		        An4   v036
	BYTE		N03     Dn5 
	BYTE	W06
	BYTE		        An4   v120
	BYTE		N03     Dn5 
	BYTE	W06
	BYTE		        An4   v036
	BYTE		N03     Dn5 
	BYTE	W06
	BYTE		        Dn5   v120
	BYTE		N03     Gn5 
	BYTE	W06
	BYTE		        Dn5   v036
	BYTE		N03     Gn5 
	BYTE	W06
	BYTE		N96     Gn2   v088
	BYTE		N96     Cn3   v092
	BYTE	W06
	BYTE	W01
	BYTE	W02
	BYTE	W01
	BYTE	W02
	BYTE	W01
	BYTE	W02
	BYTE	W01
	BYTE	W02
	BYTE	W01
	BYTE	W02
	BYTE	W01
	BYTE	W01
	BYTE	W03
	BYTE	W03
	BYTE	W03
	BYTE	W03
	BYTE	W03
	BYTE	W03
	BYTE	W03
	BYTE	W03
	BYTE	W01
// 021   ----------------------------------------
	BYTE	W02
	BYTE	W03
	BYTE	W03
	BYTE	W03
	BYTE	W03
	BYTE	W03
	BYTE	W03
	BYTE	W03
	BYTE	W03
	BYTE	W03
	BYTE	W03
	BYTE	W03
	BYTE	W03
	BYTE	W03
	BYTE	W01
	BYTE	W18
	BYTE		N08     Fn2   v108
	BYTE		N08     As2   v112
	BYTE	W24
	BYTE		        Cn2   v108
	BYTE		N08     Fn2   v104
	BYTE	W12
// 022   ----------------------------------------
	BYTE	W12
	BYTE		N06     Dn2   v108
	BYTE		N07     Gn2   v112
	BYTE	W21
	BYTE	W02
	BYTE	W01
	BYTE		N09     Fn1   v104
	BYTE		N09     As1 
	BYTE	W02
	BYTE	W01
	BYTE	W02
	BYTE	W01
	BYTE	W02
	BYTE	W01
	BYTE	W02
	BYTE	W01
	BYTE		N92     Gn1   v096
	BYTE		N92     Cn2 
	BYTE	W03
	BYTE	W03
	BYTE	W03
	BYTE	W03
	BYTE	W03
	BYTE	W03
	BYTE	W03
	BYTE	W03
	BYTE	W03
	BYTE	W03
	BYTE	W03
	BYTE	W03
	BYTE	W03
	BYTE	W03
	BYTE	W03
	BYTE	W03
// 023   ----------------------------------------
	BYTE	W03
	BYTE	W03
	BYTE	W03
	BYTE	W03
	BYTE	W03
	BYTE	W03
	BYTE	W03
	BYTE	W03
	BYTE	W03
	BYTE	W02
	BYTE	W01
	BYTE	W02
	BYTE	W01
	BYTE	W02
	BYTE	W01
	BYTE	W02
	BYTE	W01
	BYTE	W02
	BYTE	W01
	BYTE	W02
	BYTE	W01
	BYTE	W02
	BYTE	W01
	BYTE	W02
	BYTE	W01
	BYTE	W02
	BYTE	W01
	BYTE	W02
	BYTE	W01
	BYTE	W02
	BYTE	W01
	BYTE	W02
	BYTE	W01
	BYTE	W02
	BYTE	W01
	BYTE	W02
	BYTE	W01
	BYTE	W02
	BYTE	W01
	BYTE	W24
// 024   ----------------------------------------
	BYTE	W48
	BYTE	GoTo
	 POIN2	EnemyPhase_5_B1
EnemyPhase_5_B2:
	BYTE	FINE

//**************** Track 6 (Midi-Chn.6) ****************//

EnemyPhase_6:
	BYTE	KEYSH   EnemyPhase_key+0
EnemyPhase_6_B1:
// 000   ----------------------------------------
	BYTE		VOICE   29
	BYTE	W96
// 001   ----------------------------------------
	BYTE	W96
// 002   ----------------------------------------
	BYTE	W96
// 003   ----------------------------------------
	BYTE	W96
// 004   ----------------------------------------
	BYTE	W96
// 005   ----------------------------------------
	BYTE	W72
	BYTE		VOL     127*EnemyPhase_mvl/mxv
	BYTE		PAN     c_v+17
	BYTE	W24
// 006   ----------------------------------------
EnemyPhase_6_006:
	BYTE		N11     Fn0   v127
	BYTE	W12
	BYTE		N22     Fn0   v060
	BYTE	W78
	BYTE		N11     Fn0   v127
	BYTE	W06
	BYTE	PEND
// 007   ----------------------------------------
	BYTE	W06
	BYTE		N24     Fn0   v060
	BYTE	W90
// 008   ----------------------------------------
EnemyPhase_6_008:
	BYTE		N11     Fn0   v127
	BYTE	W12
	BYTE		N22     Fn0   v052
	BYTE	W78
	BYTE		N11     Fn0   v127
	BYTE	W06
	BYTE	PEND
// 009   ----------------------------------------
	BYTE	W06
	BYTE		N21     Fn0   v052
	BYTE	W90
// 010   ----------------------------------------
	BYTE	PATT
	 POIN2	EnemyPhase_6_006
// 011   ----------------------------------------
	BYTE	W06
	BYTE		N24     Fn0   v060
	BYTE	W90
// 012   ----------------------------------------
	BYTE	PATT
	 POIN2	EnemyPhase_6_008
// 013   ----------------------------------------
	BYTE	W06
	BYTE		N21     Fn0   v052
	BYTE	W90
// 014   ----------------------------------------
	BYTE	PATT
	 POIN2	EnemyPhase_6_006
// 015   ----------------------------------------
	BYTE	W06
	BYTE		N24     Fn0   v060
	BYTE	W90
// 016   ----------------------------------------
	BYTE		N11     Fn0   v124
	BYTE	W12
	BYTE		N05     Fn0   v100
	BYTE	W06
	BYTE		        Fn0   v096
	BYTE	W06
	BYTE		N11     Fn0   v120
	BYTE	W12
	BYTE		N05     Fn0   v092
	BYTE	W06
	BYTE		N05   
	BYTE	W06
	BYTE		N11     Fn0   v120
	BYTE	W12
	BYTE		N05     Fn0   v084
	BYTE	W06
	BYTE		        Fn0   v076
	BYTE	W06
	BYTE		N11     Fn0   v124
	BYTE	W12
	BYTE		N05     Fn0   v088
	BYTE	W06
	BYTE		        Fn0   v100
	BYTE	W06
// 017   ----------------------------------------
	BYTE		N11     Fn0   v116
	BYTE	W12
	BYTE		N05     Fn0   v080
	BYTE	W06
	BYTE		        Fn0   v084
	BYTE	W06
	BYTE		N11     Fn0   v124
	BYTE	W12
	BYTE		N05     Fn0   v084
	BYTE	W06
	BYTE		        Fn0   v100
	BYTE	W06
	BYTE		N11     Fn0   v124
	BYTE	W12
	BYTE		N05     Fn0   v088
	BYTE	W06
	BYTE		        Fn0   v080
	BYTE	W06
	BYTE		N11     Fn0   v124
	BYTE	W12
	BYTE		N05     Fn0   v096
	BYTE	W06
	BYTE		        Fn0   v084
	BYTE	W06
// 018   ----------------------------------------
	BYTE		N11     Fn0   v120
	BYTE	W12
	BYTE		N05     Fn0   v096
	BYTE	W06
	BYTE		        Fn0   v092
	BYTE	W06
	BYTE		N11     Fn0   v124
	BYTE	W12
	BYTE		N05     Fn0   v096
	BYTE	W06
	BYTE		        Fn0   v100
	BYTE	W06
	BYTE		N11     Fn0   v124
	BYTE	W12
	BYTE		N05     Fn0   v096
	BYTE	W06
	BYTE		        Fn0   v088
	BYTE	W06
	BYTE		N11     Fn0   v124
	BYTE	W12
	BYTE		N05     Fn0   v076
	BYTE	W06
	BYTE		        Fn0   v084
	BYTE	W06
// 019   ----------------------------------------
	BYTE		N11     Fn0   v124
	BYTE	W12
	BYTE		N05     Fn0   v088
	BYTE	W06
	BYTE		        Fn0   v080
	BYTE	W06
	BYTE		N11     Fn0   v124
	BYTE	W12
	BYTE		N05     Fn0   v096
	BYTE	W06
	BYTE		        Fn0   v084
	BYTE	W06
	BYTE		N11     Fn0   v120
	BYTE	W12
	BYTE		N05     Fn0   v096
	BYTE	W06
	BYTE		        Fn0   v092
	BYTE	W06
	BYTE		N11     Fn0   v124
	BYTE	W12
	BYTE		N05     Fn0   v096
	BYTE	W06
	BYTE		        Fn0   v100
	BYTE	W06
// 020   ----------------------------------------
	BYTE		N11     Fn0   v124
	BYTE	W12
	BYTE		N05     Fn0   v096
	BYTE	W06
	BYTE		        Fn0   v088
	BYTE	W06
	BYTE		N11     Fn0   v124
	BYTE	W12
	BYTE		N05     Fn0   v076
	BYTE	W06
	BYTE		        Fn0   v084
	BYTE	W54
// 021   ----------------------------------------
	BYTE		N44     Fn2   v072
	BYTE	W48
	BYTE		N92     Ds2   v080
	BYTE	W48
// 022   ----------------------------------------
	BYTE	W48
	BYTE		        Dn2 
	BYTE	W48
// 023   ----------------------------------------
	BYTE	W48
	BYTE		        Ds2   v064
	BYTE	W48
// 024   ----------------------------------------
	BYTE	W48
	BYTE	GoTo
	 POIN2	EnemyPhase_6_B1
EnemyPhase_6_B2:
	BYTE	FINE

//**************** Track 7 (Midi-Chn.7) ****************//

EnemyPhase_7:
	BYTE	KEYSH   EnemyPhase_key+0
EnemyPhase_7_B1:
// 000   ----------------------------------------
	BYTE		VOICE   60
	BYTE		VOL     112*EnemyPhase_mvl/mxv
	BYTE		PAN     c_v-31
	BYTE		N05     Cn2   v120
	BYTE	W02
	BYTE		PAN     c_v-44
	BYTE	W01
	BYTE		        c_v-43
	BYTE	W01
	BYTE		        c_v-42
	BYTE	W01
	BYTE		        c_v-41
	BYTE	W01
	BYTE		        c_v-40
	BYTE		N05     Cn2   v068
	BYTE	W01
	BYTE		PAN     c_v-39
	BYTE	W01
	BYTE		        c_v-38
	BYTE	W01
	BYTE		        c_v-37
	BYTE	W01
	BYTE		        c_v-36
	BYTE	W01
	BYTE		        c_v-35
	BYTE	W01
	BYTE		        c_v-34
	BYTE		N05     Fn2   v088
	BYTE		N05     Cn3 
	BYTE	W01
	BYTE		PAN     c_v-33
	BYTE	W01
	BYTE		        c_v-32
	BYTE	W01
	BYTE		        c_v-31
	BYTE	W01
	BYTE		        c_v-30
	BYTE	W01
	BYTE		        c_v-29
	BYTE	W01
	BYTE		        c_v-28
	BYTE		N05     Fn2   v048
	BYTE		N05     Cn3 
	BYTE	W01
	BYTE		PAN     c_v-27
	BYTE	W02
	BYTE		        c_v-26
	BYTE	W01
	BYTE		        c_v-25
	BYTE	W01
	BYTE		        c_v-24
	BYTE	W01
	BYTE		        c_v-23
	BYTE		N05     Cn2   v120
	BYTE	W01
	BYTE		PAN     c_v-22
	BYTE	W01
	BYTE		        c_v-21
	BYTE	W01
	BYTE		        c_v-20
	BYTE	W01
	BYTE		        c_v-19
	BYTE	W01
	BYTE		        c_v-18
	BYTE	W01
	BYTE		        c_v-17
	BYTE		N05     Cn2   v068
	BYTE	W01
	BYTE		PAN     c_v-16
	BYTE	W01
	BYTE		        c_v-15
	BYTE	W01
	BYTE		        c_v-14
	BYTE	W01
	BYTE		        c_v-13
	BYTE	W01
	BYTE		        c_v-12
	BYTE	W01
	BYTE		        c_v-11
	BYTE		N05     Fn2   v088
	BYTE		N05     Cn3 
	BYTE	W01
	BYTE		PAN     c_v-10
	BYTE	W01
	BYTE		        c_v-9
	BYTE	W01
	BYTE		        c_v-8
	BYTE	W01
	BYTE		        c_v-7
	BYTE	W02
	BYTE		        c_v-6
	BYTE		N05     Fn2   v048
	BYTE		N05     Cn3 
	BYTE	W01
	BYTE		PAN     c_v-5
	BYTE	W01
	BYTE		        c_v-4
	BYTE	W01
	BYTE		        c_v-3
	BYTE	W01
	BYTE		        c_v-2
	BYTE	W01
	BYTE		        c_v-1
	BYTE	W01
	BYTE		        c_v+0
	BYTE		N05     Cn2   v120
	BYTE	W01
	BYTE		PAN     c_v+1
	BYTE	W01
	BYTE		        c_v+2
	BYTE	W01
	BYTE		        c_v+3
	BYTE	W01
	BYTE		        c_v+4
	BYTE	W01
	BYTE		        c_v+5
	BYTE	W01
	BYTE		        c_v+6
	BYTE		N05     Cn2   v068
	BYTE	W01
	BYTE		PAN     c_v+7
	BYTE	W01
	BYTE		        c_v+8
	BYTE	W01
	BYTE		        c_v+9
	BYTE	W01
	BYTE		        c_v+10
	BYTE	W01
	BYTE		        c_v+11
	BYTE	W01
	BYTE		        c_v+12
	BYTE		N05     Fn2   v088
	BYTE		N05     Cn3 
	BYTE	W01
	BYTE		PAN     c_v+13
	BYTE	W02
	BYTE		        c_v+14
	BYTE	W01
	BYTE		        c_v+15
	BYTE	W01
	BYTE		        c_v+16
	BYTE	W01
	BYTE		        c_v+17
	BYTE		N05     Fn2   v048
	BYTE		N05     Cn3 
	BYTE	W01
	BYTE		PAN     c_v+18
	BYTE	W02
	BYTE		        c_v+19
	BYTE	W01
	BYTE		        c_v+20
	BYTE	W01
	BYTE		        c_v+21
	BYTE	W01
	BYTE		        c_v+22
	BYTE		N05     Fn2   v088
	BYTE	W01
	BYTE		PAN     c_v+23
	BYTE	W01
	BYTE		        c_v+24
	BYTE	W01
	BYTE		        c_v+25
	BYTE	W01
	BYTE		        c_v+26
	BYTE	W01
	BYTE		        c_v+27
	BYTE	W01
	BYTE		        c_v+28
	BYTE		N05     Fn2   v048
	BYTE	W01
	BYTE		PAN     c_v+29
	BYTE	W01
	BYTE		        c_v+30
	BYTE	W01
	BYTE		        c_v+31
	BYTE	W01
	BYTE		        c_v+32
	BYTE	W02
	BYTE		        c_v+33
	BYTE		N05     Cn2   v120
	BYTE	W01
	BYTE		PAN     c_v+34
	BYTE	W01
	BYTE		        c_v+35
	BYTE	W01
	BYTE		        c_v+36
	BYTE	W01
	BYTE		        c_v+37
	BYTE	W01
	BYTE		        c_v+38
	BYTE	W01
	BYTE		        c_v+39
	BYTE		N05     Fn2   v088
	BYTE		N05     Cn3 
	BYTE	W01
	BYTE		PAN     c_v+40
	BYTE	W01
	BYTE		        c_v+41
	BYTE	W01
	BYTE		        c_v+42
	BYTE	W01
	BYTE		        c_v+43
	BYTE	W01
	BYTE		        c_v+44
	BYTE	W01
// 001   ----------------------------------------
EnemyPhase_7_001:
	BYTE		PAN     c_v+45
	BYTE		N05     As1   v120
	BYTE	W02
	BYTE		PAN     c_v+44
	BYTE	W01
	BYTE		        c_v+43
	BYTE	W01
	BYTE		        c_v+42
	BYTE	W01
	BYTE		        c_v+41
	BYTE	W01
	BYTE		        c_v+40
	BYTE		N05     As1   v068
	BYTE	W01
	BYTE		PAN     c_v+39
	BYTE	W01
	BYTE		        c_v+38
	BYTE	W01
	BYTE		        c_v+37
	BYTE	W01
	BYTE		        c_v+36
	BYTE	W01
	BYTE		        c_v+35
	BYTE	W01
	BYTE		        c_v+34
	BYTE		N05     Ds2   v088
	BYTE		N05     As2 
	BYTE	W01
	BYTE		PAN     c_v+33
	BYTE	W01
	BYTE		        c_v+32
	BYTE	W01
	BYTE		        c_v+31
	BYTE	W01
	BYTE		        c_v+30
	BYTE	W01
	BYTE		        c_v+29
	BYTE	W01
	BYTE		        c_v+28
	BYTE		N05     Ds2   v048
	BYTE		N05     As2 
	BYTE	W01
	BYTE		PAN     c_v+27
	BYTE	W02
	BYTE		        c_v+26
	BYTE	W01
	BYTE		        c_v+25
	BYTE	W01
	BYTE		        c_v+24
	BYTE	W01
	BYTE		        c_v+23
	BYTE		N05     As1   v120
	BYTE	W01
	BYTE		PAN     c_v+22
	BYTE	W01
	BYTE		        c_v+21
	BYTE	W01
	BYTE		        c_v+20
	BYTE	W01
	BYTE		        c_v+19
	BYTE	W01
	BYTE		        c_v+18
	BYTE	W01
	BYTE		        c_v+17
	BYTE		N05     As1   v068
	BYTE	W01
	BYTE		PAN     c_v+16
	BYTE	W01
	BYTE		        c_v+15
	BYTE	W01
	BYTE		        c_v+14
	BYTE	W01
	BYTE		        c_v+13
	BYTE	W01
	BYTE		        c_v+12
	BYTE	W01
	BYTE		        c_v+11
	BYTE		N05     Ds2   v088
	BYTE		N05     As2 
	BYTE	W01
	BYTE		PAN     c_v+10
	BYTE	W01
	BYTE		        c_v+9
	BYTE	W01
	BYTE		        c_v+8
	BYTE	W01
	BYTE		        c_v+7
	BYTE	W02
	BYTE		        c_v+6
	BYTE		N05     Ds2   v048
	BYTE		N05     As2 
	BYTE	W01
	BYTE		PAN     c_v+5
	BYTE	W01
	BYTE		        c_v+4
	BYTE	W01
	BYTE		        c_v+3
	BYTE	W01
	BYTE		        c_v+2
	BYTE	W01
	BYTE		        c_v+1
	BYTE	W01
	BYTE		        c_v+0
	BYTE		N05     As1   v120
	BYTE	W01
	BYTE		PAN     c_v-1
	BYTE	W01
	BYTE		        c_v-2
	BYTE	W01
	BYTE		        c_v-3
	BYTE	W01
	BYTE		        c_v-4
	BYTE	W01
	BYTE		        c_v-5
	BYTE	W01
	BYTE		        c_v-6
	BYTE		N05     As1   v068
	BYTE	W01
	BYTE		PAN     c_v-7
	BYTE	W01
	BYTE		        c_v-8
	BYTE	W01
	BYTE		        c_v-9
	BYTE	W01
	BYTE		        c_v-10
	BYTE	W01
	BYTE		        c_v-11
	BYTE	W01
	BYTE		        c_v-12
	BYTE		N05     Ds2   v088
	BYTE		N05     As2 
	BYTE	W01
	BYTE		PAN     c_v-13
	BYTE	W02
	BYTE		        c_v-14
	BYTE	W01
	BYTE		        c_v-15
	BYTE	W01
	BYTE		        c_v-16
	BYTE	W01
	BYTE		        c_v-17
	BYTE		N05     Ds2   v048
	BYTE		N05     As2 
	BYTE	W01
	BYTE		PAN     c_v-18
	BYTE	W02
	BYTE		        c_v-19
	BYTE	W01
	BYTE		        c_v-20
	BYTE	W01
	BYTE		        c_v-21
	BYTE	W01
	BYTE		        c_v-22
	BYTE		N05     As1   v120
	BYTE	W01
	BYTE		PAN     c_v-23
	BYTE	W01
	BYTE		        c_v-24
	BYTE	W01
	BYTE		        c_v-25
	BYTE	W01
	BYTE		        c_v-26
	BYTE	W01
	BYTE		        c_v-27
	BYTE	W01
	BYTE		        c_v-28
	BYTE		N05     As1   v068
	BYTE	W01
	BYTE		PAN     c_v-29
	BYTE	W01
	BYTE		        c_v-30
	BYTE	W01
	BYTE		        c_v-31
	BYTE	W01
	BYTE		        c_v-32
	BYTE	W02
	BYTE		        c_v-33
	BYTE		N05     Ds2   v088
	BYTE		N05     As2 
	BYTE	W01
	BYTE		PAN     c_v-34
	BYTE	W01
	BYTE		        c_v-35
	BYTE	W01
	BYTE		        c_v-36
	BYTE	W01
	BYTE		        c_v-37
	BYTE	W01
	BYTE		        c_v-38
	BYTE	W01
	BYTE		        c_v-39
	BYTE		N05     Ds2   v048
	BYTE		N05     As2 
	BYTE	W01
	BYTE		PAN     c_v-40
	BYTE	W01
	BYTE		        c_v-41
	BYTE	W01
	BYTE		        c_v-42
	BYTE	W01
	BYTE		        c_v-43
	BYTE	W01
	BYTE		        c_v-44
	BYTE	W01
	BYTE	PEND
// 002   ----------------------------------------
EnemyPhase_7_002:
	BYTE		PAN     c_v-45
	BYTE		N05     Cn2   v120
	BYTE	W02
	BYTE		PAN     c_v-44
	BYTE	W01
	BYTE		        c_v-43
	BYTE	W01
	BYTE		        c_v-42
	BYTE	W01
	BYTE		        c_v-41
	BYTE	W01
	BYTE		        c_v-40
	BYTE		N05     Cn2   v068
	BYTE	W01
	BYTE		PAN     c_v-39
	BYTE	W01
	BYTE		        c_v-38
	BYTE	W01
	BYTE		        c_v-37
	BYTE	W01
	BYTE		        c_v-36
	BYTE	W01
	BYTE		        c_v-35
	BYTE	W01
	BYTE		        c_v-34
	BYTE		N05     Fn2   v088
	BYTE		N05     Cn3 
	BYTE	W01
	BYTE		PAN     c_v-33
	BYTE	W01
	BYTE		        c_v-32
	BYTE	W01
	BYTE		        c_v-31
	BYTE	W01
	BYTE		        c_v-30
	BYTE	W01
	BYTE		        c_v-29
	BYTE	W01
	BYTE		        c_v-28
	BYTE		N05     Fn2   v048
	BYTE		N05     Cn3 
	BYTE	W01
	BYTE		PAN     c_v-27
	BYTE	W02
	BYTE		        c_v-26
	BYTE	W01
	BYTE		        c_v-25
	BYTE	W01
	BYTE		        c_v-24
	BYTE	W01
	BYTE		        c_v-23
	BYTE		N05     Cn2   v120
	BYTE	W01
	BYTE		PAN     c_v-22
	BYTE	W01
	BYTE		        c_v-21
	BYTE	W01
	BYTE		        c_v-20
	BYTE	W01
	BYTE		        c_v-19
	BYTE	W01
	BYTE		        c_v-18
	BYTE	W01
	BYTE		        c_v-17
	BYTE		N05     Cn2   v068
	BYTE	W01
	BYTE		PAN     c_v-16
	BYTE	W01
	BYTE		        c_v-15
	BYTE	W01
	BYTE		        c_v-14
	BYTE	W01
	BYTE		        c_v-13
	BYTE	W01
	BYTE		        c_v-12
	BYTE	W01
	BYTE		        c_v-11
	BYTE		N05     Fn2   v088
	BYTE		N05     Cn3 
	BYTE	W01
	BYTE		PAN     c_v-10
	BYTE	W01
	BYTE		        c_v-9
	BYTE	W01
	BYTE		        c_v-8
	BYTE	W01
	BYTE		        c_v-7
	BYTE	W02
	BYTE		        c_v-6
	BYTE		N05     Fn2   v048
	BYTE		N05     Cn3 
	BYTE	W01
	BYTE		PAN     c_v-5
	BYTE	W01
	BYTE		        c_v-4
	BYTE	W01
	BYTE		        c_v-3
	BYTE	W01
	BYTE		        c_v-2
	BYTE	W01
	BYTE		        c_v-1
	BYTE	W01
	BYTE		        c_v+0
	BYTE		N05     Cn2   v120
	BYTE	W01
	BYTE		PAN     c_v+1
	BYTE	W01
	BYTE		        c_v+2
	BYTE	W01
	BYTE		        c_v+3
	BYTE	W01
	BYTE		        c_v+4
	BYTE	W01
	BYTE		        c_v+5
	BYTE	W01
	BYTE		        c_v+6
	BYTE		N05     Cn2   v068
	BYTE	W01
	BYTE		PAN     c_v+7
	BYTE	W01
	BYTE		        c_v+8
	BYTE	W01
	BYTE		        c_v+9
	BYTE	W01
	BYTE		        c_v+10
	BYTE	W01
	BYTE		        c_v+11
	BYTE	W01
	BYTE		        c_v+12
	BYTE		N05     Fn2   v088
	BYTE		N05     Cn3 
	BYTE	W01
	BYTE		PAN     c_v+13
	BYTE	W02
	BYTE		        c_v+14
	BYTE	W01
	BYTE		        c_v+15
	BYTE	W01
	BYTE		        c_v+16
	BYTE	W01
	BYTE		        c_v+17
	BYTE		N05     Fn2   v048
	BYTE		N05     Cn3 
	BYTE	W01
	BYTE		PAN     c_v+18
	BYTE	W02
	BYTE		        c_v+19
	BYTE	W01
	BYTE		        c_v+20
	BYTE	W01
	BYTE		        c_v+21
	BYTE	W01
	BYTE		        c_v+22
	BYTE		N05     Fn2   v088
	BYTE	W01
	BYTE		PAN     c_v+23
	BYTE	W01
	BYTE		        c_v+24
	BYTE	W01
	BYTE		        c_v+25
	BYTE	W01
	BYTE		        c_v+26
	BYTE	W01
	BYTE		        c_v+27
	BYTE	W01
	BYTE		        c_v+28
	BYTE		N05     Fn2   v048
	BYTE	W01
	BYTE		PAN     c_v+29
	BYTE	W01
	BYTE		        c_v+30
	BYTE	W01
	BYTE		        c_v+31
	BYTE	W01
	BYTE		        c_v+32
	BYTE	W02
	BYTE		        c_v+33
	BYTE		N05     Cn2   v120
	BYTE	W01
	BYTE		PAN     c_v+34
	BYTE	W01
	BYTE		        c_v+35
	BYTE	W01
	BYTE		        c_v+36
	BYTE	W01
	BYTE		        c_v+37
	BYTE	W01
	BYTE		        c_v+38
	BYTE	W01
	BYTE		        c_v+39
	BYTE		N05     Fn2   v088
	BYTE		N05     Cn3 
	BYTE	W01
	BYTE		PAN     c_v+40
	BYTE	W01
	BYTE		        c_v+41
	BYTE	W01
	BYTE		        c_v+42
	BYTE	W01
	BYTE		        c_v+43
	BYTE	W01
	BYTE		        c_v+44
	BYTE	W01
	BYTE	PEND
// 003   ----------------------------------------
	BYTE	PATT
	 POIN2	EnemyPhase_7_001
// 004   ----------------------------------------
	BYTE	PATT
	 POIN2	EnemyPhase_7_002
// 005   ----------------------------------------
	BYTE	PATT
	 POIN2	EnemyPhase_7_001
// 006   ----------------------------------------
	BYTE	PATT
	 POIN2	EnemyPhase_7_002
// 007   ----------------------------------------
	BYTE	PATT
	 POIN2	EnemyPhase_7_001
// 008   ----------------------------------------
	BYTE	PATT
	 POIN2	EnemyPhase_7_002
// 009   ----------------------------------------
	BYTE	PATT
	 POIN2	EnemyPhase_7_001
// 010   ----------------------------------------
	BYTE	PATT
	 POIN2	EnemyPhase_7_002
// 011   ----------------------------------------
	BYTE	PATT
	 POIN2	EnemyPhase_7_001
// 012   ----------------------------------------
	BYTE	PATT
	 POIN2	EnemyPhase_7_002
// 013   ----------------------------------------
	BYTE	PATT
	 POIN2	EnemyPhase_7_001
// 014   ----------------------------------------
	BYTE	PATT
	 POIN2	EnemyPhase_7_002
// 015   ----------------------------------------
	BYTE	PATT
	 POIN2	EnemyPhase_7_001
// 016   ----------------------------------------
	BYTE	W96
// 017   ----------------------------------------
	BYTE	W96
// 018   ----------------------------------------
	BYTE	W96
// 019   ----------------------------------------
	BYTE	W96
// 020   ----------------------------------------
	BYTE	W48
	BYTE		PAN     c_v-45
	BYTE		N03     Fn2   v120
	BYTE		N03     Cn3 
	BYTE	W02
	BYTE		PAN     c_v-44
	BYTE	W01
	BYTE		        c_v-43
	BYTE		N03     Fn2   v060
	BYTE		N03     Cn3 
	BYTE	W01
	BYTE		PAN     c_v-42
	BYTE	W01
	BYTE		        c_v-41
	BYTE	W01
	BYTE		        c_v-40
	BYTE		N03     Fn2   v056
	BYTE		N03     Cn3 
	BYTE	W01
	BYTE		PAN     c_v-39
	BYTE	W01
	BYTE		        c_v-38
	BYTE	W01
	BYTE		        c_v-37
	BYTE		N03     Fn2   v032
	BYTE		N03     Cn3 
	BYTE	W01
	BYTE		PAN     c_v-36
	BYTE	W01
	BYTE		        c_v-35
	BYTE	W01
	BYTE		        c_v-34
	BYTE		N03     Fn2   v092
	BYTE		N03     Cn3 
	BYTE	W01
	BYTE		PAN     c_v-33
	BYTE	W01
	BYTE		        c_v-32
	BYTE	W01
	BYTE		        c_v-31
	BYTE		N03     Fn2   v044
	BYTE		N03     Cn3 
	BYTE	W01
	BYTE		PAN     c_v-30
	BYTE	W01
	BYTE		        c_v-29
	BYTE	W01
	BYTE		        c_v-28
	BYTE		N03     Fn2   v092
	BYTE		N03     Cn3 
	BYTE	W01
	BYTE		PAN     c_v-27
	BYTE	W02
	BYTE		        c_v-26
	BYTE		N03     Fn2   v044
	BYTE		N03     Cn3 
	BYTE	W01
	BYTE		PAN     c_v-25
	BYTE	W01
	BYTE		        c_v-24
	BYTE	W01
	BYTE		        c_v-23
	BYTE		N03     Fn2   v120
	BYTE		N03     Cn3 
	BYTE	W01
	BYTE		PAN     c_v-22
	BYTE	W01
	BYTE		        c_v-21
	BYTE	W01
	BYTE		        c_v-20
	BYTE		N03     Fn2   v060
	BYTE		N03     Cn3 
	BYTE	W01
	BYTE		PAN     c_v-19
	BYTE	W01
	BYTE		        c_v-18
	BYTE	W01
	BYTE		        c_v-17
	BYTE		N03     Fn2   v056
	BYTE		N03     Cn3 
	BYTE	W01
	BYTE		PAN     c_v-16
	BYTE	W01
	BYTE		        c_v-15
	BYTE	W01
	BYTE		        c_v-14
	BYTE		N03     Fn2   v032
	BYTE		N03     Cn3 
	BYTE	W01
	BYTE		PAN     c_v-13
	BYTE	W01
	BYTE		        c_v-12
	BYTE	W01
	BYTE		        c_v-11
	BYTE		N03     Fn2   v092
	BYTE		N03     Cn3 
	BYTE	W01
	BYTE		PAN     c_v-10
	BYTE	W01
	BYTE		        c_v-9
	BYTE	W01
	BYTE		        c_v-8
	BYTE		N03     Fn2   v044
	BYTE		N03     Cn3 
	BYTE	W01
	BYTE		PAN     c_v-7
	BYTE	W02
	BYTE		        c_v-6
	BYTE		N03     Fn2   v092
	BYTE		N03     Cn3 
	BYTE	W01
	BYTE		PAN     c_v-5
	BYTE	W01
	BYTE		        c_v-4
	BYTE	W01
	BYTE		        c_v-3
	BYTE		N03     Fn2   v044
	BYTE		N03     Cn3 
	BYTE	W01
	BYTE		PAN     c_v-2
	BYTE	W01
	BYTE		        c_v-1
	BYTE	W01
// 021   ----------------------------------------
EnemyPhase_7_021:
	BYTE		PAN     c_v+0
	BYTE		N03     Fn2   v120
	BYTE		N03     Cn3 
	BYTE	W01
	BYTE		PAN     c_v+1
	BYTE	W01
	BYTE		        c_v+2
	BYTE	W01
	BYTE		        c_v+3
	BYTE		N03     Fn2   v060
	BYTE		N03     Cn3 
	BYTE	W01
	BYTE		PAN     c_v+4
	BYTE	W01
	BYTE		        c_v+5
	BYTE	W01
	BYTE		        c_v+6
	BYTE		N03     Fn2   v056
	BYTE		N03     Cn3 
	BYTE	W01
	BYTE		PAN     c_v+7
	BYTE	W01
	BYTE		        c_v+8
	BYTE	W01
	BYTE		        c_v+9
	BYTE		N03     Fn2   v032
	BYTE		N03     Cn3 
	BYTE	W01
	BYTE		PAN     c_v+10
	BYTE	W01
	BYTE		        c_v+11
	BYTE	W01
	BYTE		        c_v+12
	BYTE		N03     Fn2   v092
	BYTE		N03     Cn3 
	BYTE	W01
	BYTE		PAN     c_v+13
	BYTE	W02
	BYTE		        c_v+14
	BYTE		N03     Fn2   v044
	BYTE		N03     Cn3 
	BYTE	W01
	BYTE		PAN     c_v+15
	BYTE	W01
	BYTE		        c_v+16
	BYTE	W01
	BYTE		        c_v+17
	BYTE		N03     Fn2   v092
	BYTE		N03     Cn3 
	BYTE	W01
	BYTE		PAN     c_v+18
	BYTE	W02
	BYTE		        c_v+19
	BYTE		N03     Fn2   v044
	BYTE		N03     Cn3 
	BYTE	W01
	BYTE		PAN     c_v+20
	BYTE	W01
	BYTE		        c_v+21
	BYTE	W01
	BYTE		        c_v+22
	BYTE		N03     Fn2   v120
	BYTE		N03     Cn3 
	BYTE	W01
	BYTE		PAN     c_v+23
	BYTE	W01
	BYTE		        c_v+24
	BYTE	W01
	BYTE		        c_v+25
	BYTE		N03     Fn2   v060
	BYTE		N03     Cn3 
	BYTE	W01
	BYTE		PAN     c_v+26
	BYTE	W01
	BYTE		        c_v+27
	BYTE	W01
	BYTE		        c_v+28
	BYTE		N03     Fn2   v056
	BYTE		N03     Cn3 
	BYTE	W01
	BYTE		PAN     c_v+29
	BYTE	W01
	BYTE		        c_v+30
	BYTE	W01
	BYTE		        c_v+31
	BYTE		N03     Fn2   v032
	BYTE		N03     Cn3 
	BYTE	W01
	BYTE		PAN     c_v+32
	BYTE	W02
	BYTE		        c_v+33
	BYTE		N03     Fn2   v092
	BYTE		N03     Cn3 
	BYTE	W01
	BYTE		PAN     c_v+34
	BYTE	W01
	BYTE		        c_v+35
	BYTE	W01
	BYTE		        c_v+36
	BYTE		N03     Fn2   v044
	BYTE		N03     Cn3 
	BYTE	W01
	BYTE		PAN     c_v+37
	BYTE	W01
	BYTE		        c_v+38
	BYTE	W01
	BYTE		        c_v+39
	BYTE		N03     Fn2   v092
	BYTE		N03     Cn3 
	BYTE	W01
	BYTE		PAN     c_v+40
	BYTE	W01
	BYTE		        c_v+41
	BYTE	W01
	BYTE		        c_v+42
	BYTE		N03     Fn2   v044
	BYTE		N03     Cn3 
	BYTE	W01
	BYTE		PAN     c_v+43
	BYTE	W01
	BYTE		        c_v+44
	BYTE	W01
	BYTE		        c_v+45
	BYTE		N03     Fn2   v120
	BYTE		N03     Cn3 
	BYTE	W02
	BYTE		PAN     c_v+44
	BYTE	W01
	BYTE		        c_v+43
	BYTE		N03     Fn2   v060
	BYTE		N03     Cn3 
	BYTE	W01
	BYTE		PAN     c_v+42
	BYTE	W01
	BYTE		        c_v+41
	BYTE	W01
	BYTE		        c_v+40
	BYTE		N03     Fn2   v056
	BYTE		N03     Cn3 
	BYTE	W01
	BYTE		PAN     c_v+39
	BYTE	W01
	BYTE		        c_v+38
	BYTE	W01
	BYTE		        c_v+37
	BYTE		N03     Fn2   v032
	BYTE		N03     Cn3 
	BYTE	W01
	BYTE		PAN     c_v+36
	BYTE	W01
	BYTE		        c_v+35
	BYTE	W01
	BYTE		        c_v+34
	BYTE		N03     Fn2   v092
	BYTE		N03     Cn3 
	BYTE	W01
	BYTE		PAN     c_v+33
	BYTE	W01
	BYTE		        c_v+32
	BYTE	W01
	BYTE		        c_v+31
	BYTE		N03     Fn2   v044
	BYTE		N03     Cn3 
	BYTE	W01
	BYTE		PAN     c_v+30
	BYTE	W01
	BYTE		        c_v+29
	BYTE	W01
	BYTE		        c_v+28
	BYTE		N03     Fn2   v092
	BYTE		N03     Cn3 
	BYTE	W01
	BYTE		PAN     c_v+27
	BYTE	W02
	BYTE		        c_v+26
	BYTE		N03     Fn2   v044
	BYTE		N03     Cn3 
	BYTE	W01
	BYTE		PAN     c_v+25
	BYTE	W01
	BYTE		        c_v+24
	BYTE	W01
	BYTE		        c_v+23
	BYTE		N03     Fn2   v120
	BYTE		N03     Cn3 
	BYTE	W01
	BYTE		PAN     c_v+22
	BYTE	W01
	BYTE		        c_v+21
	BYTE	W01
	BYTE		        c_v+20
	BYTE		N03     Fn2   v060
	BYTE		N03     Cn3 
	BYTE	W01
	BYTE		PAN     c_v+19
	BYTE	W01
	BYTE		        c_v+18
	BYTE	W01
	BYTE		        c_v+17
	BYTE		N03     Fn2   v056
	BYTE		N03     Cn3 
	BYTE	W01
	BYTE		PAN     c_v+16
	BYTE	W01
	BYTE		        c_v+15
	BYTE	W01
	BYTE		        c_v+14
	BYTE		N03     Fn2   v032
	BYTE		N03     Cn3 
	BYTE	W01
	BYTE		PAN     c_v+13
	BYTE	W01
	BYTE		        c_v+12
	BYTE	W01
	BYTE		        c_v+11
	BYTE		N03     Fn2   v092
	BYTE		N03     Cn3 
	BYTE	W01
	BYTE		PAN     c_v+10
	BYTE	W01
	BYTE		        c_v+9
	BYTE	W01
	BYTE		        c_v+8
	BYTE		N03     Fn2   v044
	BYTE		N03     Cn3 
	BYTE	W01
	BYTE		PAN     c_v+7
	BYTE	W02
	BYTE		        c_v+6
	BYTE		N03     Fn2   v092
	BYTE		N03     Cn3 
	BYTE	W01
	BYTE		PAN     c_v+5
	BYTE	W01
	BYTE		        c_v+4
	BYTE	W01
	BYTE		        c_v+3
	BYTE		N03     Fn2   v044
	BYTE		N03     Cn3 
	BYTE	W01
	BYTE		PAN     c_v+2
	BYTE	W01
	BYTE		        c_v+1
	BYTE	W01
	BYTE	PEND
// 022   ----------------------------------------
	BYTE		        c_v+0
	BYTE		N03     Fn2   v120
	BYTE		N03     Cn3 
	BYTE	W01
	BYTE		PAN     c_v-1
	BYTE	W01
	BYTE		        c_v-2
	BYTE	W01
	BYTE		        c_v-3
	BYTE		N03     Fn2   v060
	BYTE		N03     Cn3 
	BYTE	W01
	BYTE		PAN     c_v-4
	BYTE	W01
	BYTE		        c_v-5
	BYTE	W01
	BYTE		        c_v-6
	BYTE		N03     Fn2   v056
	BYTE		N03     Cn3 
	BYTE	W01
	BYTE		PAN     c_v-7
	BYTE	W01
	BYTE		        c_v-8
	BYTE	W01
	BYTE		        c_v-9
	BYTE		N03     Fn2   v032
	BYTE		N03     Cn3 
	BYTE	W01
	BYTE		PAN     c_v-10
	BYTE	W01
	BYTE		        c_v-11
	BYTE	W01
	BYTE		        c_v-12
	BYTE		N03     Fn2   v092
	BYTE		N03     Cn3 
	BYTE	W01
	BYTE		PAN     c_v-13
	BYTE	W02
	BYTE		        c_v-14
	BYTE		N03     Fn2   v044
	BYTE		N03     Cn3 
	BYTE	W01
	BYTE		PAN     c_v-15
	BYTE	W01
	BYTE		        c_v-16
	BYTE	W01
	BYTE		        c_v-17
	BYTE		N03     Fn2   v092
	BYTE		N03     Cn3 
	BYTE	W01
	BYTE		PAN     c_v-18
	BYTE	W02
	BYTE		        c_v-19
	BYTE		N03     Fn2   v044
	BYTE		N03     Cn3 
	BYTE	W01
	BYTE		PAN     c_v-20
	BYTE	W01
	BYTE		        c_v-21
	BYTE	W01
	BYTE		        c_v-22
	BYTE		N03     Fn2   v120
	BYTE		N03     Cn3 
	BYTE	W01
	BYTE		PAN     c_v-23
	BYTE	W01
	BYTE		        c_v-24
	BYTE	W01
	BYTE		        c_v-25
	BYTE		N03     Fn2   v060
	BYTE		N03     Cn3 
	BYTE	W01
	BYTE		PAN     c_v-26
	BYTE	W01
	BYTE		        c_v-27
	BYTE	W01
	BYTE		        c_v-28
	BYTE		N03     Fn2   v056
	BYTE		N03     Cn3 
	BYTE	W01
	BYTE		PAN     c_v-29
	BYTE	W01
	BYTE		        c_v-30
	BYTE	W01
	BYTE		        c_v-31
	BYTE		N03     Fn2   v032
	BYTE		N03     Cn3 
	BYTE	W01
	BYTE		PAN     c_v-32
	BYTE	W02
	BYTE		        c_v-33
	BYTE		N03     Fn2   v092
	BYTE		N03     Cn3 
	BYTE	W01
	BYTE		PAN     c_v-34
	BYTE	W01
	BYTE		        c_v-35
	BYTE	W01
	BYTE		        c_v-36
	BYTE		N03     Fn2   v044
	BYTE		N03     Cn3 
	BYTE	W01
	BYTE		PAN     c_v-37
	BYTE	W01
	BYTE		        c_v-38
	BYTE	W01
	BYTE		        c_v-39
	BYTE		N03     Fn2   v092
	BYTE		N03     Cn3 
	BYTE	W01
	BYTE		PAN     c_v-40
	BYTE	W01
	BYTE		        c_v-41
	BYTE	W01
	BYTE		        c_v-42
	BYTE		N03     Fn2   v044
	BYTE		N03     Cn3 
	BYTE	W01
	BYTE		PAN     c_v-43
	BYTE	W01
	BYTE		        c_v-44
	BYTE	W01
	BYTE		        c_v-45
	BYTE		N03     Fn2   v120
	BYTE		N03     Cn3 
	BYTE	W02
	BYTE		PAN     c_v-44
	BYTE	W01
	BYTE		        c_v-43
	BYTE		N03     Fn2   v060
	BYTE		N03     Cn3 
	BYTE	W01
	BYTE		PAN     c_v-42
	BYTE	W01
	BYTE		        c_v-41
	BYTE	W01
	BYTE		        c_v-40
	BYTE		N03     Fn2   v056
	BYTE		N03     Cn3 
	BYTE	W01
	BYTE		PAN     c_v-39
	BYTE	W01
	BYTE		        c_v-38
	BYTE	W01
	BYTE		        c_v-37
	BYTE		N03     Fn2   v032
	BYTE		N03     Cn3 
	BYTE	W01
	BYTE		PAN     c_v-36
	BYTE	W01
	BYTE		        c_v-35
	BYTE	W01
	BYTE		        c_v-34
	BYTE		N03     Fn2   v092
	BYTE		N03     Cn3 
	BYTE	W01
	BYTE		PAN     c_v-33
	BYTE	W01
	BYTE		        c_v-32
	BYTE	W01
	BYTE		        c_v-31
	BYTE		N03     Fn2   v044
	BYTE		N03     Cn3 
	BYTE	W01
	BYTE		PAN     c_v-30
	BYTE	W01
	BYTE		        c_v-29
	BYTE	W01
	BYTE		        c_v-28
	BYTE		N03     Fn2   v092
	BYTE		N03     Cn3 
	BYTE	W01
	BYTE		PAN     c_v-27
	BYTE	W02
	BYTE		        c_v-26
	BYTE		N03     Fn2   v044
	BYTE		N03     Cn3 
	BYTE	W01
	BYTE		PAN     c_v-25
	BYTE	W01
	BYTE		        c_v-24
	BYTE	W01
	BYTE		        c_v-23
	BYTE		N03     Fn2   v120
	BYTE		N03     Cn3 
	BYTE	W01
	BYTE		PAN     c_v-22
	BYTE	W01
	BYTE		        c_v-21
	BYTE	W01
	BYTE		        c_v-20
	BYTE		N03     Fn2   v060
	BYTE		N03     Cn3 
	BYTE	W01
	BYTE		PAN     c_v-19
	BYTE	W01
	BYTE		        c_v-18
	BYTE	W01
	BYTE		        c_v-17
	BYTE		N03     Fn2   v056
	BYTE		N03     Cn3 
	BYTE	W01
	BYTE		PAN     c_v-16
	BYTE	W01
	BYTE		        c_v-15
	BYTE	W01
	BYTE		        c_v-14
	BYTE		N03     Fn2   v032
	BYTE		N03     Cn3 
	BYTE	W01
	BYTE		PAN     c_v-13
	BYTE	W01
	BYTE		        c_v-12
	BYTE	W01
	BYTE		        c_v-11
	BYTE		N03     Fn2   v092
	BYTE		N03     Cn3 
	BYTE	W01
	BYTE		PAN     c_v-10
	BYTE	W01
	BYTE		        c_v-9
	BYTE	W01
	BYTE		        c_v-8
	BYTE		N03     Fn2   v044
	BYTE		N03     Cn3 
	BYTE	W01
	BYTE		PAN     c_v-7
	BYTE	W02
	BYTE		        c_v-6
	BYTE		N03     Fn2   v092
	BYTE		N03     Cn3 
	BYTE	W01
	BYTE		PAN     c_v-5
	BYTE	W01
	BYTE		        c_v-4
	BYTE	W01
	BYTE		        c_v-3
	BYTE		N03     Fn2   v044
	BYTE		N03     Cn3 
	BYTE	W01
	BYTE		PAN     c_v-2
	BYTE	W01
	BYTE		        c_v-1
	BYTE	W01
// 023   ----------------------------------------
	BYTE	PATT
	 POIN2	EnemyPhase_7_021
// 024   ----------------------------------------
	BYTE		PAN     c_v+0
	BYTE		N03     Fn2   v120
	BYTE		N03     Cn3 
	BYTE	W01
	BYTE		PAN     c_v-1
	BYTE	W01
	BYTE		        c_v-2
	BYTE	W01
	BYTE		        c_v-3
	BYTE		N03     Fn2   v060
	BYTE		N03     Cn3 
	BYTE	W01
	BYTE		PAN     c_v-4
	BYTE	W01
	BYTE		        c_v-5
	BYTE	W01
	BYTE		        c_v-6
	BYTE		N03     Fn2   v056
	BYTE		N03     Cn3 
	BYTE	W01
	BYTE		PAN     c_v-7
	BYTE	W01
	BYTE		        c_v-8
	BYTE	W01
	BYTE		        c_v-9
	BYTE		N03     Fn2   v032
	BYTE		N03     Cn3 
	BYTE	W01
	BYTE		PAN     c_v-10
	BYTE	W01
	BYTE		        c_v-11
	BYTE	W01
	BYTE		        c_v-12
	BYTE		N03     Fn2   v092
	BYTE		N03     Cn3 
	BYTE	W01
	BYTE		PAN     c_v-13
	BYTE	W02
	BYTE		        c_v-14
	BYTE		N03     Fn2   v044
	BYTE		N03     Cn3 
	BYTE	W01
	BYTE		PAN     c_v-15
	BYTE	W01
	BYTE		        c_v-16
	BYTE	W01
	BYTE		        c_v-17
	BYTE		N03     Fn2   v092
	BYTE		N03     Cn3 
	BYTE	W01
	BYTE		PAN     c_v-18
	BYTE	W02
	BYTE		        c_v-19
	BYTE		N03     Fn2   v044
	BYTE		N03     Cn3 
	BYTE	W01
	BYTE		PAN     c_v-20
	BYTE	W01
	BYTE		        c_v-21
	BYTE	W01
	BYTE		        c_v-22
	BYTE		N03     Fn2   v120
	BYTE		N03     Cn3 
	BYTE	W01
	BYTE		PAN     c_v-23
	BYTE	W01
	BYTE		        c_v-24
	BYTE	W01
	BYTE		        c_v-25
	BYTE		N03     Fn2   v060
	BYTE		N03     Cn3 
	BYTE	W01
	BYTE		PAN     c_v-26
	BYTE	W01
	BYTE		        c_v-27
	BYTE	W01
	BYTE		        c_v-28
	BYTE		N03     Fn2   v056
	BYTE		N03     Cn3 
	BYTE	W01
	BYTE		PAN     c_v-29
	BYTE	W01
	BYTE		        c_v-30
	BYTE	W01
	BYTE		        c_v-31
	BYTE		N03     Fn2   v032
	BYTE		N03     Cn3 
	BYTE	W01
	BYTE		PAN     c_v-32
	BYTE	W02
	BYTE		        c_v-33
	BYTE		N03     Fn2   v092
	BYTE		N03     Cn3 
	BYTE	W01
	BYTE		PAN     c_v-34
	BYTE	W01
	BYTE		        c_v-35
	BYTE	W01
	BYTE		        c_v-36
	BYTE		N03     Fn2   v044
	BYTE		N03     Cn3 
	BYTE	W01
	BYTE		PAN     c_v-37
	BYTE	W01
	BYTE		        c_v-38
	BYTE	W01
	BYTE		        c_v-39
	BYTE		N03     Fn2   v092
	BYTE		N03     Cn3 
	BYTE	W01
	BYTE		PAN     c_v-40
	BYTE	W01
	BYTE		        c_v-41
	BYTE	W01
	BYTE		        c_v-42
	BYTE		N03     Fn2   v044
	BYTE		N03     Cn3 
	BYTE	W01
	BYTE		PAN     c_v-43
	BYTE	W01
	BYTE		        c_v-44
	BYTE	W01
	BYTE	GoTo
	 POIN2	EnemyPhase_7_B1
EnemyPhase_7_B2:
	BYTE	FINE

//**************** Track 8 (Midi-Chn.8) ****************//

EnemyPhase_8:
	BYTE	KEYSH   EnemyPhase_key+0
EnemyPhase_8_B1:
// 000   ----------------------------------------
	BYTE		VOICE   127
	BYTE		VOL     86*EnemyPhase_mvl/mxv
	BYTE		PAN     c_v+0
	BYTE		N03     Cn1   v127
	BYTE	W12
	BYTE		        Bn1   v096
	BYTE	W03
	BYTE		        Bn1   v060
	BYTE	W03
	BYTE		        Gn1   v088
	BYTE	W12
	BYTE		        Fn1   v127
	BYTE	W06
	BYTE		        Cn1 
	BYTE	W24
	BYTE		N03   
	BYTE	W06
	BYTE		        Gn1 
	BYTE	W12
	BYTE		        Fn1 
	BYTE	W12
	BYTE		N06     Gn1 
	BYTE	W06
// 001   ----------------------------------------
	BYTE		N03     Cn1   v080
	BYTE	W12
	BYTE		        Cn1   v127
	BYTE	W06
	BYTE		        Cn2 
	BYTE	W12
	BYTE		        An1   v108
	BYTE	W06
	BYTE		        Gn1   v088
	BYTE	W03
	BYTE		        Gn1   v064
	BYTE	W03
	BYTE		        Fn1   v127
	BYTE	W12
	BYTE		        Cn1   v104
	BYTE	W06
	BYTE		        Cn1   v116
	BYTE	W06
	BYTE		        Fn1 
	BYTE	W06
	BYTE		        Fs1   v088
	BYTE	W03
	BYTE		        Fs1   v068
	BYTE	W03
	BYTE		        Fs1   v048
	BYTE	W03
	BYTE		N03   
	BYTE	W03
	BYTE		N03   
	BYTE	W03
	BYTE		N03   
	BYTE	W03
	BYTE		        As1   v088
	BYTE	W06
// 002   ----------------------------------------
	BYTE		        Cn1   v127
	BYTE	W12
	BYTE		        Bn1   v096
	BYTE	W03
	BYTE		        Bn1   v068
	BYTE	W03
	BYTE		        Gn1   v088
	BYTE	W12
	BYTE		        Fn1   v127
	BYTE	W06
	BYTE		        Cn1 
	BYTE	W24
	BYTE		N03   
	BYTE	W06
	BYTE		        Gn1 
	BYTE	W12
	BYTE		        Fn1 
	BYTE	W12
	BYTE		N06     Gn1 
	BYTE	W06
// 003   ----------------------------------------
	BYTE		N03     Cn1   v080
	BYTE	W12
	BYTE		        Cn1   v127
	BYTE	W06
	BYTE		        Cn2 
	BYTE	W12
	BYTE		        An1   v108
	BYTE	W06
	BYTE		        Gn1   v088
	BYTE	W03
	BYTE		        Gn1   v064
	BYTE	W03
	BYTE		        Fn1   v127
	BYTE	W12
	BYTE		        Cn1   v100
	BYTE	W06
	BYTE		        Cn1   v116
	BYTE	W12
	BYTE		        Fn1   v127
	BYTE	W12
	BYTE		        Cn1 
	BYTE	W03
	BYTE		        Cn1   v092
	BYTE	W03
	BYTE		N03   
	BYTE	W03
	BYTE		        Cn1   v076
	BYTE	W03
// 004   ----------------------------------------
	BYTE		        Cn1   v127
	BYTE	W12
	BYTE		        Gs1   v060
	BYTE		N03     Bn1   v096
	BYTE	W03
	BYTE		        Bn1   v068
	BYTE	W03
	BYTE		        Gn1   v088
	BYTE	W12
	BYTE		        Fn1   v127
	BYTE	W06
	BYTE		        Cn1 
	BYTE		N03     Gs1   v060
	BYTE	W24
	BYTE		        Cn1   v127
	BYTE		N03     Gs1   v060
	BYTE	W06
	BYTE		        Gn1   v127
	BYTE	W12
	BYTE		        Fn1 
	BYTE	W06
	BYTE		        Gs1   v060
	BYTE	W06
	BYTE		N06     Gn1   v127
	BYTE	W06
// 005   ----------------------------------------
	BYTE		N03     Cn1   v080
	BYTE	W12
	BYTE		        Cn1   v127
	BYTE		N03     Gs1   v060
	BYTE	W06
	BYTE		        Cn2   v127
	BYTE	W12
	BYTE		        An1   v108
	BYTE	W06
	BYTE		        Gn1   v088
	BYTE		N03     Gs1   v060
	BYTE	W03
	BYTE		        Gn1   v088
	BYTE	W03
	BYTE		        Fn1   v127
	BYTE	W12
	BYTE		        Cn1   v104
	BYTE	W06
	BYTE		        Cn1   v116
	BYTE		N03     Gs1   v060
	BYTE	W06
	BYTE		        Fn1   v116
	BYTE	W06
	BYTE		        Fs1   v088
	BYTE	W03
	BYTE		        Fs1   v068
	BYTE	W03
	BYTE		        Fs1   v048
	BYTE	W03
	BYTE		N03   
	BYTE	W03
	BYTE		N03   
	BYTE	W03
	BYTE		N03   
	BYTE	W03
	BYTE		        As1   v088
	BYTE	W06
// 006   ----------------------------------------
	BYTE		        Cn1   v127
	BYTE		N03     Gn2   v108
	BYTE	W12
	BYTE		        Gs1   v060
	BYTE		N03     Bn1   v096
	BYTE	W03
	BYTE		        Bn1   v068
	BYTE	W03
	BYTE		        Gn1   v088
	BYTE	W12
	BYTE		        Fn1   v127
	BYTE	W06
	BYTE		        Cn1 
	BYTE		N03     Gs1   v060
	BYTE	W24
	BYTE		        Cn1   v127
	BYTE		N03     Gs1   v060
	BYTE	W06
	BYTE		        Gn1   v127
	BYTE	W12
	BYTE		        Fn1 
	BYTE	W06
	BYTE		        Gs1   v032
	BYTE	W06
	BYTE		N06     Dn1   v127
	BYTE		N03     Gs1   v060
	BYTE	W06
// 007   ----------------------------------------
	BYTE		        Cn1   v080
	BYTE	W12
	BYTE		        Cn1   v127
	BYTE		N03     Gs1   v060
	BYTE	W06
	BYTE		        Cn2   v127
	BYTE	W12
	BYTE		        An1   v108
	BYTE	W06
	BYTE		        Gn1   v088
	BYTE		N03     Gs1   v060
	BYTE	W03
	BYTE		        Gn1   v064
	BYTE	W03
	BYTE		        Fn1   v127
	BYTE	W12
	BYTE		        Cn1   v100
	BYTE	W06
	BYTE		        Cn1   v116
	BYTE		N03     Gs1   v060
	BYTE	W12
	BYTE		        Fn1   v127
	BYTE	W12
	BYTE		        Cn1 
	BYTE		N03     Gs1   v060
	BYTE	W03
	BYTE		        Cn1   v092
	BYTE	W03
	BYTE		N03   
	BYTE	W03
	BYTE		        Cn1   v076
	BYTE	W03
// 008   ----------------------------------------
EnemyPhase_8_008:
	BYTE		N03     Cn1   v127
	BYTE	W12
	BYTE		        Gs1   v060
	BYTE		N03     Bn1   v096
	BYTE	W03
	BYTE		        Bn1   v068
	BYTE	W03
	BYTE		        Gn1   v088
	BYTE	W12
	BYTE		        Fn1   v127
	BYTE	W06
	BYTE		        Cn1 
	BYTE		N03     Gs1   v060
	BYTE	W24
	BYTE		        Cn1   v127
	BYTE		N03     Gs1   v060
	BYTE	W06
	BYTE		        Gn1   v127
	BYTE	W12
	BYTE		        Fn1 
	BYTE	W06
	BYTE		        Gs1   v040
	BYTE	W06
	BYTE		N06     Dn1   v127
	BYTE		N03     Gs1   v060
	BYTE	W06
	BYTE	PEND
// 009   ----------------------------------------
	BYTE		        Cn1   v080
	BYTE	W12
	BYTE		        Cn1   v127
	BYTE		N03     Gs1   v060
	BYTE	W06
	BYTE		        Cn2   v127
	BYTE	W12
	BYTE		        An1   v108
	BYTE	W06
	BYTE		        Gn1   v088
	BYTE		N03     Gs1   v060
	BYTE	W03
	BYTE		        Gn1   v064
	BYTE	W03
	BYTE		        Fn1   v127
	BYTE	W12
	BYTE		        Cn1   v104
	BYTE	W06
	BYTE		        Cn1   v116
	BYTE		N03     Gs1   v060
	BYTE	W06
	BYTE		        Fn1   v116
	BYTE	W06
	BYTE		        Fs1   v088
	BYTE	W03
	BYTE		        Fs1   v068
	BYTE	W03
	BYTE		        Fs1   v048
	BYTE	W03
	BYTE		N03   
	BYTE	W03
	BYTE		N03   
	BYTE	W03
	BYTE		N03   
	BYTE	W03
	BYTE		        As1   v088
	BYTE	W06
// 010   ----------------------------------------
	BYTE	PATT
	 POIN2	EnemyPhase_8_008
// 011   ----------------------------------------
	BYTE		N03     Cn1   v080
	BYTE	W12
	BYTE		        Cn1   v127
	BYTE		N03     Gs1   v060
	BYTE	W06
	BYTE		        Cn2   v127
	BYTE	W12
	BYTE		        An1   v108
	BYTE	W06
	BYTE		        Gn1   v088
	BYTE		N03     Gs1   v060
	BYTE	W03
	BYTE		        Gn1   v068
	BYTE	W03
	BYTE		        Fn1   v127
	BYTE	W12
	BYTE		        Cn1   v100
	BYTE	W06
	BYTE		        Cn1   v116
	BYTE		N03     Gs1   v060
	BYTE	W12
	BYTE		        Fn1   v127
	BYTE	W12
	BYTE		        Cn1 
	BYTE		N03     Gs1   v060
	BYTE	W03
	BYTE		        Cn1   v092
	BYTE	W03
	BYTE		N03   
	BYTE	W03
	BYTE		        Cn1   v076
	BYTE	W03
// 012   ----------------------------------------
	BYTE		        Cn1   v127
	BYTE	W12
	BYTE		        Gs1   v060
	BYTE		N03     Bn1   v096
	BYTE	W03
	BYTE		        Bn1   v068
	BYTE	W03
	BYTE		        Gn1   v088
	BYTE	W12
	BYTE		        Fn1   v127
	BYTE	W06
	BYTE		        Cn1 
	BYTE		N03     Gs1   v060
	BYTE	W24
	BYTE		        Cn1   v127
	BYTE		N03     Gs1   v060
	BYTE	W06
	BYTE		        Gn1   v127
	BYTE	W12
	BYTE		        Fn1 
	BYTE	W06
	BYTE		        Gs1   v036
	BYTE	W06
	BYTE		N06     Dn1   v127
	BYTE		N03     Gs1   v060
	BYTE	W06
// 013   ----------------------------------------
	BYTE		        Cn1   v080
	BYTE	W12
	BYTE		        Cn1   v127
	BYTE		N03     Gs1   v060
	BYTE	W06
	BYTE		        Cn2   v127
	BYTE	W12
	BYTE		        An1   v108
	BYTE	W06
	BYTE		        Gn1   v088
	BYTE		N03     Gs1   v060
	BYTE	W03
	BYTE		        Gn1   v068
	BYTE	W03
	BYTE		        Fn1   v127
	BYTE	W12
	BYTE		        Cn1   v104
	BYTE	W06
	BYTE		        Cn1   v116
	BYTE		N03     Gs1   v060
	BYTE	W06
	BYTE		        Fn1   v116
	BYTE	W06
	BYTE		        Fs1   v088
	BYTE	W03
	BYTE		        Fs1   v068
	BYTE	W03
	BYTE		        Fs1   v048
	BYTE	W03
	BYTE		N03   
	BYTE	W03
	BYTE		N03   
	BYTE	W03
	BYTE		N03   
	BYTE	W03
	BYTE		        As1   v088
	BYTE	W06
// 014   ----------------------------------------
	BYTE		        Cn1   v127
	BYTE	W12
	BYTE		        Gs1   v060
	BYTE		N03     Bn1   v096
	BYTE	W03
	BYTE		        Bn1   v068
	BYTE	W03
	BYTE		        Gn1   v088
	BYTE	W12
	BYTE		        Fn1   v127
	BYTE	W06
	BYTE		        Cn1 
	BYTE		N03     Gs1   v060
	BYTE	W24
	BYTE		        Cn1   v127
	BYTE		N03     Gs1   v060
	BYTE	W06
	BYTE		        Gn1   v127
	BYTE	W12
	BYTE		        Fn1 
	BYTE	W06
	BYTE		        Gs1   v060
	BYTE	W06
	BYTE		N06     Dn1   v127
	BYTE	W06
// 015   ----------------------------------------
	BYTE		N03     Cn1   v080
	BYTE	W12
	BYTE		        Cn1   v127
	BYTE		N03     Gs1   v060
	BYTE	W06
	BYTE		        Cn2   v127
	BYTE	W12
	BYTE		        An1   v108
	BYTE	W06
	BYTE		        Gn1   v088
	BYTE		N03     Gs1   v060
	BYTE	W03
	BYTE		        Gn1   v068
	BYTE	W03
	BYTE		        Fn1   v127
	BYTE	W12
	BYTE		        Cn1   v100
	BYTE	W06
	BYTE		        Cn1   v116
	BYTE		N03     Gs1   v060
	BYTE	W12
	BYTE		        Fn1   v127
	BYTE		N02     Gs1   v088
	BYTE	W03
	BYTE		        Gs1   v060
	BYTE	W03
	BYTE		        Gs1   v068
	BYTE	W03
	BYTE		        Gs1   v084
	BYTE	W03
	BYTE		N03     Cn1   v127
	BYTE		N12     As1   v100
	BYTE	W03
	BYTE		N03     Cn1   v092
	BYTE	W03
	BYTE		N03   
	BYTE	W03
	BYTE		        Cn1   v076
	BYTE	W03
// 016   ----------------------------------------
EnemyPhase_8_016:
	BYTE		N06     Cn1   v127
	BYTE	W24
	BYTE		N06   
	BYTE	W24
	BYTE		N06   
	BYTE	W24
	BYTE		N06   
	BYTE	W24
	BYTE	PEND
// 017   ----------------------------------------
	BYTE	PATT
	 POIN2	EnemyPhase_8_016
// 018   ----------------------------------------
	BYTE	PATT
	 POIN2	EnemyPhase_8_016
// 019   ----------------------------------------
	BYTE	PATT
	 POIN2	EnemyPhase_8_016
// 020   ----------------------------------------
	BYTE		N06     Cn1   v127
	BYTE	W24
	BYTE		N06   
	BYTE	W06
	BYTE		        Cn2 
	BYTE	W06
	BYTE		        Gn1 
	BYTE	W06
	BYTE		        Fn1 
	BYTE	W06
	BYTE		N03     Cn1 
	BYTE		N12     Gn2   v104
	BYTE	W12
	BYTE		N03     Bn1   v096
	BYTE	W03
	BYTE		        Bn1   v068
	BYTE	W03
	BYTE		        Gn1   v088
	BYTE	W12
	BYTE		        Fn1   v127
	BYTE	W06
	BYTE		        Cn1 
	BYTE	W12
// 021   ----------------------------------------
	BYTE	W12
	BYTE		N03   
	BYTE	W06
	BYTE		        Gn1 
	BYTE	W12
	BYTE		        Fn1 
	BYTE	W12
	BYTE		        Dn1 
	BYTE	W06
	BYTE		        Cn1   v080
	BYTE	W12
	BYTE		        Cn1   v127
	BYTE	W06
	BYTE		        Cn2 
	BYTE	W12
	BYTE		        An1   v108
	BYTE	W06
	BYTE		        Gn1   v088
	BYTE	W03
	BYTE		        Gn1   v064
	BYTE	W03
	BYTE		        Fn1   v127
	BYTE	W06
// 022   ----------------------------------------
	BYTE	W06
	BYTE		        Cn1   v104
	BYTE	W06
	BYTE		        Cn1   v116
	BYTE	W06
	BYTE		        Fn1 
	BYTE	W06
	BYTE		        Fs1   v088
	BYTE	W03
	BYTE		        Fs1   v068
	BYTE	W03
	BYTE		        Fs1   v048
	BYTE	W03
	BYTE		N03   
	BYTE	W03
	BYTE		N03   
	BYTE	W03
	BYTE		N03   
	BYTE	W03
	BYTE		        As1   v088
	BYTE	W06
	BYTE		        Cn1   v127
	BYTE	W12
	BYTE		        Bn1   v096
	BYTE	W03
	BYTE		        Bn1   v068
	BYTE	W03
	BYTE		        Gn1   v088
	BYTE	W12
	BYTE		        Fn1   v127
	BYTE	W06
	BYTE		        Cn1 
	BYTE	W12
// 023   ----------------------------------------
	BYTE	W12
	BYTE		N03   
	BYTE	W06
	BYTE		        Gn1 
	BYTE	W12
	BYTE		        Fn1 
	BYTE	W12
	BYTE		        Dn1 
	BYTE	W06
	BYTE		        Cn1   v080
	BYTE	W12
	BYTE		        Cn1   v127
	BYTE	W06
	BYTE		        Cn2 
	BYTE	W12
	BYTE		        An1   v108
	BYTE	W06
	BYTE		        Gn1   v088
	BYTE	W03
	BYTE		        Gn1   v060
	BYTE	W03
	BYTE		        Fn1   v127
	BYTE	W06
// 024   ----------------------------------------
	BYTE	W06
	BYTE		        Cn1   v100
	BYTE		N03     An1   v088
	BYTE	W06
	BYTE		        Cn1   v116
	BYTE	W06
	BYTE		        Fn1   v088
	BYTE	W06
	BYTE		N05     En1   v100
	BYTE	W06
	BYTE		        Dn1   v108
	BYTE	W06
	BYTE		        En1   v120
	BYTE	W06
	BYTE		        Dn1   v127
	BYTE	W06
	BYTE	GoTo
	 POIN2	EnemyPhase_8_B1
EnemyPhase_8_B2:
	BYTE	FINE

//**************** Track 9 (Midi-Chn.9) ****************//

EnemyPhase_9:
	BYTE	KEYSH   EnemyPhase_key+0
EnemyPhase_9_B1:
// 000   ----------------------------------------
	BYTE		VOICE   50
	BYTE		VOL     78*EnemyPhase_mvl/mxv
	BYTE		PAN     c_v+10
	BYTE		N04     Bn1   v127
	BYTE	W06
	BYTE		N05     An2   v080
	BYTE	W06
	BYTE		N07     Bn1   v100
	BYTE	W12
	BYTE		        Gn2   v108
	BYTE	W12
	BYTE		N05     Bn1   v096
	BYTE	W06
	BYTE		        Gn2   v104
	BYTE	W06
	BYTE		N06     Bn1   v096
	BYTE	W12
	BYTE		N05   
	BYTE	W06
	BYTE		        An2   v080
	BYTE	W06
	BYTE		N06     Gn2   v124
	BYTE	W12
	BYTE		N05     Bn1   v096
	BYTE	W06
	BYTE		        Gn2 
	BYTE	W06
// 001   ----------------------------------------
EnemyPhase_9_001:
	BYTE		N05     Bn1   v124
	BYTE	W06
	BYTE		        En2   v080
	BYTE	W06
	BYTE		N09     Bn1   v100
	BYTE	W12
	BYTE		N08     Gn2   v116
	BYTE	W12
	BYTE		N04     Bn1   v088
	BYTE	W06
	BYTE		N05     Gn2   v092
	BYTE	W06
	BYTE		N04     An2   v104
	BYTE	W06
	BYTE		N05     An2   v080
	BYTE	W06
	BYTE		        Bn1   v088
	BYTE	W06
	BYTE		        Bn1   v068
	BYTE	W06
	BYTE		N06     Gn2   v096
	BYTE	W12
	BYTE		N03     Gn2   v116
	BYTE	W04
	BYTE		        Gn2   v092
	BYTE	W04
	BYTE		        Gn2   v104
	BYTE	W04
	BYTE	PEND
// 002   ----------------------------------------
EnemyPhase_9_002:
	BYTE		N04     Bn1   v127
	BYTE	W06
	BYTE		N05     An2   v080
	BYTE	W06
	BYTE		N07     Bn1   v100
	BYTE	W12
	BYTE		        Gn2   v108
	BYTE	W12
	BYTE		N05     Bn1   v096
	BYTE	W06
	BYTE		        Gn2   v104
	BYTE	W06
	BYTE		N06     Bn1   v100
	BYTE	W12
	BYTE		N05     Bn1   v096
	BYTE	W06
	BYTE		        An2   v080
	BYTE	W06
	BYTE		N03     Gn2   v116
	BYTE	W04
	BYTE		        Gn2   v092
	BYTE	W04
	BYTE		        Gn2   v104
	BYTE	W04
	BYTE		N05     Bn1   v096
	BYTE	W12
	BYTE	PEND
// 003   ----------------------------------------
EnemyPhase_9_003:
	BYTE		N05     Bn1   v124
	BYTE	W06
	BYTE		        En2   v080
	BYTE	W06
	BYTE		N09     Bn1   v100
	BYTE	W12
	BYTE		N08     Gn2   v116
	BYTE	W12
	BYTE		N04     Bn1   v088
	BYTE	W06
	BYTE		N05     Gn2   v092
	BYTE	W06
	BYTE		N04     An2   v104
	BYTE	W06
	BYTE		N05     An2   v080
	BYTE	W06
	BYTE		        Bn1   v088
	BYTE	W06
	BYTE		        Bn1   v068
	BYTE	W06
	BYTE		N06     Gn2   v096
	BYTE	W12
	BYTE		N05     Ds2   v088
	BYTE	W06
	BYTE		        Ds2   v068
	BYTE	W06
	BYTE	PEND
// 004   ----------------------------------------
EnemyPhase_9_004:
	BYTE		N04     Bn1   v127
	BYTE	W06
	BYTE		N05     An2   v080
	BYTE	W06
	BYTE		N07     Bn1   v100
	BYTE	W12
	BYTE		        Gn2   v108
	BYTE	W12
	BYTE		N05     Bn1   v096
	BYTE	W06
	BYTE		        Gn2   v104
	BYTE	W06
	BYTE		N06     Bn1   v096
	BYTE	W12
	BYTE		N05   
	BYTE	W06
	BYTE		        An2   v080
	BYTE	W06
	BYTE		N06     Gn2   v124
	BYTE	W12
	BYTE		N05     Bn1   v096
	BYTE	W06
	BYTE		        Gn2 
	BYTE	W06
	BYTE	PEND
// 005   ----------------------------------------
	BYTE	PATT
	 POIN2	EnemyPhase_9_001
// 006   ----------------------------------------
	BYTE	PATT
	 POIN2	EnemyPhase_9_002
// 007   ----------------------------------------
	BYTE	PATT
	 POIN2	EnemyPhase_9_003
// 008   ----------------------------------------
	BYTE	PATT
	 POIN2	EnemyPhase_9_004
// 009   ----------------------------------------
	BYTE	PATT
	 POIN2	EnemyPhase_9_001
// 010   ----------------------------------------
	BYTE	PATT
	 POIN2	EnemyPhase_9_002
// 011   ----------------------------------------
	BYTE	PATT
	 POIN2	EnemyPhase_9_003
// 012   ----------------------------------------
	BYTE	PATT
	 POIN2	EnemyPhase_9_004
// 013   ----------------------------------------
	BYTE	PATT
	 POIN2	EnemyPhase_9_001
// 014   ----------------------------------------
	BYTE	PATT
	 POIN2	EnemyPhase_9_002
// 015   ----------------------------------------
	BYTE	PATT
	 POIN2	EnemyPhase_9_003
// 016   ----------------------------------------
	BYTE	PATT
	 POIN2	EnemyPhase_9_004
// 017   ----------------------------------------
	BYTE	PATT
	 POIN2	EnemyPhase_9_001
// 018   ----------------------------------------
	BYTE	PATT
	 POIN2	EnemyPhase_9_002
// 019   ----------------------------------------
	BYTE	PATT
	 POIN2	EnemyPhase_9_003
// 020   ----------------------------------------
	BYTE		N04     Bn1   v127
	BYTE	W06
	BYTE		N05     An2   v080
	BYTE	W06
	BYTE		N07     Bn1   v096
	BYTE	W12
	BYTE		N03     Gn2   v116
	BYTE	W04
	BYTE		        Gn2   v092
	BYTE	W04
	BYTE		        Gn2   v076
	BYTE	W04
	BYTE		        Gn2   v084
	BYTE	W04
	BYTE		        Gn2   v088
	BYTE	W04
	BYTE		        Gn2   v092
	BYTE	W04
	BYTE		N04     Bn1   v127
	BYTE	W06
	BYTE		N05     An2   v080
	BYTE	W06
	BYTE		N07     Bn1   v100
	BYTE	W12
	BYTE		        Gn2   v108
	BYTE	W12
	BYTE		N05     Bn1   v096
	BYTE	W06
	BYTE		        Gn2   v104
	BYTE	W06
// 021   ----------------------------------------
	BYTE		N06     Bn1   v096
	BYTE	W12
	BYTE		N05   
	BYTE	W06
	BYTE		        An2   v080
	BYTE	W06
	BYTE		N06     Gn2   v124
	BYTE	W12
	BYTE		N05     Bn1   v096
	BYTE	W06
	BYTE		        Gn2 
	BYTE	W06
	BYTE		        Bn1   v124
	BYTE	W06
	BYTE		        En2   v080
	BYTE	W06
	BYTE		N09     Bn1   v100
	BYTE	W12
	BYTE		N08     Gn2   v116
	BYTE	W12
	BYTE		N04     Bn1   v088
	BYTE	W06
	BYTE		N05     Gn2   v092
	BYTE	W06
// 022   ----------------------------------------
	BYTE		N04     An2   v104
	BYTE	W06
	BYTE		N05     An2   v080
	BYTE	W06
	BYTE		        Bn1   v088
	BYTE	W06
	BYTE		        Bn1   v068
	BYTE	W06
	BYTE		N06     Gn2   v096
	BYTE	W12
	BYTE		N03     Gn2   v116
	BYTE	W04
	BYTE		        Gn2   v092
	BYTE	W04
	BYTE		        Gn2   v104
	BYTE	W04
	BYTE		N04     Bn1   v127
	BYTE	W06
	BYTE		N05     An2   v080
	BYTE	W06
	BYTE		N07     Bn1   v100
	BYTE	W12
	BYTE		        Gn2   v108
	BYTE	W12
	BYTE		N05     Bn1   v096
	BYTE	W06
	BYTE		        Gn2   v104
	BYTE	W06
// 023   ----------------------------------------
	BYTE		N06     Bn1   v100
	BYTE	W12
	BYTE		N05     Bn1   v096
	BYTE	W06
	BYTE		        An2   v080
	BYTE	W06
	BYTE		N03     Gn2   v116
	BYTE	W04
	BYTE		        Gn2   v092
	BYTE	W04
	BYTE		        Gn2   v104
	BYTE	W04
	BYTE		N05     Bn1   v096
	BYTE	W12
	BYTE		        Bn1   v124
	BYTE	W06
	BYTE		        En2   v080
	BYTE	W06
	BYTE		N09     Bn1   v100
	BYTE	W12
	BYTE		N08     Gn2   v116
	BYTE	W12
	BYTE		N04     Bn1   v088
	BYTE	W06
	BYTE		N05     Gn2   v092
	BYTE	W06
// 024   ----------------------------------------
	BYTE		N04     An2   v104
	BYTE	W06
	BYTE		N05     An2   v080
	BYTE	W06
	BYTE		        Bn1   v088
	BYTE	W06
	BYTE		        Bn1   v068
	BYTE	W06
	BYTE		N06     Gn2   v096
	BYTE	W12
	BYTE		N05     Ds2   v088
	BYTE	W06
	BYTE		        Ds2   v068
	BYTE	W06
	BYTE	GoTo
	 POIN2	EnemyPhase_9_B1
EnemyPhase_9_B2:
	BYTE	FINE

//**************** Track 10 (Midi-Chn.11) ****************//

EnemyPhase_10:
	BYTE	KEYSH   EnemyPhase_key+0
EnemyPhase_10_B1:
// 000   ----------------------------------------
	BYTE		VOICE   49
	BYTE		VOL     57*EnemyPhase_mvl/mxv
	BYTE		PAN     c_v-64
	BYTE	W05
	BYTE	W01
	BYTE		TIE     Cn3   v104
	BYTE	W01
	BYTE	W01
	BYTE	W02
	BYTE	W01
	BYTE	W02
	BYTE	W01
	BYTE	W02
	BYTE	W01
	BYTE	W01
	BYTE	W06
	BYTE	W06
	BYTE	W03
	BYTE	W03
	BYTE	W03
	BYTE	W06
	BYTE	W03
	BYTE	W03
	BYTE	W03
	BYTE	W03
	BYTE	W03
	BYTE	W03
	BYTE	W03
	BYTE	W03
	BYTE	W03
	BYTE	W03
	BYTE	W03
	BYTE	W03
	BYTE	W03
	BYTE	W03
	BYTE	W03
	BYTE	W03
	BYTE	W03
// 001   ----------------------------------------
	BYTE	W01
	BYTE	W16
	BYTE		EOT   
	BYTE	W01
	BYTE		N05     Cn3   v060
	BYTE	W12
	BYTE		N22     Cn3   v104
	BYTE	W24
	BYTE		N23     As2 
	BYTE	W24
	BYTE		        Ds3 
	BYTE	W18
// 002   ----------------------------------------
	BYTE	W04
	BYTE	W01
	BYTE	W01
	BYTE		TIE     Cn3 
	BYTE	W01
	BYTE	W01
	BYTE	W02
	BYTE	W01
	BYTE	W02
	BYTE	W01
	BYTE	W02
	BYTE	W01
	BYTE	W01
	BYTE	W06
	BYTE	W06
	BYTE	W03
	BYTE	W06
	BYTE	W03
	BYTE	W03
	BYTE	W03
	BYTE	W03
	BYTE	W03
	BYTE	W03
	BYTE	W03
	BYTE	W03
	BYTE	W03
	BYTE	W03
	BYTE	W03
	BYTE	W03
	BYTE	W03
	BYTE	W03
	BYTE	W03
	BYTE	W03
	BYTE	W03
	BYTE	W03
	BYTE	W03
// 003   ----------------------------------------
	BYTE	W03
	BYTE	W01
	BYTE	W13
	BYTE		EOT   
	BYTE	W01
	BYTE		N05     Cn3   v060
	BYTE	W12
	BYTE		N23     Fn3   v104
	BYTE	W24
	BYTE		        Ds3   v100
	BYTE	W24
	BYTE		        As2 
	BYTE	W18
// 004   ----------------------------------------
	BYTE	W06
	BYTE		TIE     Cn3   v104
	BYTE	W06
	BYTE	W06
	BYTE	W06
	BYTE	W03
	BYTE	W06
	BYTE	W03
	BYTE	W06
	BYTE	W03
	BYTE	W03
	BYTE	W06
	BYTE	W03
	BYTE	W03
	BYTE	W03
	BYTE	W03
	BYTE	W03
	BYTE	W03
	BYTE	W03
	BYTE	W06
	BYTE	W03
	BYTE	W03
	BYTE	W03
	BYTE	W03
	BYTE	W03
// 005   ----------------------------------------
	BYTE	W03
	BYTE	W03
	BYTE	W03
	BYTE	W03
	BYTE	W03
	BYTE	W03
	BYTE	W03
	BYTE	W03
	BYTE	W03
	BYTE	W03
	BYTE	W03
	BYTE	W03
	BYTE	W02
	BYTE	W12
	BYTE		EOT   
	BYTE	W24
	BYTE	W01
	BYTE		VOL     70*EnemyPhase_mvl/mxv
	BYTE	W12
	BYTE	W01
	BYTE	W01
	BYTE	W01
	BYTE	W01
	BYTE	W01
	BYTE	W01
	BYTE	W01
	BYTE	W01
	BYTE	W01
// 006   ----------------------------------------
	BYTE	W96
// 007   ----------------------------------------
	BYTE	W96
// 008   ----------------------------------------
	BYTE	W96
// 009   ----------------------------------------
	BYTE	W96
// 010   ----------------------------------------
	BYTE	W96
// 011   ----------------------------------------
	BYTE	W96
// 012   ----------------------------------------
	BYTE	W96
// 013   ----------------------------------------
	BYTE	W96
// 014   ----------------------------------------
	BYTE	W96
// 015   ----------------------------------------
	BYTE	W96
// 016   ----------------------------------------
	BYTE		        57*EnemyPhase_mvl/mxv
	BYTE		PAN     c_v+63
	BYTE	W96
// 017   ----------------------------------------
	BYTE	W96
// 018   ----------------------------------------
	BYTE	W96
// 019   ----------------------------------------
	BYTE	W96
// 020   ----------------------------------------
	BYTE	W48
	BYTE		VOL     48*EnemyPhase_mvl/mxv
	BYTE		PAN     c_v-40
	BYTE	W48
// 021   ----------------------------------------
	BYTE	W96
// 022   ----------------------------------------
	BYTE	W96
// 023   ----------------------------------------
	BYTE	W96
// 024   ----------------------------------------
	BYTE	W48
	BYTE	GoTo
	 POIN2	EnemyPhase_10_B1
EnemyPhase_10_B2:
	BYTE	FINE

//**************** Track 11 (Midi-Chn.12) ****************//

EnemyPhase_11:
	BYTE		VOL     127*EnemyPhase_mvl/mxv
	BYTE	KEYSH   EnemyPhase_key+0
EnemyPhase_11_B1:
// 000   ----------------------------------------
	BYTE		VOICE   61
	BYTE	W96
// 001   ----------------------------------------
	BYTE	W96
// 002   ----------------------------------------
	BYTE	W96
// 003   ----------------------------------------
	BYTE	W96
// 004   ----------------------------------------
	BYTE	W96
// 005   ----------------------------------------
	BYTE	W96
// 006   ----------------------------------------
	BYTE	W96
// 007   ----------------------------------------
	BYTE	W96
// 008   ----------------------------------------
	BYTE	W96
// 009   ----------------------------------------
	BYTE	W96
// 010   ----------------------------------------
	BYTE	W96
// 011   ----------------------------------------
	BYTE	W96
// 012   ----------------------------------------
	BYTE	W96
// 013   ----------------------------------------
	BYTE	W96
// 014   ----------------------------------------
	BYTE	W96
// 015   ----------------------------------------
	BYTE	W96
// 016   ----------------------------------------
	BYTE	W96
// 017   ----------------------------------------
	BYTE	W96
// 018   ----------------------------------------
	BYTE	W96
// 019   ----------------------------------------
	BYTE	W96
// 020   ----------------------------------------
	BYTE	W96
// 021   ----------------------------------------
	BYTE	W60
	BYTE		N05     As3   v112
	BYTE	W06
	BYTE		        As3   v048
	BYTE	W18
	BYTE		        Fn3   v124
	BYTE	W06
	BYTE		N06     Fn3   v052
	BYTE	W06
// 022   ----------------------------------------
	BYTE	W12
	BYTE		N05     Gn3   v127
	BYTE	W06
	BYTE		        Gn3   v056
	BYTE	W18
	BYTE		        As2   v100
	BYTE	W06
	BYTE		        As2   v048
	BYTE	W06
	BYTE		N92     Cn3   v104
	BYTE	W48
// 023   ----------------------------------------
	BYTE	W48
	BYTE		N03     Cn3   v096
	BYTE	W06
	BYTE		        Cn3   v084
	BYTE	W06
	BYTE		        Fn3   v104
	BYTE	W06
	BYTE		        Fn3   v084
	BYTE	W06
	BYTE		N04     Cn3   v104
	BYTE	W06
	BYTE		        Cn3   v088
	BYTE	W06
	BYTE		N03     Fn3   v108
	BYTE	W06
	BYTE		        Fn3   v088
	BYTE	W06
// 024   ----------------------------------------
	BYTE		N04     Cn3   v104
	BYTE	W06
	BYTE		        Cn3   v084
	BYTE	W06
	BYTE		N03     Fn3   v108
	BYTE	W06
	BYTE		        Fn3   v088
	BYTE	W06
	BYTE		N04     Cn3   v104
	BYTE	W06
	BYTE		        Cn3   v084
	BYTE	W06
	BYTE		        Fn3   v108
	BYTE	W06
	BYTE		        Fn3   v088
	BYTE	W06
	BYTE	GoTo
	 POIN2	EnemyPhase_11_B1
EnemyPhase_11_B2:
	BYTE	FINE

//**************** Track 12 (Midi-Chn.13) ****************//

EnemyPhase_12:
	BYTE		VOL     127*EnemyPhase_mvl/mxv
	BYTE	KEYSH   EnemyPhase_key+0
EnemyPhase_12_B1:
// 000   ----------------------------------------
	BYTE		VOICE   59
	BYTE	W96
// 001   ----------------------------------------
	BYTE	W96
// 002   ----------------------------------------
	BYTE	W96
// 003   ----------------------------------------
	BYTE	W96
// 004   ----------------------------------------
	BYTE	W96
// 005   ----------------------------------------
	BYTE	W96
// 006   ----------------------------------------
	BYTE	W96
// 007   ----------------------------------------
	BYTE	W96
// 008   ----------------------------------------
	BYTE	W96
// 009   ----------------------------------------
	BYTE	W96
// 010   ----------------------------------------
	BYTE	W96
// 011   ----------------------------------------
	BYTE	W96
// 012   ----------------------------------------
	BYTE	W96
// 013   ----------------------------------------
	BYTE	W96
// 014   ----------------------------------------
	BYTE	W96
// 015   ----------------------------------------
	BYTE	W96
// 016   ----------------------------------------
	BYTE	W30
	BYTE		N06     Cn5   v104
	BYTE	W06
	BYTE		        Cn5   v052
	BYTE	W06
	BYTE		        Cn5   v104
	BYTE	W06
	BYTE		        Cn5   v052
	BYTE	W06
	BYTE		        Gn4   v104
	BYTE	W06
	BYTE		        Gn4   v052
	BYTE	W06
	BYTE		        Gn4   v100
	BYTE	W06
	BYTE		        Gn4   v052
	BYTE	W06
	BYTE		        Dn4   v104
	BYTE	W06
	BYTE		        Dn4   v056
	BYTE	W06
	BYTE		        Dn4   v104
	BYTE	W06
// 017   ----------------------------------------
	BYTE		        Dn4   v052
	BYTE	W18
	BYTE		        Cn5   v096
	BYTE	W06
	BYTE		        Cn5   v048
	BYTE	W06
	BYTE		        Cn5   v100
	BYTE	W06
	BYTE		        Cn5   v048
	BYTE	W06
	BYTE		        Gn4   v100
	BYTE	W06
	BYTE		        Gn4   v052
	BYTE	W06
	BYTE		        Gn4   v100
	BYTE	W06
	BYTE		        Gn4   v048
	BYTE	W06
	BYTE		        Dn4   v104
	BYTE	W06
	BYTE		        Dn4   v056
	BYTE	W06
	BYTE		        Dn4   v104
	BYTE	W06
	BYTE		        Dn4   v052
	BYTE	W06
	BYTE		        Gn3   v104
	BYTE	W06
// 018   ----------------------------------------
	BYTE		        Gn3   v052
	BYTE	W06
	BYTE		        Cn5   v100
	BYTE	W06
	BYTE		        Cn5   v048
	BYTE	W06
	BYTE		        Cn5   v100
	BYTE	W06
	BYTE		        Cn5   v048
	BYTE	W06
	BYTE		        Gn4   v100
	BYTE	W06
	BYTE		        Gn4   v048
	BYTE	W06
	BYTE		        Gn4   v096
	BYTE	W06
	BYTE		        Gn4   v048
	BYTE	W06
	BYTE		        Dn4   v104
	BYTE	W06
	BYTE		        Dn4   v056
	BYTE	W06
	BYTE		        Dn4   v100
	BYTE	W06
	BYTE		        Dn4   v052
	BYTE	W06
	BYTE		        Gn3   v100
	BYTE	W06
	BYTE		        Gn3   v052
	BYTE	W06
	BYTE		        Gn3   v096
	BYTE	W06
// 019   ----------------------------------------
	BYTE		        Gn3   v048
	BYTE	W18
	BYTE		        Cn5   v096
	BYTE	W06
	BYTE		        Cn5   v048
	BYTE	W06
	BYTE		        Cn5   v088
	BYTE	W06
	BYTE		        Cn5   v036
	BYTE	W06
	BYTE		        Gn4   v100
	BYTE	W06
	BYTE		        Gn4   v052
	BYTE	W06
	BYTE		        Gn4   v100
	BYTE	W06
	BYTE		        Gn4   v048
	BYTE	W06
	BYTE		        Dn4   v104
	BYTE	W06
	BYTE		        Dn4   v056
	BYTE	W06
	BYTE		        Dn4   v104
	BYTE	W06
	BYTE		        Dn4   v052
	BYTE	W06
	BYTE		        Gn3   v100
	BYTE	W06
// 020   ----------------------------------------
	BYTE		        Gn3   v052
	BYTE	W06
	BYTE		        Gn3   v096
	BYTE	W06
	BYTE		        Gn3   v048
	BYTE	W06
	BYTE		        Dn4   v096
	BYTE	W06
	BYTE		        Dn4   v048
	BYTE	W06
	BYTE		        Dn4   v100
	BYTE	W06
	BYTE		        Dn4   v052
	BYTE	W06
	BYTE		        Gn4   v100
	BYTE	W54
// 021   ----------------------------------------
	BYTE	W96
// 022   ----------------------------------------
	BYTE	W96
// 023   ----------------------------------------
	BYTE	W96
// 024   ----------------------------------------
	BYTE	W48
	BYTE	GoTo
	 POIN2	EnemyPhase_12_B1
EnemyPhase_12_B2:
	BYTE	FINE

//**************** Track 13 (Midi-Chn.14) ****************//

EnemyPhase_13:
	BYTE		VOL     127*EnemyPhase_mvl/mxv
	BYTE	KEYSH   EnemyPhase_key+0
EnemyPhase_13_B1:
// 000   ----------------------------------------
	BYTE		VOICE   70
	BYTE	W96
// 001   ----------------------------------------
	BYTE	W96
// 002   ----------------------------------------
	BYTE	W96
// 003   ----------------------------------------
	BYTE	W96
// 004   ----------------------------------------
	BYTE	W96
// 005   ----------------------------------------
	BYTE	W96
// 006   ----------------------------------------
	BYTE	W96
// 007   ----------------------------------------
	BYTE	W96
// 008   ----------------------------------------
	BYTE	W96
// 009   ----------------------------------------
	BYTE	W96
// 010   ----------------------------------------
	BYTE	W96
// 011   ----------------------------------------
	BYTE	W96
// 012   ----------------------------------------
	BYTE	W96
// 013   ----------------------------------------
	BYTE	W96
// 014   ----------------------------------------
	BYTE	W96
// 015   ----------------------------------------
	BYTE	W96
// 016   ----------------------------------------
	BYTE	W96
// 017   ----------------------------------------
	BYTE	W96
// 018   ----------------------------------------
	BYTE	W96
// 019   ----------------------------------------
	BYTE	W96
// 020   ----------------------------------------
	BYTE	W48
	BYTE		N02     Gn2   v100
	BYTE		N02     Cn3 
	BYTE	W06
	BYTE		        Cn3   v080
	BYTE		N02     Fn3 
	BYTE	W06
	BYTE		        Dn3 
	BYTE		N02     Gn3 
	BYTE	W06
	BYTE		N02   
	BYTE		N02     Cn4 
	BYTE	W06
	BYTE		        Gn2   v100
	BYTE		N02     Cn3 
	BYTE	W06
	BYTE		        Gn3   v080
	BYTE		N02     Cn4 
	BYTE	W06
	BYTE		        Fn3 
	BYTE		N02     As3 
	BYTE	W06
	BYTE		        Cn3 
	BYTE		N02     Fn3 
	BYTE	W06
// 021   ----------------------------------------
EnemyPhase_13_021:
	BYTE		N02     Dn3   v100
	BYTE		N02     Gn3 
	BYTE	W06
	BYTE		        Gn3   v080
	BYTE		N02     Cn4 
	BYTE	W06
	BYTE		N02   
	BYTE		N02     Fn4 
	BYTE	W06
	BYTE		        Dn3 
	BYTE		N02     Gn3 
	BYTE	W06
	BYTE		        Gn2   v100
	BYTE		N02     Cn3 
	BYTE	W06
	BYTE		        Cn3   v080
	BYTE		N02     Fn3 
	BYTE	W06
	BYTE		        Dn3 
	BYTE		N02     Gn3 
	BYTE	W06
	BYTE		N02   
	BYTE		N02     Cn4 
	BYTE	W06
	BYTE		        Gn2   v100
	BYTE		N02     Cn3 
	BYTE	W06
	BYTE		        Cn3   v080
	BYTE		N02     Fn3 
	BYTE	W06
	BYTE		        Dn3 
	BYTE		N02     Gn3 
	BYTE	W06
	BYTE		N02   
	BYTE		N02     Cn4 
	BYTE	W06
	BYTE		        Gn2   v100
	BYTE		N02     Cn3 
	BYTE	W06
	BYTE		        Gn3   v080
	BYTE		N02     Cn4 
	BYTE	W06
	BYTE		        Fn3 
	BYTE		N02     As3 
	BYTE	W06
	BYTE		        Cn3 
	BYTE		N02     Fn3 
	BYTE	W06
	BYTE	PEND
// 022   ----------------------------------------
	BYTE		        Dn3   v100
	BYTE		N02     Gn3 
	BYTE	W06
	BYTE		        Gn3   v080
	BYTE		N02     Cn4 
	BYTE	W06
	BYTE		        Fn3 
	BYTE		N02     As3 
	BYTE	W06
	BYTE		        Cn4 
	BYTE		N02     Fn4 
	BYTE	W06
	BYTE		        Dn3   v100
	BYTE		N02     Gn3 
	BYTE	W06
	BYTE		        Cn4   v080
	BYTE		N02     Fn4 
	BYTE	W06
	BYTE		        As3 
	BYTE		N02     Ds4 
	BYTE	W06
	BYTE		        Fn3 
	BYTE		N02     As3 
	BYTE	W06
	BYTE		        Gn2   v100
	BYTE		N02     Cn3 
	BYTE	W06
	BYTE		        Cn3   v080
	BYTE		N02     Fn3 
	BYTE	W06
	BYTE		        Dn3 
	BYTE		N02     Gn3 
	BYTE	W06
	BYTE		N02   
	BYTE		N02     Cn4 
	BYTE	W06
	BYTE		        Gn2   v100
	BYTE		N02     Cn3 
	BYTE	W06
	BYTE		        Gn3   v080
	BYTE		N02     Cn4 
	BYTE	W06
	BYTE		        Fn3 
	BYTE		N02     As3 
	BYTE	W06
	BYTE		        Cn3 
	BYTE		N02     Fn3 
	BYTE	W06
// 023   ----------------------------------------
	BYTE	PATT
	 POIN2	EnemyPhase_13_021
// 024   ----------------------------------------
	BYTE		N02     Dn3   v100
	BYTE		N02     Gn3 
	BYTE	W06
	BYTE		        Gn3   v080
	BYTE		N02     Cn4 
	BYTE	W06
	BYTE		        Fn3 
	BYTE		N02     As3 
	BYTE	W06
	BYTE		N02   
	BYTE		N02     Ds4 
	BYTE	W06
	BYTE		        Dn3   v100
	BYTE		N02     Gn3 
	BYTE	W06
	BYTE		        Gn3   v080
	BYTE		N02     Cn4 
	BYTE	W06
	BYTE		N02   
	BYTE		N02     Fn4 
	BYTE	W06
	BYTE		        Dn4 
	BYTE		N02     Gn4 
	BYTE	W06
	BYTE	GoTo
	 POIN2	EnemyPhase_13_B1
EnemyPhase_13_B2:
	BYTE	FINE

//**************** Track 14 (Midi-Chn.15) ****************//

EnemyPhase_14:
	BYTE		VOL     127*EnemyPhase_mvl/mxv
	BYTE	KEYSH   EnemyPhase_key+0
EnemyPhase_14_B1:
// 000   ----------------------------------------
	BYTE		VOICE   63
	BYTE	W96
// 001   ----------------------------------------
	BYTE	W96
// 002   ----------------------------------------
	BYTE	W96
// 003   ----------------------------------------
	BYTE	W96
// 004   ----------------------------------------
	BYTE	W96
// 005   ----------------------------------------
	BYTE	W96
// 006   ----------------------------------------
EnemyPhase_14_006:
	BYTE	W03
	BYTE		N11     Fn0   v127
	BYTE	W12
	BYTE		N22     Fn0   v060
	BYTE	W78
	BYTE		N11     Fn0   v127
	BYTE	W03
	BYTE	PEND
// 007   ----------------------------------------
EnemyPhase_14_007:
	BYTE	W09
	BYTE		N24     Fn0   v060
	BYTE	W84
	BYTE	W03
	BYTE	PEND
// 008   ----------------------------------------
EnemyPhase_14_008:
	BYTE	W03
	BYTE		N11     Fn0   v127
	BYTE	W12
	BYTE		N22     Fn0   v052
	BYTE	W78
	BYTE		N11     Fn0   v127
	BYTE	W03
	BYTE	PEND
// 009   ----------------------------------------
EnemyPhase_14_009:
	BYTE	W09
	BYTE		N21     Fn0   v052
	BYTE	W84
	BYTE	W03
	BYTE	PEND
// 010   ----------------------------------------
	BYTE	PATT
	 POIN2	EnemyPhase_14_006
// 011   ----------------------------------------
	BYTE	PATT
	 POIN2	EnemyPhase_14_007
// 012   ----------------------------------------
	BYTE	PATT
	 POIN2	EnemyPhase_14_008
// 013   ----------------------------------------
	BYTE	PATT
	 POIN2	EnemyPhase_14_009
// 014   ----------------------------------------
	BYTE	PATT
	 POIN2	EnemyPhase_14_006
// 015   ----------------------------------------
	BYTE	PATT
	 POIN2	EnemyPhase_14_007
// 016   ----------------------------------------
	BYTE	W96
// 017   ----------------------------------------
	BYTE	W96
// 018   ----------------------------------------
	BYTE	W96
// 019   ----------------------------------------
	BYTE	W96
// 020   ----------------------------------------
	BYTE	W96
// 021   ----------------------------------------
	BYTE	W96
// 022   ----------------------------------------
	BYTE	W96
// 023   ----------------------------------------
	BYTE	W96
// 024   ----------------------------------------
	BYTE	W48
	BYTE	GoTo
	 POIN2	EnemyPhase_14_B1
EnemyPhase_14_B2:
	BYTE	FINE

//******************************************************//
	ALIGN 4

EnemyPhase:
	BYTE	14	// NumTrks
	BYTE	0	// NumBlks
	BYTE	EnemyPhase_pri	// Priority
	BYTE	EnemyPhase_rev	// Reverb.

	POIN2	EnemyPhase_grp

	POIN2	EnemyPhase_1
	POIN2	EnemyPhase_2
	POIN2	EnemyPhase_3
	POIN2	EnemyPhase_4
	POIN2	EnemyPhase_5
	POIN2	EnemyPhase_6
	POIN2	EnemyPhase_7
	POIN2	EnemyPhase_8
	POIN2	EnemyPhase_9
	POIN2	EnemyPhase_10
	POIN2	EnemyPhase_11
	POIN2	EnemyPhase_12
	POIN2	EnemyPhase_13
	POIN2	EnemyPhase_14

	
