//Event file generated from Sappy .s format.
	#include "MPlayDef.event"

	#define	imagine1_grp  voicegroup000
	#define	imagine1_pri  0
	#define	imagine1_rev  0
	#define	imagine1_mvl  75
	#define	imagine1_key  0
	#define	imagine1_tbs  1
	#define	imagine1_exg  0
	#define	imagine1_cmp  1

	// .rodata
	//	imagine1
	ALIGN 4

//**************** Track 1 (Midi-Chn.1) ****************//

imagine1_1:
	BYTE	KEYSH   imagine1_key+0
// 000   ----------------------------------------
	BYTE	TEMPO   120*imagine1_tbs/2
	BYTE		VOICE   56
	BYTE		VOL     100*imagine1_mvl/mxv
	BYTE		PAN     c_v-64
	BYTE	W96
// 001   ----------------------------------------
	BYTE	W96
// 002   ----------------------------------------
	BYTE	W96
// 003   ----------------------------------------
	BYTE	W96
// 004   ----------------------------------------
	BYTE	W96
// 005   ----------------------------------------
	BYTE	W96
// 006   ----------------------------------------
	BYTE	W96
// 007   ----------------------------------------
	BYTE	W96
// 008   ----------------------------------------
	BYTE	W96
// 009   ----------------------------------------
	BYTE	W96
// 010   ----------------------------------------
	BYTE	W96
// 011   ----------------------------------------
	BYTE	W96
// 012   ----------------------------------------
	BYTE	W96
// 013   ----------------------------------------
	BYTE	W96
// 014   ----------------------------------------
	BYTE	W96
// 015   ----------------------------------------
	BYTE	W96
// 016   ----------------------------------------
	BYTE	W96
// 017   ----------------------------------------
	BYTE	W96
// 018   ----------------------------------------
	BYTE	W96
// 019   ----------------------------------------
	BYTE	W48
imagine1_1_B1:
	BYTE	W48
// 020   ----------------------------------------
	BYTE	W96
// 021   ----------------------------------------
	BYTE	W96
// 022   ----------------------------------------
	BYTE	W96
// 023   ----------------------------------------
imagine1_1_023:
	BYTE	W60
	BYTE		N11     An3   v096
	BYTE	W12
	BYTE		N11   
	BYTE	W12
	BYTE		        Gs3 
	BYTE	W12
	BYTE	PEND
// 024   ----------------------------------------
imagine1_1_024:
	BYTE		N23     An3   v096
	BYTE	W60
	BYTE		N11     Gn3 
	BYTE	W12
	BYTE		N11   
	BYTE	W12
	BYTE		        Fs3 
	BYTE	W12
	BYTE	PEND
// 025   ----------------------------------------
imagine1_1_025:
	BYTE		N11     Gn3   v096
	BYTE	W24
	BYTE		N23     Cn3 
	BYTE	W36
	BYTE		N11     Gn3 
	BYTE	W12
	BYTE		N11   
	BYTE	W12
	BYTE		        Fs3 
	BYTE	W12
	BYTE	PEND
// 026   ----------------------------------------
imagine1_1_026:
	BYTE		N23     Gn3   v096
	BYTE	W60
	BYTE		N11     Fn3 
	BYTE	W12
	BYTE		N11   
	BYTE	W12
	BYTE		        Gn3 
	BYTE	W12
	BYTE	PEND
// 027   ----------------------------------------
imagine1_1_027:
	BYTE		N11     An3   v096
	BYTE	W24
	BYTE		N23   
	BYTE	W36
	BYTE		N11   
	BYTE	W12
	BYTE		N11   
	BYTE	W12
	BYTE		        Gs3 
	BYTE	W12
	BYTE	PEND
// 028   ----------------------------------------
imagine1_1_028:
	BYTE		N23     An3   v096
	BYTE	W36
	BYTE		N11   
	BYTE	W12
	BYTE		N11   
	BYTE	W12
	BYTE		        Fn3 
	BYTE	W12
	BYTE		        Gn3 
	BYTE	W12
	BYTE		        Fn3 
	BYTE	W12
	BYTE	PEND
// 029   ----------------------------------------
	BYTE		N32     As3 
	BYTE	W60
	BYTE		N11     Dn4 
	BYTE	W12
	BYTE		N11   
	BYTE	W12
	BYTE		N11   
	BYTE	W12
// 030   ----------------------------------------
	BYTE		N23     Cn4 
	BYTE	W60
	BYTE		N11     As3 
	BYTE	W12
	BYTE		        An3 
	BYTE	W12
	BYTE		        Gn3 
	BYTE	W12
// 031   ----------------------------------------
	BYTE		N23     Fn3 
	BYTE	W60
	BYTE		N11     An3 
	BYTE	W12
	BYTE		N11   
	BYTE	W12
	BYTE		        Gs3 
	BYTE	W12
// 032   ----------------------------------------
	BYTE		        An3 
	BYTE	W60
	BYTE		        Gn3 
	BYTE	W12
	BYTE		N11   
	BYTE	W12
	BYTE		        Fs3 
	BYTE	W12
// 033   ----------------------------------------
	BYTE		        Gn3 
	BYTE	W12
	BYTE		        Cn3 
	BYTE	W48
	BYTE		        Gn3 
	BYTE	W12
	BYTE		N11   
	BYTE	W12
	BYTE		        Fs3 
	BYTE	W12
// 034   ----------------------------------------
	BYTE		        Gn3 
	BYTE	W60
	BYTE		        Fn3 
	BYTE	W12
	BYTE		N11   
	BYTE	W12
	BYTE		        Gn3 
	BYTE	W12
// 035   ----------------------------------------
	BYTE	PATT
	 POIN2	imagine1_1_027
// 036   ----------------------------------------
	BYTE		N11     An3   v096
	BYTE	W36
	BYTE		N11   
	BYTE	W12
	BYTE		N11   
	BYTE	W12
	BYTE		        Fn3 
	BYTE	W12
	BYTE		        Gn3 
	BYTE	W12
	BYTE		        Fn3 
	BYTE	W12
// 037   ----------------------------------------
imagine1_1_037:
	BYTE		N32     As3   v096
	BYTE	W60
	BYTE		N11   
	BYTE		N11     Dn4 
	BYTE	W12
	BYTE		        As3 
	BYTE		N11     Dn4 
	BYTE	W12
	BYTE		        As3 
	BYTE		N11     Dn4 
	BYTE	W12
	BYTE	PEND
// 038   ----------------------------------------
imagine1_1_038:
	BYTE		N23     En3   v096
	BYTE		N23     Cn4 
	BYTE	W60
	BYTE		N11     As3 
	BYTE	W12
	BYTE		        An3 
	BYTE	W12
	BYTE		        Gn3 
	BYTE	W12
	BYTE	PEND
// 039   ----------------------------------------
	BYTE		N23     Fn3 
	BYTE	W96
// 040   ----------------------------------------
	BYTE	W96
// 041   ----------------------------------------
imagine1_1_041:
	BYTE	W24
	BYTE		N23     Cn3   v096
	BYTE	W24
	BYTE		N68     Cn4 
	BYTE	W48
	BYTE	PEND
// 042   ----------------------------------------
imagine1_1_042:
	BYTE	W24
	BYTE		N23     An3   v096
	BYTE	W24
	BYTE		N44     As3 
	BYTE	W48
	BYTE	PEND
// 043   ----------------------------------------
imagine1_1_043:
	BYTE		N11     Gn3   v096
	BYTE	W24
	BYTE		N23     Cn3 
	BYTE	W24
	BYTE		N68     As3 
	BYTE	W48
	BYTE	PEND
// 044   ----------------------------------------
imagine1_1_044:
	BYTE	W24
	BYTE		N23     Gn3   v096
	BYTE	W24
	BYTE		N44     An3 
	BYTE	W48
	BYTE	PEND
// 045   ----------------------------------------
imagine1_1_045:
	BYTE		N23     Fn3   v096
	BYTE	W36
	BYTE		N11     Gn3 
	BYTE	W12
	BYTE		        An3 
	BYTE	W36
	BYTE		        Gs3 
	BYTE	W12
	BYTE	PEND
// 046   ----------------------------------------
imagine1_1_046:
	BYTE		N11     An3   v096
	BYTE	W36
	BYTE		N11   
	BYTE	W12
	BYTE		N23     Fn3 
	BYTE		N23     As3 
	BYTE	W24
	BYTE		        Ds3 
	BYTE		N23     Cn4 
	BYTE	W24
	BYTE	PEND
// 047   ----------------------------------------
imagine1_1_047:
	BYTE		N23     Dn3   v096
	BYTE		N23     Dn4 
	BYTE	W60
	BYTE		N11     As3 
	BYTE		N11     Dn4 
	BYTE	W12
	BYTE		        As3 
	BYTE		N11     Dn4 
	BYTE	W12
	BYTE		        As3 
	BYTE		N11     Dn4 
	BYTE	W12
	BYTE	PEND
// 048   ----------------------------------------
	BYTE	PATT
	 POIN2	imagine1_1_038
// 049   ----------------------------------------
	BYTE		N23     Fn3   v096
	BYTE	W96
// 050   ----------------------------------------
	BYTE	PATT
	 POIN2	imagine1_1_023
// 051   ----------------------------------------
	BYTE	PATT
	 POIN2	imagine1_1_024
// 052   ----------------------------------------
	BYTE	PATT
	 POIN2	imagine1_1_025
// 053   ----------------------------------------
	BYTE	PATT
	 POIN2	imagine1_1_026
// 054   ----------------------------------------
	BYTE	PATT
	 POIN2	imagine1_1_027
// 055   ----------------------------------------
	BYTE	PATT
	 POIN2	imagine1_1_028
// 056   ----------------------------------------
	BYTE	PATT
	 POIN2	imagine1_1_037
// 057   ----------------------------------------
	BYTE		N44     En3   v096
	BYTE		N44     Cn4 
	BYTE	W60
	BYTE		N11     As3 
	BYTE	W12
	BYTE		        An3 
	BYTE	W12
	BYTE		        Gn3 
	BYTE	W12
// 058   ----------------------------------------
	BYTE		N23     Fn3 
	BYTE	W24
	BYTE		        Cn3 
	BYTE	W24
	BYTE		N68     Cn4 
	BYTE	W48
// 059   ----------------------------------------
	BYTE	PATT
	 POIN2	imagine1_1_042
// 060   ----------------------------------------
	BYTE	PATT
	 POIN2	imagine1_1_043
// 061   ----------------------------------------
	BYTE	PATT
	 POIN2	imagine1_1_044
// 062   ----------------------------------------
	BYTE	PATT
	 POIN2	imagine1_1_045
// 063   ----------------------------------------
	BYTE		N11     An3   v096
	BYTE	W36
	BYTE		N11   
	BYTE	W12
	BYTE		N23     As3 
	BYTE	W24
	BYTE		        Cn4 
	BYTE	W24
// 064   ----------------------------------------
	BYTE		        Dn4 
	BYTE	W60
	BYTE		N11     As3 
	BYTE		N11     Dn4 
	BYTE	W12
	BYTE		        As3 
	BYTE		N11     Dn4 
	BYTE	W12
	BYTE		        As3 
	BYTE		N11     Dn4 
	BYTE	W12
// 065   ----------------------------------------
	BYTE		N23     En3 
	BYTE		N23     Cn4 
	BYTE	W60
	BYTE		N11     Cn3 
	BYTE	W12
	BYTE		        Dn3 
	BYTE	W12
	BYTE		        En3 
	BYTE	W12
// 066   ----------------------------------------
	BYTE		N23     Fn3 
	BYTE	W96
// 067   ----------------------------------------
	BYTE	PATT
	 POIN2	imagine1_1_041
// 068   ----------------------------------------
	BYTE	PATT
	 POIN2	imagine1_1_042
// 069   ----------------------------------------
	BYTE	PATT
	 POIN2	imagine1_1_043
// 070   ----------------------------------------
	BYTE	PATT
	 POIN2	imagine1_1_044
// 071   ----------------------------------------
	BYTE	PATT
	 POIN2	imagine1_1_045
// 072   ----------------------------------------
	BYTE	PATT
	 POIN2	imagine1_1_046
// 073   ----------------------------------------
	BYTE	PATT
	 POIN2	imagine1_1_047
// 074   ----------------------------------------
	BYTE		N23     En3   v096
	BYTE		N23     Cn4 
	BYTE	W60
	BYTE		N11     Cn3 
	BYTE		N11     As3 
	BYTE	W12
	BYTE		        Dn3 
	BYTE		N11     An3 
	BYTE	W12
	BYTE		        En3 
	BYTE		N11     Gn3 
	BYTE	W12
// 075   ----------------------------------------
	BYTE		N44     Fn3 
	BYTE	W44
	BYTE	W03
	BYTE	GoTo
	 POIN2	imagine1_1_B1
imagine1_1_B2:
	BYTE	FINE

//**************** Track 2 (Midi-Chn.2) ****************//

imagine1_2:
	BYTE	KEYSH   imagine1_key+0
// 000   ----------------------------------------
	BYTE		VOICE   40
	BYTE		VOL     100*imagine1_mvl/mxv
	BYTE		PAN     c_v+63
	BYTE	W96
// 001   ----------------------------------------
	BYTE	W96
// 002   ----------------------------------------
	BYTE	W96
// 003   ----------------------------------------
	BYTE	W96
// 004   ----------------------------------------
	BYTE	W96
// 005   ----------------------------------------
	BYTE	W96
// 006   ----------------------------------------
	BYTE	W96
// 007   ----------------------------------------
	BYTE	W96
// 008   ----------------------------------------
	BYTE	W96
// 009   ----------------------------------------
	BYTE	W96
// 010   ----------------------------------------
	BYTE	W96
// 011   ----------------------------------------
	BYTE	W96
// 012   ----------------------------------------
	BYTE	W96
// 013   ----------------------------------------
	BYTE	W96
// 014   ----------------------------------------
	BYTE	W96
// 015   ----------------------------------------
	BYTE	W96
// 016   ----------------------------------------
	BYTE	W96
// 017   ----------------------------------------
	BYTE	W96
// 018   ----------------------------------------
	BYTE	W96
// 019   ----------------------------------------
	BYTE	W48
imagine1_2_B1:
	BYTE	W48
// 020   ----------------------------------------
	BYTE	W96
// 021   ----------------------------------------
	BYTE	W96
// 022   ----------------------------------------
	BYTE	W96
// 023   ----------------------------------------
	BYTE	W60
	BYTE		N11     An3   v096
	BYTE	W12
	BYTE		N11   
	BYTE	W12
	BYTE		        Gs3 
	BYTE	W12
// 024   ----------------------------------------
	BYTE		N23     An3 
	BYTE	W60
	BYTE		N11     Gn3 
	BYTE	W12
	BYTE		N11   
	BYTE	W12
	BYTE		        Fs3 
	BYTE	W12
// 025   ----------------------------------------
	BYTE		        Gn3 
	BYTE	W24
	BYTE		N23     Cn3 
	BYTE	W36
	BYTE		N11     Gn3 
	BYTE	W12
	BYTE		N11   
	BYTE	W12
	BYTE		        Fs3 
	BYTE	W12
// 026   ----------------------------------------
	BYTE		N23     Gn3 
	BYTE	W60
	BYTE		N11     Fn3 
	BYTE	W12
	BYTE		N11   
	BYTE	W12
	BYTE		        Gn3 
	BYTE	W12
// 027   ----------------------------------------
	BYTE		        An3 
	BYTE	W24
	BYTE		N23   
	BYTE	W36
	BYTE		N11   
	BYTE	W12
	BYTE		N11   
	BYTE	W12
	BYTE		        Gs3 
	BYTE	W12
// 028   ----------------------------------------
	BYTE		N23     An3 
	BYTE	W36
	BYTE		N11   
	BYTE	W12
	BYTE		N11   
	BYTE	W12
	BYTE		        Fn3 
	BYTE	W12
	BYTE		        Gn3 
	BYTE	W12
	BYTE		        Fn3 
	BYTE	W12
// 029   ----------------------------------------
	BYTE		N32     As3 
	BYTE	W60
	BYTE		N11     Dn4 
	BYTE	W12
	BYTE		N11   
	BYTE	W12
	BYTE		N11   
	BYTE	W12
// 030   ----------------------------------------
	BYTE		N23     Cn4 
	BYTE	W60
	BYTE		N11     As3 
	BYTE	W12
	BYTE		        An3 
	BYTE	W12
	BYTE		        Gn3 
	BYTE	W12
// 031   ----------------------------------------
	BYTE		N23     Fn3 
	BYTE	W60
	BYTE		N11     Cn4 
	BYTE	W12
	BYTE		N11   
	BYTE	W12
	BYTE		        Bn3 
	BYTE	W12
// 032   ----------------------------------------
	BYTE		        Cn4 
	BYTE	W60
	BYTE		        As3 
	BYTE	W12
	BYTE		N11   
	BYTE	W12
	BYTE		        An3 
	BYTE	W12
// 033   ----------------------------------------
	BYTE		        As3 
	BYTE	W12
	BYTE		        Gn3 
	BYTE	W48
	BYTE		        As3 
	BYTE	W12
	BYTE		N11   
	BYTE	W12
	BYTE		        An3 
	BYTE	W12
// 034   ----------------------------------------
	BYTE		        As3 
	BYTE	W60
	BYTE		        An3 
	BYTE	W12
	BYTE		N11   
	BYTE	W12
	BYTE		        As3 
	BYTE	W12
// 035   ----------------------------------------
	BYTE		        Cn4 
	BYTE	W24
	BYTE		N23   
	BYTE	W36
	BYTE		N11   
	BYTE	W12
	BYTE		N11   
	BYTE	W12
	BYTE		        Bn3 
	BYTE	W12
// 036   ----------------------------------------
	BYTE		        Cn4 
	BYTE	W36
	BYTE		N11   
	BYTE	W12
	BYTE		N11   
	BYTE	W12
	BYTE		        Fn3 
	BYTE	W12
	BYTE		        Fn4 
	BYTE	W12
	BYTE		        Ds4 
	BYTE	W12
// 037   ----------------------------------------
imagine1_2_037:
	BYTE		N32     Dn4   v096
	BYTE	W60
	BYTE		N11     Gn3 
	BYTE	W12
	BYTE		N11   
	BYTE	W12
	BYTE		N11   
	BYTE	W12
	BYTE	PEND
// 038   ----------------------------------------
	BYTE		N23     An3 
	BYTE	W60
	BYTE		N11     Dn4 
	BYTE	W12
	BYTE		        Cn4 
	BYTE	W12
	BYTE		        As3 
	BYTE	W12
// 039   ----------------------------------------
	BYTE		N23     An3 
	BYTE	W96
// 040   ----------------------------------------
	BYTE	W96
// 041   ----------------------------------------
imagine1_2_041:
	BYTE	W24
	BYTE		N23     Cn3   v096
	BYTE	W24
	BYTE		N68     Cn4 
	BYTE	W48
	BYTE	PEND
// 042   ----------------------------------------
imagine1_2_042:
	BYTE	W24
	BYTE		N23     An3   v096
	BYTE	W24
	BYTE		N44     As3 
	BYTE	W48
	BYTE	PEND
// 043   ----------------------------------------
imagine1_2_043:
	BYTE		N11     Gn3   v096
	BYTE	W24
	BYTE		N23     Cn3 
	BYTE	W24
	BYTE		N68     As3 
	BYTE	W48
	BYTE	PEND
// 044   ----------------------------------------
imagine1_2_044:
	BYTE	W24
	BYTE		N23     Gn3   v096
	BYTE	W24
	BYTE		N44     An3 
	BYTE	W48
	BYTE	PEND
// 045   ----------------------------------------
	BYTE		N23     Fn3 
	BYTE	W60
	BYTE		N11     Cn3 
	BYTE	W12
	BYTE		N11   
	BYTE	W24
// 046   ----------------------------------------
imagine1_2_046:
	BYTE	W12
	BYTE		N11     Cn3   v096
	BYTE	W12
	BYTE		N11   
	BYTE	W12
	BYTE		        Fn3 
	BYTE	W12
	BYTE		N23     An3 
	BYTE	W24
	BYTE		        Fn3 
	BYTE	W24
	BYTE	PEND
// 047   ----------------------------------------
imagine1_2_047:
	BYTE		N23     As3   v096
	BYTE	W60
	BYTE		N11     Fn3 
	BYTE	W12
	BYTE		N11   
	BYTE	W12
	BYTE		N11   
	BYTE	W12
	BYTE	PEND
// 048   ----------------------------------------
imagine1_2_048:
	BYTE		N23     Gn3   v096
	BYTE	W60
	BYTE		N11     Dn4 
	BYTE	W12
	BYTE		        Cn4 
	BYTE	W12
	BYTE		        As3 
	BYTE	W12
	BYTE	PEND
// 049   ----------------------------------------
	BYTE		N23     An3 
	BYTE	W96
// 050   ----------------------------------------
	BYTE	PATT
	 POIN2	imagine1_2_041
// 051   ----------------------------------------
	BYTE	PATT
	 POIN2	imagine1_2_042
// 052   ----------------------------------------
	BYTE	PATT
	 POIN2	imagine1_2_043
// 053   ----------------------------------------
	BYTE	PATT
	 POIN2	imagine1_2_044
// 054   ----------------------------------------
	BYTE		N23     Fn3   v096
	BYTE	W96
// 055   ----------------------------------------
	BYTE	W12
	BYTE		N11     An3 
	BYTE	W12
	BYTE		        Fn3 
	BYTE	W12
	BYTE		        An3 
	BYTE	W12
	BYTE		        Fn4 
	BYTE	W12
	BYTE		N11   
	BYTE	W12
	BYTE		N11   
	BYTE	W12
	BYTE		        Ds4 
	BYTE	W12
// 056   ----------------------------------------
	BYTE	PATT
	 POIN2	imagine1_2_037
// 057   ----------------------------------------
	BYTE		N44     An3   v096
	BYTE	W60
	BYTE		N11     Dn4 
	BYTE	W12
	BYTE		        Cn4 
	BYTE	W12
	BYTE		        As3 
	BYTE	W12
// 058   ----------------------------------------
	BYTE		N23     An3 
	BYTE	W60
	BYTE		N11     Cn4 
	BYTE	W12
	BYTE		N11   
	BYTE	W12
	BYTE		N11   
	BYTE	W12
// 059   ----------------------------------------
imagine1_2_059:
	BYTE	W12
	BYTE		N11     Cn4   v096
	BYTE	W12
	BYTE		N11   
	BYTE	W12
	BYTE		N11   
	BYTE	W24
	BYTE		N11   
	BYTE	W12
	BYTE		N11   
	BYTE	W12
	BYTE		N11   
	BYTE	W12
	BYTE	PEND
// 060   ----------------------------------------
	BYTE		        Gn4 
	BYTE	W24
	BYTE		        Cn4 
	BYTE	W36
	BYTE		N11   
	BYTE	W12
	BYTE		N11   
	BYTE	W12
	BYTE		N11   
	BYTE	W12
// 061   ----------------------------------------
	BYTE	PATT
	 POIN2	imagine1_2_059
// 062   ----------------------------------------
	BYTE		N11     Fn4   v096
	BYTE	W24
	BYTE		        Cn4 
	BYTE	W36
	BYTE		        Cn3 
	BYTE	W12
	BYTE		N11   
	BYTE	W24
// 063   ----------------------------------------
	BYTE	PATT
	 POIN2	imagine1_2_046
// 064   ----------------------------------------
	BYTE	PATT
	 POIN2	imagine1_2_047
// 065   ----------------------------------------
	BYTE		N23     Gn3   v096
	BYTE	W60
	BYTE		N11     Cn3 
	BYTE	W12
	BYTE		        Dn3 
	BYTE	W12
	BYTE		        En3 
	BYTE	W12
// 066   ----------------------------------------
	BYTE		N23     Fn3 
	BYTE	W96
// 067   ----------------------------------------
	BYTE	PATT
	 POIN2	imagine1_2_041
// 068   ----------------------------------------
	BYTE	PATT
	 POIN2	imagine1_2_042
// 069   ----------------------------------------
	BYTE	PATT
	 POIN2	imagine1_2_043
// 070   ----------------------------------------
	BYTE	W24
	BYTE		N23     Gn3   v096
	BYTE	W24
	BYTE		N44     Cn4 
	BYTE	W48
// 071   ----------------------------------------
	BYTE		N23     An3 
	BYTE	W60
	BYTE		N11     Cn3 
	BYTE	W12
	BYTE		N11   
	BYTE	W24
// 072   ----------------------------------------
	BYTE	PATT
	 POIN2	imagine1_2_046
// 073   ----------------------------------------
	BYTE	PATT
	 POIN2	imagine1_2_047
// 074   ----------------------------------------
	BYTE	PATT
	 POIN2	imagine1_2_048
// 075   ----------------------------------------
	BYTE		N44     An3   v096
	BYTE	W44
	BYTE	W03
	BYTE	GoTo
	 POIN2	imagine1_2_B1
imagine1_2_B2:
	BYTE	FINE

//**************** Track 3 (Midi-Chn.3) ****************//

imagine1_3:
	BYTE	KEYSH   imagine1_key+0
// 000   ----------------------------------------
	BYTE		VOICE   109
	BYTE		VOL     91*imagine1_mvl/mxv
	BYTE		PAN     c_v+0
	BYTE	W96
// 001   ----------------------------------------
	BYTE	W96
// 002   ----------------------------------------
	BYTE	W96
// 003   ----------------------------------------
	BYTE	W96
// 004   ----------------------------------------
	BYTE	W96
// 005   ----------------------------------------
	BYTE	W96
// 006   ----------------------------------------
	BYTE	W96
// 007   ----------------------------------------
	BYTE	W96
// 008   ----------------------------------------
	BYTE	W96
// 009   ----------------------------------------
	BYTE	W96
// 010   ----------------------------------------
	BYTE	W96
// 011   ----------------------------------------
	BYTE	W96
// 012   ----------------------------------------
	BYTE	W96
// 013   ----------------------------------------
	BYTE	W96
// 014   ----------------------------------------
	BYTE	W96
// 015   ----------------------------------------
	BYTE	W96
// 016   ----------------------------------------
	BYTE	W96
// 017   ----------------------------------------
	BYTE	W96
// 018   ----------------------------------------
	BYTE	W96
// 019   ----------------------------------------
	BYTE	W48
imagine1_3_B1:
	BYTE	W48
// 020   ----------------------------------------
	BYTE	W96
// 021   ----------------------------------------
	BYTE	W96
// 022   ----------------------------------------
	BYTE	W96
// 023   ----------------------------------------
imagine1_3_023:
	BYTE	W60
	BYTE		N11     An4   v096
	BYTE	W12
	BYTE		N11   
	BYTE	W12
	BYTE		        Gs4 
	BYTE	W12
	BYTE	PEND
// 024   ----------------------------------------
imagine1_3_024:
	BYTE		N44     An4   v096
	BYTE	W60
	BYTE		N11     Gn4 
	BYTE	W12
	BYTE		N11   
	BYTE	W12
	BYTE		        Fs4 
	BYTE	W12
	BYTE	PEND
// 025   ----------------------------------------
imagine1_3_025:
	BYTE		N11     Gn4   v096
	BYTE	W24
	BYTE		N22     Cn4 
	BYTE	W36
	BYTE		N05     Gn4 
	BYTE	W06
	BYTE		N05   
	BYTE	W06
	BYTE		N11   
	BYTE	W12
	BYTE		        Fs4 
	BYTE	W12
	BYTE	PEND
// 026   ----------------------------------------
imagine1_3_026:
	BYTE		N44     Gn4   v096
	BYTE	W60
	BYTE		N11     Fn4 
	BYTE	W12
	BYTE		N11   
	BYTE	W12
	BYTE		        Gn4 
	BYTE	W12
	BYTE	PEND
// 027   ----------------------------------------
imagine1_3_027:
	BYTE		N11     An4   v096
	BYTE	W24
	BYTE		N02   
	BYTE	W03
	BYTE		        As4 
	BYTE	W03
	BYTE		N17     An4 
	BYTE	W30
	BYTE		N11   
	BYTE	W12
	BYTE		N11   
	BYTE	W12
	BYTE		        Gs4 
	BYTE	W12
	BYTE	PEND
// 028   ----------------------------------------
imagine1_3_028:
	BYTE		N22     An4   v096
	BYTE	W36
	BYTE		N11   
	BYTE	W12
	BYTE		N11   
	BYTE	W12
	BYTE		        Fn4 
	BYTE	W12
	BYTE		        Gn4 
	BYTE	W12
	BYTE		        Fn4 
	BYTE	W12
	BYTE	PEND
// 029   ----------------------------------------
imagine1_3_029:
	BYTE		N44     As4   v096
	BYTE	W60
	BYTE		N11   
	BYTE	W12
	BYTE		N11   
	BYTE	W12
	BYTE		N11   
	BYTE	W12
	BYTE	PEND
// 030   ----------------------------------------
imagine1_3_030:
	BYTE		N22     Cn5   v096
	BYTE	W60
	BYTE		N11     As4 
	BYTE	W12
	BYTE		N02     An4 
	BYTE	W03
	BYTE		        As4 
	BYTE	W03
	BYTE		        An4 
	BYTE	W03
	BYTE		        Gn4 
	BYTE	W03
	BYTE		N11   
	BYTE	W12
	BYTE	PEND
// 031   ----------------------------------------
	BYTE		N22     Fn4 
	BYTE	W60
	BYTE		N05     An4 
	BYTE	W06
	BYTE		        Gs4 
	BYTE	W06
	BYTE		        An4 
	BYTE	W06
	BYTE		        Gs4 
	BYTE	W06
	BYTE		        An4 
	BYTE	W06
	BYTE		        Gs4 
	BYTE	W06
// 032   ----------------------------------------
	BYTE		N11     An4 
	BYTE	W60
	BYTE		N05     Gn4 
	BYTE	W06
	BYTE		        Fs4 
	BYTE	W06
	BYTE		N11     Gn4 
	BYTE	W12
	BYTE		N05   
	BYTE	W06
	BYTE		        Fs4 
	BYTE	W06
// 033   ----------------------------------------
	BYTE		N11     Gn4 
	BYTE	W12
	BYTE		        Cn4 
	BYTE	W48
	BYTE		N05     Gn4 
	BYTE	W06
	BYTE		        Fs4 
	BYTE	W06
	BYTE		        Gn4 
	BYTE	W06
	BYTE		        Fs4 
	BYTE	W06
	BYTE		        Gn4 
	BYTE	W06
	BYTE		        Fs4 
	BYTE	W06
// 034   ----------------------------------------
	BYTE		N11     Gn4 
	BYTE	W60
	BYTE		N05     Fn4 
	BYTE	W06
	BYTE		        En4 
	BYTE	W06
	BYTE		N11     Fn4 
	BYTE	W12
	BYTE		N05   
	BYTE	W06
	BYTE		        Gn4 
	BYTE	W06
// 035   ----------------------------------------
	BYTE		N11     An4 
	BYTE	W24
	BYTE		N02   
	BYTE	W03
	BYTE		        As4 
	BYTE	W03
	BYTE		N17     An4 
	BYTE	W30
	BYTE		N05   
	BYTE	W06
	BYTE		        Gs4 
	BYTE	W06
	BYTE		        An4 
	BYTE	W06
	BYTE		        Gs4 
	BYTE	W06
	BYTE		        An4 
	BYTE	W06
	BYTE		        Gs4 
	BYTE	W06
// 036   ----------------------------------------
	BYTE		N22     An4 
	BYTE	W36
	BYTE		N11   
	BYTE	W12
	BYTE		N11   
	BYTE	W12
	BYTE		N05     Fn4 
	BYTE	W06
	BYTE		        Gn4 
	BYTE	W06
	BYTE		N11     Fn4 
	BYTE	W12
	BYTE		        Ds4 
	BYTE	W12
// 037   ----------------------------------------
	BYTE		N44     Dn4 
	BYTE	W60
	BYTE		N05     As4 
	BYTE	W06
	BYTE		        An4 
	BYTE	W06
	BYTE		        As4 
	BYTE	W06
	BYTE		        An4 
	BYTE	W06
	BYTE		        As4 
	BYTE	W06
	BYTE		        An4 
	BYTE	W06
// 038   ----------------------------------------
	BYTE		N11     Cn5 
	BYTE	W60
	BYTE		N05     An4 
	BYTE	W06
	BYTE		        As4 
	BYTE	W06
	BYTE		N11     An4 
	BYTE	W12
	BYTE		        Gn4 
	BYTE	W12
// 039   ----------------------------------------
	BYTE		N22     Fn4 
	BYTE	W60
	BYTE		N05     An4 
	BYTE	W06
	BYTE		        As4 
	BYTE	W06
	BYTE		        Cn5 
	BYTE	W06
	BYTE		        Dn5 
	BYTE	W06
	BYTE		        Cn5 
	BYTE	W06
	BYTE		        As4 
	BYTE	W06
// 040   ----------------------------------------
	BYTE		N44     Cn5 
	BYTE	W60
	BYTE		N05     Fn4 
	BYTE	W06
	BYTE		        Gn4 
	BYTE	W06
	BYTE		        An4 
	BYTE	W06
	BYTE		        As4 
	BYTE	W06
	BYTE		        An4 
	BYTE	W06
	BYTE		        Gn4 
	BYTE	W06
// 041   ----------------------------------------
imagine1_3_041:
	BYTE		N22     Fn4   v096
	BYTE	W24
	BYTE		        Cn4 
	BYTE	W24
	BYTE		N68     Cn5 
	BYTE	W48
	BYTE	PEND
// 042   ----------------------------------------
imagine1_3_042:
	BYTE	W24
	BYTE		N22     An4   v096
	BYTE	W24
	BYTE		N44     As4 
	BYTE	W48
	BYTE	PEND
// 043   ----------------------------------------
imagine1_3_043:
	BYTE		N11     Gn4   v096
	BYTE	W24
	BYTE		N22     Cn4 
	BYTE	W24
	BYTE		N68     As4 
	BYTE	W48
	BYTE	PEND
// 044   ----------------------------------------
imagine1_3_044:
	BYTE	W24
	BYTE		N22     Gn4   v096
	BYTE	W24
	BYTE		N44     An4 
	BYTE	W48
	BYTE	PEND
// 045   ----------------------------------------
	BYTE		N22     Fn4 
	BYTE	W36
	BYTE		N11     Gn4 
	BYTE	W12
	BYTE		        An4 
	BYTE	W36
	BYTE		        Gs4 
	BYTE	W12
// 046   ----------------------------------------
imagine1_3_046:
	BYTE		N22     An4   v096
	BYTE	W36
	BYTE		N11     Gn4 
	BYTE	W12
	BYTE		N22     Fn4 
	BYTE	W24
	BYTE		        Ds4 
	BYTE	W24
	BYTE	PEND
// 047   ----------------------------------------
imagine1_3_047:
	BYTE		N22     Dn4   v096
	BYTE	W60
	BYTE		N11     As4 
	BYTE	W12
	BYTE		N11   
	BYTE	W12
	BYTE		N11   
	BYTE	W12
	BYTE	PEND
// 048   ----------------------------------------
	BYTE	PATT
	 POIN2	imagine1_3_030
// 049   ----------------------------------------
	BYTE		N22     Fn4   v096
	BYTE	W96
// 050   ----------------------------------------
	BYTE	PATT
	 POIN2	imagine1_3_023
// 051   ----------------------------------------
	BYTE	PATT
	 POIN2	imagine1_3_024
// 052   ----------------------------------------
	BYTE	PATT
	 POIN2	imagine1_3_025
// 053   ----------------------------------------
	BYTE	PATT
	 POIN2	imagine1_3_026
// 054   ----------------------------------------
	BYTE	PATT
	 POIN2	imagine1_3_027
// 055   ----------------------------------------
	BYTE	PATT
	 POIN2	imagine1_3_028
// 056   ----------------------------------------
	BYTE	PATT
	 POIN2	imagine1_3_029
// 057   ----------------------------------------
	BYTE		N44     Cn5   v096
	BYTE	W60
	BYTE		N11     As4 
	BYTE	W12
	BYTE		        An4 
	BYTE	W12
	BYTE		        Gn4 
	BYTE	W12
// 058   ----------------------------------------
	BYTE	PATT
	 POIN2	imagine1_3_041
// 059   ----------------------------------------
	BYTE	PATT
	 POIN2	imagine1_3_042
// 060   ----------------------------------------
	BYTE	PATT
	 POIN2	imagine1_3_043
// 061   ----------------------------------------
	BYTE	PATT
	 POIN2	imagine1_3_044
// 062   ----------------------------------------
	BYTE		N22     Fn4   v096
	BYTE	W36
	BYTE		N11     Gn4 
	BYTE	W12
	BYTE		N22     An4 
	BYTE	W36
	BYTE		N11     Gs4 
	BYTE	W12
// 063   ----------------------------------------
	BYTE	PATT
	 POIN2	imagine1_3_046
// 064   ----------------------------------------
	BYTE	PATT
	 POIN2	imagine1_3_047
// 065   ----------------------------------------
	BYTE		N22     Cn5   v096
	BYTE	W60
	BYTE		N11     As4 
	BYTE	W12
	BYTE		        An4 
	BYTE	W12
	BYTE		        Gn4 
	BYTE	W12
// 066   ----------------------------------------
	BYTE		N22     Fn4 
	BYTE	W96
// 067   ----------------------------------------
	BYTE	W24
	BYTE		        Cn4 
	BYTE	W36
	BYTE		        Cn5 
	BYTE	W24
	BYTE		N11     Bn4 
	BYTE	W12
// 068   ----------------------------------------
	BYTE		N22     Cn5 
	BYTE	W24
	BYTE		        An4 
	BYTE	W36
	BYTE		        As4 
	BYTE	W24
	BYTE		N11     An4 
	BYTE	W12
// 069   ----------------------------------------
	BYTE		        As4 
	BYTE	W12
	BYTE		        An4 
	BYTE	W12
	BYTE		        Gn4 
	BYTE	W12
	BYTE		        Cn4 
	BYTE	W24
	BYTE		N22     As4 
	BYTE	W24
	BYTE		N11     An4 
	BYTE	W12
// 070   ----------------------------------------
	BYTE		N22     As4 
	BYTE	W24
	BYTE		        Gn4 
	BYTE	W36
	BYTE		        An4 
	BYTE	W24
	BYTE		N11     Gn4 
	BYTE	W12
// 071   ----------------------------------------
	BYTE		        An4 
	BYTE	W12
	BYTE		        Gn4 
	BYTE	W12
	BYTE		        Fn4 
	BYTE	W12
	BYTE		        Cn4 
	BYTE	W12
	BYTE		N22     An4 
	BYTE	W24
	BYTE		N11   
	BYTE	W12
	BYTE		        Gn4 
	BYTE	W12
// 072   ----------------------------------------
	BYTE		N22     An4 
	BYTE	W24
	BYTE		N11   
	BYTE	W12
	BYTE		        Gn4 
	BYTE	W12
	BYTE		        Fn4 
	BYTE	W12
	BYTE		N05   
	BYTE	W06
	BYTE		        Gn4 
	BYTE	W06
	BYTE		N11     An4 
	BYTE	W12
	BYTE		        Fn4 
	BYTE	W12
// 073   ----------------------------------------
	BYTE		N22     As4 
	BYTE	W60
	BYTE		N11   
	BYTE	W12
	BYTE		N11   
	BYTE	W12
	BYTE		N11   
	BYTE	W12
// 074   ----------------------------------------
	BYTE		N44     Cn5 
	BYTE	W60
	BYTE		N11     As4 
	BYTE	W12
	BYTE		N02     An4 
	BYTE	W03
	BYTE		        As4 
	BYTE	W03
	BYTE		        An4 
	BYTE	W03
	BYTE		        Gn4 
	BYTE	W03
	BYTE		N11   
	BYTE	W12
// 075   ----------------------------------------
	BYTE		        Fn4 
	BYTE	W44
	BYTE	W03
	BYTE	GoTo
	 POIN2	imagine1_3_B1
imagine1_3_B2:
	BYTE	FINE

//**************** Track 4 (Midi-Chn.4) ****************//

imagine1_4:
	BYTE		VOL     127*imagine1_mvl/mxv
	BYTE	KEYSH   imagine1_key+0
// 000   ----------------------------------------
	BYTE		VOICE   59
	BYTE	W96
// 001   ----------------------------------------
	BYTE	W96
// 002   ----------------------------------------
	BYTE	W96
// 003   ----------------------------------------
	BYTE	W96
// 004   ----------------------------------------
	BYTE	W96
// 005   ----------------------------------------
	BYTE	W96
// 006   ----------------------------------------
	BYTE	W96
// 007   ----------------------------------------
	BYTE	W96
// 008   ----------------------------------------
	BYTE	W96
// 009   ----------------------------------------
	BYTE	W96
// 010   ----------------------------------------
	BYTE	W96
// 011   ----------------------------------------
	BYTE	W96
// 012   ----------------------------------------
	BYTE	W96
// 013   ----------------------------------------
	BYTE	W96
// 014   ----------------------------------------
	BYTE	W96
// 015   ----------------------------------------
	BYTE	W96
// 016   ----------------------------------------
	BYTE	W96
// 017   ----------------------------------------
	BYTE	W96
// 018   ----------------------------------------
	BYTE	W96
// 019   ----------------------------------------
	BYTE	W48
imagine1_4_B1:
	BYTE	W12
	BYTE		N11     An2   v096
	BYTE		N11     Cn3 
	BYTE		N11     Fn3 
	BYTE	W24
	BYTE		        An2 
	BYTE		N11     Cn3 
	BYTE		N11     Fn3 
	BYTE	W12
// 020   ----------------------------------------
imagine1_4_020:
	BYTE	W12
	BYTE		N11     An2   v096
	BYTE		N11     Cn3 
	BYTE		N11     Fn3 
	BYTE	W24
	BYTE		        An2 
	BYTE		N11     Cn3 
	BYTE		N11     Fn3 
	BYTE	W24
	BYTE		        An2 
	BYTE		N11     Cn3 
	BYTE		N11     Fn3 
	BYTE	W24
	BYTE		        An2 
	BYTE		N11     Cn3 
	BYTE		N11     Fn3 
	BYTE	W12
	BYTE	PEND
// 021   ----------------------------------------
imagine1_4_021:
	BYTE	W60
	BYTE		N11     An2   v096
	BYTE		N11     Cn3 
	BYTE		N11     Fn3 
	BYTE	W24
	BYTE		        An2 
	BYTE		N11     Cn3 
	BYTE		N11     Fn3 
	BYTE	W12
	BYTE	PEND
// 022   ----------------------------------------
	BYTE	PATT
	 POIN2	imagine1_4_020
// 023   ----------------------------------------
imagine1_4_023:
	BYTE	W60
	BYTE		N11     Cn3   v080
	BYTE		N11     Fn3 
	BYTE		N11     An3 
	BYTE	W24
	BYTE		        Cn3 
	BYTE		N11     Fn3 
	BYTE		N11     An3 
	BYTE	W12
	BYTE	PEND
// 024   ----------------------------------------
imagine1_4_024:
	BYTE	W12
	BYTE		N11     Cn3   v080
	BYTE		N11     Fn3 
	BYTE		N11     An3 
	BYTE	W24
	BYTE		        Cn3 
	BYTE		N11     Fn3 
	BYTE		N11     An3 
	BYTE	W24
	BYTE		        Cn3 
	BYTE		N11     En3 
	BYTE		N11     Gn3 
	BYTE	W24
	BYTE		        Cn3 
	BYTE		N11     En3 
	BYTE		N11     Gn3 
	BYTE	W12
	BYTE	PEND
// 025   ----------------------------------------
imagine1_4_025:
	BYTE	W12
	BYTE		N11     Cn3   v080
	BYTE		N11     En3 
	BYTE		N11     Gn3 
	BYTE	W24
	BYTE		        Cn3 
	BYTE		N11     En3 
	BYTE		N11     Gn3 
	BYTE	W24
	BYTE		        Cn3 
	BYTE		N11     En3 
	BYTE		N11     Gn3 
	BYTE	W24
	BYTE		        Cn3 
	BYTE		N11     En3 
	BYTE		N11     Gn3 
	BYTE	W12
	BYTE	PEND
// 026   ----------------------------------------
imagine1_4_026:
	BYTE	W12
	BYTE		N11     Cn3   v080
	BYTE		N11     En3 
	BYTE		N11     Gn3 
	BYTE	W24
	BYTE		        Cn3 
	BYTE		N11     En3 
	BYTE		N11     Gn3 
	BYTE	W24
	BYTE		        Cn3 
	BYTE		N11     Fn3 
	BYTE		N11     An3 
	BYTE	W24
	BYTE		        Cn3 
	BYTE		N11     Fn3 
	BYTE		N11     An3 
	BYTE	W12
	BYTE	PEND
// 027   ----------------------------------------
imagine1_4_027:
	BYTE	W12
	BYTE		N11     Cn3   v080
	BYTE		N11     Fn3 
	BYTE		N11     An3 
	BYTE	W24
	BYTE		        Cn3 
	BYTE		N11     Fn3 
	BYTE		N11     An3 
	BYTE	W24
	BYTE		        Cn3 
	BYTE		N11     Fn3 
	BYTE		N11     An3 
	BYTE	W24
	BYTE		        Cn3 
	BYTE		N11     Fn3 
	BYTE		N11     An3 
	BYTE	W12
	BYTE	PEND
// 028   ----------------------------------------
	BYTE	PATT
	 POIN2	imagine1_4_027
// 029   ----------------------------------------
imagine1_4_029:
	BYTE	W12
	BYTE		N11     Dn3   v080
	BYTE		N11     Fn3 
	BYTE		N11     As3 
	BYTE	W24
	BYTE		        Dn3 
	BYTE		N11     Fn3 
	BYTE		N11     As3 
	BYTE	W24
	BYTE		        Dn3 
	BYTE		N11     Fn3 
	BYTE		N11     As3 
	BYTE	W24
	BYTE		        Dn3 
	BYTE		N11     Fn3 
	BYTE		N11     As3 
	BYTE	W12
	BYTE	PEND
// 030   ----------------------------------------
imagine1_4_030:
	BYTE	W12
	BYTE		N11     En3   v080
	BYTE		N11     Gn3 
	BYTE		N11     Cn4 
	BYTE	W24
	BYTE		        En3 
	BYTE		N11     Gn3 
	BYTE		N11     Cn4 
	BYTE	W24
	BYTE		        En3 
	BYTE		N11     Gn3 
	BYTE		N11     Cn4 
	BYTE	W24
	BYTE		        En3 
	BYTE		N11     Gn3 
	BYTE		N11     Cn4 
	BYTE	W12
	BYTE	PEND
// 031   ----------------------------------------
	BYTE	PATT
	 POIN2	imagine1_4_023
// 032   ----------------------------------------
	BYTE	PATT
	 POIN2	imagine1_4_024
// 033   ----------------------------------------
	BYTE	PATT
	 POIN2	imagine1_4_025
// 034   ----------------------------------------
	BYTE	PATT
	 POIN2	imagine1_4_026
// 035   ----------------------------------------
	BYTE	PATT
	 POIN2	imagine1_4_027
// 036   ----------------------------------------
	BYTE	PATT
	 POIN2	imagine1_4_027
// 037   ----------------------------------------
	BYTE	PATT
	 POIN2	imagine1_4_029
// 038   ----------------------------------------
	BYTE	PATT
	 POIN2	imagine1_4_030
// 039   ----------------------------------------
	BYTE	PATT
	 POIN2	imagine1_4_021
// 040   ----------------------------------------
	BYTE	PATT
	 POIN2	imagine1_4_020
// 041   ----------------------------------------
	BYTE	PATT
	 POIN2	imagine1_4_023
// 042   ----------------------------------------
	BYTE	PATT
	 POIN2	imagine1_4_024
// 043   ----------------------------------------
	BYTE	PATT
	 POIN2	imagine1_4_025
// 044   ----------------------------------------
	BYTE	PATT
	 POIN2	imagine1_4_026
// 045   ----------------------------------------
	BYTE	PATT
	 POIN2	imagine1_4_027
// 046   ----------------------------------------
	BYTE	PATT
	 POIN2	imagine1_4_027
// 047   ----------------------------------------
	BYTE	PATT
	 POIN2	imagine1_4_029
// 048   ----------------------------------------
	BYTE	PATT
	 POIN2	imagine1_4_030
// 049   ----------------------------------------
	BYTE	PATT
	 POIN2	imagine1_4_021
// 050   ----------------------------------------
	BYTE	PATT
	 POIN2	imagine1_4_023
// 051   ----------------------------------------
	BYTE	PATT
	 POIN2	imagine1_4_024
// 052   ----------------------------------------
	BYTE	PATT
	 POIN2	imagine1_4_025
// 053   ----------------------------------------
	BYTE	PATT
	 POIN2	imagine1_4_026
// 054   ----------------------------------------
	BYTE	PATT
	 POIN2	imagine1_4_027
// 055   ----------------------------------------
	BYTE	PATT
	 POIN2	imagine1_4_027
// 056   ----------------------------------------
	BYTE	PATT
	 POIN2	imagine1_4_029
// 057   ----------------------------------------
	BYTE	PATT
	 POIN2	imagine1_4_030
// 058   ----------------------------------------
	BYTE	PATT
	 POIN2	imagine1_4_023
// 059   ----------------------------------------
	BYTE	PATT
	 POIN2	imagine1_4_024
// 060   ----------------------------------------
	BYTE	PATT
	 POIN2	imagine1_4_025
// 061   ----------------------------------------
	BYTE	PATT
	 POIN2	imagine1_4_026
// 062   ----------------------------------------
	BYTE	PATT
	 POIN2	imagine1_4_027
// 063   ----------------------------------------
	BYTE	PATT
	 POIN2	imagine1_4_027
// 064   ----------------------------------------
	BYTE	PATT
	 POIN2	imagine1_4_029
// 065   ----------------------------------------
	BYTE	PATT
	 POIN2	imagine1_4_030
// 066   ----------------------------------------
	BYTE	PATT
	 POIN2	imagine1_4_021
// 067   ----------------------------------------
	BYTE	W60
	BYTE		N11     Cn3   v096
	BYTE		N11     Fn3 
	BYTE		N11     An3 
	BYTE	W24
	BYTE		        Cn3 
	BYTE		N11     Fn3 
	BYTE		N11     An3 
	BYTE	W12
// 068   ----------------------------------------
	BYTE	W12
	BYTE		        Cn3 
	BYTE		N11     Fn3 
	BYTE		N11     An3 
	BYTE	W24
	BYTE		        Cn3 
	BYTE		N11     Fn3 
	BYTE		N11     An3 
	BYTE	W24
	BYTE		        Cn3 
	BYTE		N11     En3 
	BYTE		N11     Gn3 
	BYTE	W24
	BYTE		        Cn3 
	BYTE		N11     En3 
	BYTE		N11     Gn3 
	BYTE	W12
// 069   ----------------------------------------
	BYTE	W12
	BYTE		        Cn3 
	BYTE		N11     En3 
	BYTE		N11     Gn3 
	BYTE	W24
	BYTE		        Cn3 
	BYTE		N11     En3 
	BYTE		N11     Gn3 
	BYTE	W24
	BYTE		        Cn3 
	BYTE		N11     En3 
	BYTE		N11     Gn3 
	BYTE	W24
	BYTE		        Cn3 
	BYTE		N11     En3 
	BYTE		N11     Gn3 
	BYTE	W12
// 070   ----------------------------------------
	BYTE	W12
	BYTE		        Cn3 
	BYTE		N11     En3 
	BYTE		N11     Gn3 
	BYTE	W24
	BYTE		        Cn3 
	BYTE		N11     En3 
	BYTE		N11     Gn3 
	BYTE	W24
	BYTE		        Cn3 
	BYTE		N11     Fn3 
	BYTE		N11     An3 
	BYTE	W24
	BYTE		        Cn3 
	BYTE		N11     Fn3 
	BYTE		N11     An3 
	BYTE	W12
// 071   ----------------------------------------
imagine1_4_071:
	BYTE	W12
	BYTE		N11     Cn3   v096
	BYTE		N11     Fn3 
	BYTE		N11     An3 
	BYTE	W24
	BYTE		        Cn3 
	BYTE		N11     Fn3 
	BYTE		N11     An3 
	BYTE	W24
	BYTE		        Cn3 
	BYTE		N11     Fn3 
	BYTE		N11     An3 
	BYTE	W24
	BYTE		        Cn3 
	BYTE		N11     Fn3 
	BYTE		N11     An3 
	BYTE	W12
	BYTE	PEND
// 072   ----------------------------------------
	BYTE	PATT
	 POIN2	imagine1_4_071
// 073   ----------------------------------------
	BYTE	W12
	BYTE		N11     Dn3   v096
	BYTE		N11     Fn3 
	BYTE		N11     As3 
	BYTE	W24
	BYTE		        Dn3 
	BYTE		N11     Fn3 
	BYTE		N11     As3 
	BYTE	W24
	BYTE		        Dn3 
	BYTE		N11     Fn3 
	BYTE		N11     As3 
	BYTE	W24
	BYTE		        Dn3 
	BYTE		N11     Fn3 
	BYTE		N11     As3 
	BYTE	W12
// 074   ----------------------------------------
	BYTE	W12
	BYTE		        En3 
	BYTE		N11     Gn3 
	BYTE		N11     Cn4 
	BYTE	W24
	BYTE		        En3 
	BYTE		N11     Gn3 
	BYTE		N11     Cn4 
	BYTE	W24
	BYTE		        En3 
	BYTE		N11     Gn3 
	BYTE		N11     Cn4 
	BYTE	W24
	BYTE		        En3 
	BYTE		N11     Gn3 
	BYTE		N11     Cn4 
	BYTE	W12
// 075   ----------------------------------------
	BYTE	W44
	BYTE	W03
	BYTE	GoTo
	 POIN2	imagine1_4_B1
imagine1_4_B2:
	BYTE	FINE

//**************** Track 5 (Midi-Chn.5) ****************//

imagine1_5:
	BYTE		VOL     127*imagine1_mvl/mxv
	BYTE	KEYSH   imagine1_key+0
// 000   ----------------------------------------
	BYTE		VOICE   60
	BYTE		N22     Cn2   v096
	BYTE	W24
	BYTE		        As1 
	BYTE	W24
	BYTE		        An1 
	BYTE	W24
	BYTE		        Gn1 
	BYTE	W24
// 001   ----------------------------------------
	BYTE		        Fn1 
	BYTE	W24
	BYTE		N11     En1 
	BYTE	W12
	BYTE		        Dn1 
	BYTE	W12
	BYTE		N05     Cn1 
	BYTE	W48
// 002   ----------------------------------------
	BYTE		N22     Fn1 
	BYTE	W24
	BYTE		        Cn1 
	BYTE	W24
	BYTE		        Fn1 
	BYTE	W24
	BYTE		N11     Cn1 
	BYTE	W12
	BYTE		        Fn1 
	BYTE	W12
// 003   ----------------------------------------
imagine1_5_003:
	BYTE		N22     Gn1   v096
	BYTE	W24
	BYTE		        Cn1 
	BYTE	W24
	BYTE		        Gn1 
	BYTE	W24
	BYTE		N11     Cn1 
	BYTE	W12
	BYTE		        En1 
	BYTE	W12
	BYTE	PEND
// 004   ----------------------------------------
	BYTE		N22     Gn1 
	BYTE	W24
	BYTE		        Cn1 
	BYTE	W24
	BYTE		        Gn1 
	BYTE	W24
	BYTE		N11     Cn1 
	BYTE	W12
	BYTE		        Gn1 
	BYTE	W12
// 005   ----------------------------------------
	BYTE		N22     Fn1 
	BYTE	W24
	BYTE		        Cn1 
	BYTE	W24
	BYTE		N17     Fn1 
	BYTE	W18
	BYTE		N05   
	BYTE	W06
	BYTE		N11     Dn1 
	BYTE	W12
	BYTE		        En1 
	BYTE	W12
// 006   ----------------------------------------
	BYTE		N22     Fn1 
	BYTE	W24
	BYTE		        Cn1 
	BYTE	W24
	BYTE		        Fn1 
	BYTE	W24
	BYTE		N11     Cn1 
	BYTE	W12
	BYTE		        En1 
	BYTE	W12
// 007   ----------------------------------------
imagine1_5_007:
	BYTE		N22     Fn1   v096
	BYTE	W24
	BYTE		        An1 
	BYTE	W24
	BYTE		        As1 
	BYTE	W24
	BYTE		        Fn1 
	BYTE	W24
	BYTE	PEND
// 008   ----------------------------------------
	BYTE		        As1 
	BYTE	W24
	BYTE		N11     Fn1 
	BYTE	W12
	BYTE		        As1 
	BYTE	W12
	BYTE		N22     Cn2 
	BYTE	W24
	BYTE		        Gn1 
	BYTE	W24
// 009   ----------------------------------------
	BYTE		N17     Cn1 
	BYTE	W18
	BYTE		N05   
	BYTE	W06
	BYTE		N11     Dn1 
	BYTE	W12
	BYTE		        En1 
	BYTE	W12
	BYTE		        Fn1 
	BYTE	W12
	BYTE		        Cn1 
	BYTE	W12
	BYTE		        Dn1 
	BYTE	W12
	BYTE		        En1 
	BYTE	W12
// 010   ----------------------------------------
imagine1_5_010:
	BYTE		N22     Fn1   v096
	BYTE	W24
	BYTE		N11     Cn1 
	BYTE	W12
	BYTE		        En1 
	BYTE	W12
	BYTE		N22     Fn1 
	BYTE	W24
	BYTE		        Cn1 
	BYTE	W24
	BYTE	PEND
// 011   ----------------------------------------
	BYTE		        Gn1 
	BYTE	W24
	BYTE		N11     Cn1 
	BYTE	W12
	BYTE		        En1 
	BYTE	W12
	BYTE		N22     Gn1 
	BYTE	W24
	BYTE		        Cn1 
	BYTE	W24
// 012   ----------------------------------------
	BYTE		        Gn1 
	BYTE	W24
	BYTE		N11     Cn1 
	BYTE	W12
	BYTE		        En1 
	BYTE	W12
	BYTE		N22     Gn1 
	BYTE	W24
	BYTE		N11     Cn1 
	BYTE	W12
	BYTE		        Gn1 
	BYTE	W12
// 013   ----------------------------------------
	BYTE	PATT
	 POIN2	imagine1_5_010
// 014   ----------------------------------------
	BYTE		N22     Fn1   v096
	BYTE	W24
	BYTE		N11     Cn1 
	BYTE	W12
	BYTE		        En1 
	BYTE	W12
	BYTE		N22     Fn1 
	BYTE	W24
	BYTE		N11     Cn1 
	BYTE	W12
	BYTE		        En1 
	BYTE	W12
// 015   ----------------------------------------
	BYTE	PATT
	 POIN2	imagine1_5_007
// 016   ----------------------------------------
	BYTE		N22     As1   v096
	BYTE	W24
	BYTE		N11     Fn1 
	BYTE	W12
	BYTE		        As1 
	BYTE	W12
	BYTE		        Cn2 
	BYTE	W24
	BYTE		N22     Gn1 
	BYTE	W24
// 017   ----------------------------------------
	BYTE		N08     Cn1   v116
	BYTE	W48
	BYTE		N11     Fn1   v096
	BYTE	W12
	BYTE		        En1 
	BYTE	W12
	BYTE		        Dn1 
	BYTE	W12
	BYTE		        Cn1 
	BYTE	W12
// 018   ----------------------------------------
	BYTE		        Fn1 
	BYTE	W12
	BYTE		        En1 
	BYTE	W12
	BYTE		        Dn1 
	BYTE	W12
	BYTE		        Cn1 
	BYTE	W12
	BYTE		        Fn1 
	BYTE	W12
	BYTE		        En1 
	BYTE	W12
	BYTE		        Dn1 
	BYTE	W12
	BYTE		        Cn1 
	BYTE	W12
// 019   ----------------------------------------
	BYTE		        Fn1 
	BYTE	W12
	BYTE		        En1 
	BYTE	W12
	BYTE		        Dn1 
	BYTE	W12
	BYTE		        Cn1 
	BYTE	W12
imagine1_5_B1:
	BYTE		N22     Fn1   v096
	BYTE	W24
	BYTE		        Cn1 
	BYTE	W24
// 020   ----------------------------------------
imagine1_5_020:
	BYTE		N22     Fn1   v096
	BYTE	W24
	BYTE		        Cn1 
	BYTE	W24
	BYTE		        Fn1 
	BYTE	W24
	BYTE		        Cn1 
	BYTE	W24
	BYTE	PEND
// 021   ----------------------------------------
	BYTE		N11     Fn1 
	BYTE	W12
	BYTE		        Cn1 
	BYTE	W12
	BYTE		        Dn1 
	BYTE	W12
	BYTE		        En1 
	BYTE	W12
	BYTE		N22     Fn1 
	BYTE	W24
	BYTE		        Cn1 
	BYTE	W24
// 022   ----------------------------------------
	BYTE		        Fn1 
	BYTE	W24
	BYTE		        Cn1 
	BYTE	W24
	BYTE		        Fn1 
	BYTE	W24
	BYTE		N17     Cn1 
	BYTE	W18
	BYTE		N01   
	BYTE	W01
	BYTE		        Cs1 
	BYTE	W01
	BYTE		        Dn1 
	BYTE	W01
	BYTE		        Ds1 
	BYTE	W01
	BYTE		        En1 
	BYTE	W02
// 023   ----------------------------------------
imagine1_5_023:
	BYTE		N11     Fn1   v096
	BYTE	W12
	BYTE		        Cn1 
	BYTE	W12
	BYTE		        Dn1 
	BYTE	W12
	BYTE		        En1 
	BYTE	W12
	BYTE		N22     Fn1   v080
	BYTE	W24
	BYTE		        Cn1 
	BYTE	W24
	BYTE	PEND
// 024   ----------------------------------------
imagine1_5_024:
	BYTE		N22     Fn1   v080
	BYTE	W24
	BYTE		N11     Cn1 
	BYTE	W12
	BYTE		        Fn1 
	BYTE	W12
	BYTE		N22     Gn1 
	BYTE	W24
	BYTE		        Cn1 
	BYTE	W24
	BYTE	PEND
// 025   ----------------------------------------
imagine1_5_025:
	BYTE		N22     Gn1   v080
	BYTE	W24
	BYTE		N11     Cn1 
	BYTE	W12
	BYTE		        En1 
	BYTE	W12
	BYTE		N22     Gn1 
	BYTE	W24
	BYTE		        Cn1 
	BYTE	W24
	BYTE	PEND
// 026   ----------------------------------------
imagine1_5_026:
	BYTE		N22     Gn1   v080
	BYTE	W24
	BYTE		N11     Cn1 
	BYTE	W12
	BYTE		        Gn1 
	BYTE	W12
	BYTE		N22     Fn1 
	BYTE	W24
	BYTE		        Cn1 
	BYTE	W24
	BYTE	PEND
// 027   ----------------------------------------
imagine1_5_027:
	BYTE		N17     Fn1   v080
	BYTE	W18
	BYTE		N05   
	BYTE	W06
	BYTE		N11     Dn1 
	BYTE	W12
	BYTE		        En1 
	BYTE	W12
	BYTE		N22     Fn1 
	BYTE	W24
	BYTE		        Cn1 
	BYTE	W24
	BYTE	PEND
// 028   ----------------------------------------
imagine1_5_028:
	BYTE		N22     Fn1   v080
	BYTE	W24
	BYTE		N11     Cn1 
	BYTE	W12
	BYTE		        En1 
	BYTE	W12
	BYTE		N22     Fn1 
	BYTE	W24
	BYTE		        An1 
	BYTE	W24
	BYTE	PEND
// 029   ----------------------------------------
imagine1_5_029:
	BYTE		N22     As1   v080
	BYTE	W24
	BYTE		        Fn1 
	BYTE	W24
	BYTE		        As1 
	BYTE	W24
	BYTE		N11     Fn1 
	BYTE	W12
	BYTE		        As1 
	BYTE	W12
	BYTE	PEND
// 030   ----------------------------------------
imagine1_5_030:
	BYTE		N22     Cn2   v080
	BYTE	W24
	BYTE		        Gn1 
	BYTE	W24
	BYTE		N17     Cn1 
	BYTE	W18
	BYTE		N05   
	BYTE	W06
	BYTE		N11     Dn1 
	BYTE	W12
	BYTE		        En1 
	BYTE	W12
	BYTE	PEND
// 031   ----------------------------------------
	BYTE		        Fn1 
	BYTE	W12
	BYTE		        Cn1 
	BYTE	W12
	BYTE		        Dn1 
	BYTE	W12
	BYTE		        En1 
	BYTE	W12
	BYTE		N22     Fn1 
	BYTE	W24
	BYTE		        Cn1 
	BYTE	W24
// 032   ----------------------------------------
	BYTE	PATT
	 POIN2	imagine1_5_024
// 033   ----------------------------------------
	BYTE	PATT
	 POIN2	imagine1_5_025
// 034   ----------------------------------------
	BYTE	PATT
	 POIN2	imagine1_5_026
// 035   ----------------------------------------
	BYTE	PATT
	 POIN2	imagine1_5_027
// 036   ----------------------------------------
	BYTE	PATT
	 POIN2	imagine1_5_028
// 037   ----------------------------------------
	BYTE	PATT
	 POIN2	imagine1_5_029
// 038   ----------------------------------------
	BYTE	PATT
	 POIN2	imagine1_5_030
// 039   ----------------------------------------
imagine1_5_039:
	BYTE		N11     Fn1   v080
	BYTE	W12
	BYTE		        Cn1 
	BYTE	W12
	BYTE		        Dn1 
	BYTE	W12
	BYTE		        En1 
	BYTE	W12
	BYTE		N22     Fn1   v096
	BYTE	W24
	BYTE		        Cn1 
	BYTE	W24
	BYTE	PEND
// 040   ----------------------------------------
	BYTE	PATT
	 POIN2	imagine1_5_020
// 041   ----------------------------------------
	BYTE		N11     Fn1   v096
	BYTE	W12
	BYTE		        Cn1 
	BYTE	W12
	BYTE		        An1 
	BYTE	W12
	BYTE		        Gn1 
	BYTE	W12
	BYTE		N22     Fn1   v080
	BYTE	W24
	BYTE		N11     Cn1 
	BYTE	W12
	BYTE		        En1 
	BYTE	W12
// 042   ----------------------------------------
imagine1_5_042:
	BYTE		N22     Fn1   v080
	BYTE	W24
	BYTE		        Cn1 
	BYTE	W24
	BYTE		        Gn1 
	BYTE	W24
	BYTE		N11     Cn1 
	BYTE	W12
	BYTE		        En1 
	BYTE	W12
	BYTE	PEND
// 043   ----------------------------------------
imagine1_5_043:
	BYTE		N22     Gn1   v080
	BYTE	W24
	BYTE		        Cn1 
	BYTE	W24
	BYTE		        Gn1 
	BYTE	W24
	BYTE		N11     Cn1 
	BYTE	W12
	BYTE		        En1 
	BYTE	W12
	BYTE	PEND
// 044   ----------------------------------------
imagine1_5_044:
	BYTE		N22     Gn1   v080
	BYTE	W24
	BYTE		N11     Cn1 
	BYTE	W12
	BYTE		        Gn1 
	BYTE	W12
	BYTE		        Fn1 
	BYTE	W12
	BYTE		        En1 
	BYTE	W12
	BYTE		        Dn1 
	BYTE	W12
	BYTE		        Cn1 
	BYTE	W12
	BYTE	PEND
// 045   ----------------------------------------
imagine1_5_045:
	BYTE		N11     Fn1   v080
	BYTE	W12
	BYTE		        En1 
	BYTE	W12
	BYTE		        Dn1 
	BYTE	W12
	BYTE		        Cn1 
	BYTE	W12
	BYTE		N22     Fn1 
	BYTE	W24
	BYTE		N11     Cn1 
	BYTE	W12
	BYTE		        En1 
	BYTE	W12
	BYTE	PEND
// 046   ----------------------------------------
	BYTE	PATT
	 POIN2	imagine1_5_028
// 047   ----------------------------------------
	BYTE	PATT
	 POIN2	imagine1_5_029
// 048   ----------------------------------------
	BYTE	PATT
	 POIN2	imagine1_5_030
// 049   ----------------------------------------
	BYTE	PATT
	 POIN2	imagine1_5_039
// 050   ----------------------------------------
	BYTE	PATT
	 POIN2	imagine1_5_023
// 051   ----------------------------------------
	BYTE	PATT
	 POIN2	imagine1_5_024
// 052   ----------------------------------------
	BYTE	PATT
	 POIN2	imagine1_5_025
// 053   ----------------------------------------
	BYTE	PATT
	 POIN2	imagine1_5_026
// 054   ----------------------------------------
	BYTE	PATT
	 POIN2	imagine1_5_027
// 055   ----------------------------------------
	BYTE	PATT
	 POIN2	imagine1_5_028
// 056   ----------------------------------------
	BYTE	PATT
	 POIN2	imagine1_5_029
// 057   ----------------------------------------
	BYTE	PATT
	 POIN2	imagine1_5_030
// 058   ----------------------------------------
	BYTE		N11     Fn1   v080
	BYTE	W12
	BYTE		        Cn1 
	BYTE	W12
	BYTE		        Dn1 
	BYTE	W12
	BYTE		        En1 
	BYTE	W12
	BYTE		N22     Fn1 
	BYTE	W24
	BYTE		N11     Cn1 
	BYTE	W12
	BYTE		        En1 
	BYTE	W12
// 059   ----------------------------------------
	BYTE	PATT
	 POIN2	imagine1_5_042
// 060   ----------------------------------------
	BYTE	PATT
	 POIN2	imagine1_5_043
// 061   ----------------------------------------
	BYTE	PATT
	 POIN2	imagine1_5_044
// 062   ----------------------------------------
	BYTE	PATT
	 POIN2	imagine1_5_045
// 063   ----------------------------------------
	BYTE	PATT
	 POIN2	imagine1_5_028
// 064   ----------------------------------------
	BYTE	PATT
	 POIN2	imagine1_5_029
// 065   ----------------------------------------
	BYTE	PATT
	 POIN2	imagine1_5_030
// 066   ----------------------------------------
	BYTE	PATT
	 POIN2	imagine1_5_039
// 067   ----------------------------------------
	BYTE		N11     Fn1   v096
	BYTE	W12
	BYTE		        Cn1 
	BYTE	W12
	BYTE		        An1 
	BYTE	W12
	BYTE		        Gn1 
	BYTE	W12
	BYTE		N22     Fn1 
	BYTE	W24
	BYTE		N11     Cn1 
	BYTE	W12
	BYTE		        En1 
	BYTE	W12
// 068   ----------------------------------------
	BYTE		N22     Fn1 
	BYTE	W24
	BYTE		        Cn1 
	BYTE	W24
	BYTE		        Gn1 
	BYTE	W24
	BYTE		N11     Cn1 
	BYTE	W12
	BYTE		        En1 
	BYTE	W12
// 069   ----------------------------------------
	BYTE	PATT
	 POIN2	imagine1_5_003
// 070   ----------------------------------------
	BYTE		N22     Gn1   v096
	BYTE	W24
	BYTE		N11     Cn1 
	BYTE	W12
	BYTE		        Gn1 
	BYTE	W12
	BYTE		        Fn1 
	BYTE	W12
	BYTE		        En1 
	BYTE	W12
	BYTE		        Dn1 
	BYTE	W12
	BYTE		        Cn1 
	BYTE	W12
// 071   ----------------------------------------
	BYTE		        Fn1 
	BYTE	W12
	BYTE		        En1 
	BYTE	W12
	BYTE		        Dn1 
	BYTE	W12
	BYTE		        Cn1 
	BYTE	W12
	BYTE		N22     Fn1 
	BYTE	W24
	BYTE		N11     Cn1 
	BYTE	W12
	BYTE		        En1 
	BYTE	W12
// 072   ----------------------------------------
	BYTE		N22     Fn1 
	BYTE	W24
	BYTE		N11     Cn1 
	BYTE	W12
	BYTE		        En1 
	BYTE	W12
	BYTE		N22     Fn1 
	BYTE	W24
	BYTE		        An1 
	BYTE	W24
// 073   ----------------------------------------
	BYTE		        As1 
	BYTE	W24
	BYTE		        Fn1 
	BYTE	W24
	BYTE		        As1 
	BYTE	W24
	BYTE		N11     Fn1 
	BYTE	W12
	BYTE		        As1 
	BYTE	W12
// 074   ----------------------------------------
	BYTE		N22     Cn2 
	BYTE	W24
	BYTE		        Gn1 
	BYTE	W24
	BYTE		N17     Cn1 
	BYTE	W18
	BYTE		N05   
	BYTE	W06
	BYTE		N11     Dn1 
	BYTE	W12
	BYTE		        En1 
	BYTE	W12
// 075   ----------------------------------------
	BYTE		        Fn1 
	BYTE	W12
	BYTE		        En1 
	BYTE	W32
	BYTE	W03
	BYTE	GoTo
	 POIN2	imagine1_5_B1
imagine1_5_B2:
	BYTE	FINE

//**************** Track 6 (Midi-Chn.6) ****************//

imagine1_6:
	BYTE	KEYSH   imagine1_key+0
// 000   ----------------------------------------
	BYTE		VOICE   57
	BYTE		VOL     101*imagine1_mvl/mxv
	BYTE		N32     Cn3   v096
	BYTE	W36
	BYTE		N05     Dn3 
	BYTE	W12
	BYTE		N32     Cn3 
	BYTE		N32     En3 
	BYTE	W36
	BYTE		N05     Fn3 
	BYTE	W12
// 001   ----------------------------------------
	BYTE		N17     En3 
	BYTE		N17     Gn3 
	BYTE	W18
	BYTE		N05     An3 
	BYTE	W06
	BYTE		N11     Gn3 
	BYTE		N11     As3 
	BYTE	W12
	BYTE		        Bn3 
	BYTE	W12
	BYTE		N05     En3 
	BYTE		N05     Gn3 
	BYTE		N05     Cn4 
	BYTE	W24
	BYTE		N22     Cn3 
	BYTE	W24
// 002   ----------------------------------------
	BYTE	W12
	BYTE		N11   
	BYTE		N11     Fn3 
	BYTE		N11     An3 
	BYTE	W12
	BYTE		        Cn3 
	BYTE		N11     Fn3 
	BYTE		N11     An3 
	BYTE	W12
	BYTE		        En3 
	BYTE		N11     Gs3 
	BYTE	W12
	BYTE		N44     Cn3 
	BYTE		N44     Fn3 
	BYTE		N44     An3 
	BYTE	W48
// 003   ----------------------------------------
	BYTE	W96
// 004   ----------------------------------------
	BYTE	W12
	BYTE		N11     Cn3 
	BYTE		N11     En3 
	BYTE		N11     Gn3 
	BYTE	W12
	BYTE		        Cn3 
	BYTE		N11     En3 
	BYTE		N11     Gn3 
	BYTE	W12
	BYTE		        Fs3 
	BYTE	W12
	BYTE		N44     Cn3 
	BYTE		N44     En3 
	BYTE		N44     Gn3 
	BYTE	W48
// 005   ----------------------------------------
	BYTE	W96
// 006   ----------------------------------------
	BYTE	W12
	BYTE		N11     Cn3 
	BYTE		N11     Fn3 
	BYTE		N11     An3 
	BYTE	W12
	BYTE		        Cn3 
	BYTE		N11     Fn3 
	BYTE		N11     An3 
	BYTE	W12
	BYTE		        En3 
	BYTE		N11     Gs3 
	BYTE	W12
	BYTE		N22     Cn3 
	BYTE		N22     Fn3 
	BYTE		N22     An3 
	BYTE	W36
	BYTE		N11     Cn3 
	BYTE		N11     Fn3 
	BYTE		N11     An3 
	BYTE	W12
// 007   ----------------------------------------
	BYTE		        Cn3 
	BYTE		N11     Fn3 
	BYTE		N11     An3 
	BYTE	W12
	BYTE		        Cn3 
	BYTE		N11     Fn3 
	BYTE	W12
	BYTE		        Cn3 
	BYTE		N11     En3 
	BYTE		N11     Gn3 
	BYTE	W12
	BYTE		        Cn3 
	BYTE		N11     Fn3 
	BYTE	W12
	BYTE		N44     Dn3 
	BYTE		N44     Fn3 
	BYTE		N44     As3 
	BYTE	W48
// 008   ----------------------------------------
	BYTE	W96
// 009   ----------------------------------------
	BYTE	W12
	BYTE		N11     En3 
	BYTE		N11     Gn3 
	BYTE		N11     As3 
	BYTE	W12
	BYTE		        Fn3 
	BYTE		N11     An3 
	BYTE	W12
	BYTE		        En3 
	BYTE		N11     Gn3 
	BYTE	W12
	BYTE		N17     An2 
	BYTE		N17     Cn3 
	BYTE		N17     Fn3 
	BYTE	W48
// 010   ----------------------------------------
	BYTE	W96
// 011   ----------------------------------------
	BYTE	W96
// 012   ----------------------------------------
	BYTE	W96
// 013   ----------------------------------------
	BYTE	W84
	BYTE		N11     Gn3 
	BYTE	W12
// 014   ----------------------------------------
	BYTE		N22     Cn3 
	BYTE		N22     Fn3 
	BYTE		N22     An3 
	BYTE	W36
	BYTE		N11     Gs3 
	BYTE	W12
	BYTE		N22     Cn3 
	BYTE		N22     En3 
	BYTE		N22     An3 
	BYTE	W36
	BYTE		N11     Gn3 
	BYTE	W12
// 015   ----------------------------------------
	BYTE		N22     Cn3 
	BYTE		N22     Dn3 
	BYTE		N22     Fn3 
	BYTE	W24
	BYTE		        Cn3 
	BYTE		N22     Fn3 
	BYTE		N22     An3 
	BYTE	W24
	BYTE		        Dn3 
	BYTE		N22     Fn3 
	BYTE		N22     As3 
	BYTE	W48
// 016   ----------------------------------------
	BYTE	W96
// 017   ----------------------------------------
	BYTE	W12
	BYTE		N11     Gn3 
	BYTE		N11     As3 
	BYTE	W12
	BYTE		        Fn3 
	BYTE		N11     An3 
	BYTE	W12
	BYTE		        En3 
	BYTE		N11     Gn3 
	BYTE	W12
	BYTE		N44     Cn3 
	BYTE		N44     Fn3 
	BYTE	W48
// 018   ----------------------------------------
	BYTE	W96
// 019   ----------------------------------------
	BYTE	W48
imagine1_6_B1:
	BYTE	W48
// 020   ----------------------------------------
	BYTE	W96
// 021   ----------------------------------------
	BYTE	W96
// 022   ----------------------------------------
	BYTE	W96
// 023   ----------------------------------------
	BYTE	W96
// 024   ----------------------------------------
	BYTE	W96
// 025   ----------------------------------------
	BYTE	W96
// 026   ----------------------------------------
	BYTE	W96
// 027   ----------------------------------------
	BYTE	W96
// 028   ----------------------------------------
	BYTE	W96
// 029   ----------------------------------------
	BYTE	W96
// 030   ----------------------------------------
	BYTE	W96
// 031   ----------------------------------------
	BYTE	W96
// 032   ----------------------------------------
	BYTE	W96
// 033   ----------------------------------------
	BYTE	W96
// 034   ----------------------------------------
	BYTE	W96
// 035   ----------------------------------------
	BYTE	W96
// 036   ----------------------------------------
	BYTE	W96
// 037   ----------------------------------------
	BYTE	W96
// 038   ----------------------------------------
	BYTE	W96
// 039   ----------------------------------------
	BYTE	W96
// 040   ----------------------------------------
	BYTE	W96
// 041   ----------------------------------------
	BYTE	W96
// 042   ----------------------------------------
	BYTE	W96
// 043   ----------------------------------------
	BYTE	W96
// 044   ----------------------------------------
	BYTE	W96
// 045   ----------------------------------------
	BYTE	W96
// 046   ----------------------------------------
	BYTE	W96
// 047   ----------------------------------------
	BYTE	W96
// 048   ----------------------------------------
	BYTE	W96
// 049   ----------------------------------------
	BYTE	W96
// 050   ----------------------------------------
	BYTE	W96
// 051   ----------------------------------------
	BYTE	W96
// 052   ----------------------------------------
	BYTE	W96
// 053   ----------------------------------------
	BYTE	W96
// 054   ----------------------------------------
	BYTE	W96
// 055   ----------------------------------------
	BYTE	W96
// 056   ----------------------------------------
	BYTE	W96
// 057   ----------------------------------------
	BYTE	W96
// 058   ----------------------------------------
	BYTE	W96
// 059   ----------------------------------------
	BYTE	W96
// 060   ----------------------------------------
	BYTE	W96
// 061   ----------------------------------------
	BYTE	W96
// 062   ----------------------------------------
	BYTE	W96
// 063   ----------------------------------------
	BYTE	W96
// 064   ----------------------------------------
	BYTE	W96
// 065   ----------------------------------------
	BYTE	W96
// 066   ----------------------------------------
	BYTE	W96
// 067   ----------------------------------------
	BYTE	W96
// 068   ----------------------------------------
	BYTE	W96
// 069   ----------------------------------------
	BYTE	W96
// 070   ----------------------------------------
	BYTE	W96
// 071   ----------------------------------------
	BYTE	W96
// 072   ----------------------------------------
	BYTE	W96
// 073   ----------------------------------------
	BYTE	W96
// 074   ----------------------------------------
	BYTE	W96
// 075   ----------------------------------------
	BYTE	W44
	BYTE	W03
	BYTE	GoTo
	 POIN2	imagine1_6_B1
imagine1_6_B2:
	BYTE	FINE

//**************** Track 7 (Midi-Chn.7) ****************//

imagine1_7:
	BYTE	KEYSH   imagine1_key+0
// 000   ----------------------------------------
	BYTE		VOICE   77
	BYTE		VOL     101*imagine1_mvl/mxv
	BYTE	W96
// 001   ----------------------------------------
	BYTE	W96
// 002   ----------------------------------------
	BYTE	W96
// 003   ----------------------------------------
	BYTE	W12
	BYTE		N11     Cn3   v096
	BYTE		N11     En3 
	BYTE		N11     Gn3 
	BYTE	W12
	BYTE		        Cn3 
	BYTE		N11     En3 
	BYTE		N11     Gn3 
	BYTE	W12
	BYTE		        Fs3 
	BYTE	W12
	BYTE		        Cn3 
	BYTE		N11     En3 
	BYTE		N11     Gn3 
	BYTE	W24
	BYTE		N22     Cn3 
	BYTE	W24
// 004   ----------------------------------------
	BYTE	W96
// 005   ----------------------------------------
	BYTE	W12
	BYTE		N11   
	BYTE		N11     Fn3 
	BYTE	W12
	BYTE		        Cn3 
	BYTE		N11     Fn3 
	BYTE	W12
	BYTE		        En3 
	BYTE		N11     Gn3 
	BYTE	W12
	BYTE		        Cn3 
	BYTE		N11     Fn3 
	BYTE		N11     An3 
	BYTE	W24
	BYTE		N22     Cn3 
	BYTE		N22     Fn3 
	BYTE		N22     An3 
	BYTE	W24
// 006   ----------------------------------------
	BYTE	W96
// 007   ----------------------------------------
	BYTE	W96
// 008   ----------------------------------------
	BYTE	W12
	BYTE		N11     Dn3 
	BYTE		N11     Fn3 
	BYTE		N11     As3 
	BYTE	W12
	BYTE		        Dn3 
	BYTE		N11     Fn3 
	BYTE		N11     As3 
	BYTE	W12
	BYTE		        Dn3 
	BYTE		N11     Fn3 
	BYTE		N11     As3 
	BYTE	W12
	BYTE		N22     En3 
	BYTE		N22     Gn3 
	BYTE		N22     Cn4 
	BYTE	W48
// 009   ----------------------------------------
	BYTE	W12
	BYTE		N11     En3 
	BYTE		N11     Gn3 
	BYTE		N11     As3 
	BYTE	W12
	BYTE		        Fn3 
	BYTE		N11     An3 
	BYTE	W12
	BYTE		        En3 
	BYTE		N11     Gn3 
	BYTE	W12
	BYTE		N17     An2 
	BYTE		N17     Cn3 
	BYTE		N17     Fn3 
	BYTE	W24
	BYTE		N22     Cn3 
	BYTE	W24
// 010   ----------------------------------------
	BYTE		N68     Fn3 
	BYTE		N68     An3 
	BYTE		N68     Cn4 
	BYTE	W72
	BYTE		N22     An3 
	BYTE	W24
// 011   ----------------------------------------
	BYTE		N44     Fn3 
	BYTE		N44     Gn3 
	BYTE		N44     As3 
	BYTE	W48
	BYTE		N11     Gn3 
	BYTE	W24
	BYTE		N22     Cn3 
	BYTE	W24
// 012   ----------------------------------------
	BYTE		N68     En3 
	BYTE		N68     Gn3 
	BYTE		N68     As3 
	BYTE	W72
	BYTE		N22     Gn3 
	BYTE	W24
// 013   ----------------------------------------
	BYTE		N44     Cn3 
	BYTE		N44     Fn3 
	BYTE		N44     An3 
	BYTE	W48
	BYTE		N22     Fn3 
	BYTE	W48
// 014   ----------------------------------------
	BYTE	W96
// 015   ----------------------------------------
	BYTE	W96
// 016   ----------------------------------------
	BYTE	W12
	BYTE		N11     Dn3 
	BYTE		N11     Fn3 
	BYTE		N11     As3 
	BYTE	W12
	BYTE		        Dn3 
	BYTE		N11     Fn3 
	BYTE		N11     As3 
	BYTE	W12
	BYTE		        Dn3 
	BYTE		N11     Fn3 
	BYTE		N11     As3 
	BYTE	W12
	BYTE		        En3 
	BYTE		N11     Gn3 
	BYTE		N11     Cn4 
	BYTE	W48
// 017   ----------------------------------------
	BYTE	W96
// 018   ----------------------------------------
	BYTE	W96
// 019   ----------------------------------------
	BYTE	W48
imagine1_7_B1:
	BYTE	W48
// 020   ----------------------------------------
	BYTE	W96
// 021   ----------------------------------------
	BYTE	W96
// 022   ----------------------------------------
	BYTE	W96
// 023   ----------------------------------------
	BYTE	W96
// 024   ----------------------------------------
	BYTE	W96
// 025   ----------------------------------------
	BYTE	W96
// 026   ----------------------------------------
	BYTE	W96
// 027   ----------------------------------------
	BYTE	W96
// 028   ----------------------------------------
	BYTE	W96
// 029   ----------------------------------------
	BYTE	W96
// 030   ----------------------------------------
	BYTE	W96
// 031   ----------------------------------------
	BYTE	W96
// 032   ----------------------------------------
	BYTE	W96
// 033   ----------------------------------------
	BYTE	W96
// 034   ----------------------------------------
	BYTE	W96
// 035   ----------------------------------------
	BYTE	W96
// 036   ----------------------------------------
	BYTE	W96
// 037   ----------------------------------------
	BYTE	W96
// 038   ----------------------------------------
	BYTE	W96
// 039   ----------------------------------------
	BYTE	W96
// 040   ----------------------------------------
	BYTE	W96
// 041   ----------------------------------------
	BYTE	W96
// 042   ----------------------------------------
	BYTE	W96
// 043   ----------------------------------------
	BYTE	W96
// 044   ----------------------------------------
	BYTE	W96
// 045   ----------------------------------------
	BYTE	W96
// 046   ----------------------------------------
	BYTE	W96
// 047   ----------------------------------------
	BYTE	W96
// 048   ----------------------------------------
	BYTE	W96
// 049   ----------------------------------------
	BYTE	W96
// 050   ----------------------------------------
	BYTE	W96
// 051   ----------------------------------------
	BYTE	W96
// 052   ----------------------------------------
	BYTE	W96
// 053   ----------------------------------------
	BYTE	W96
// 054   ----------------------------------------
	BYTE	W96
// 055   ----------------------------------------
	BYTE	W96
// 056   ----------------------------------------
	BYTE	W96
// 057   ----------------------------------------
	BYTE	W96
// 058   ----------------------------------------
	BYTE	W96
// 059   ----------------------------------------
	BYTE	W96
// 060   ----------------------------------------
	BYTE	W96
// 061   ----------------------------------------
	BYTE	W96
// 062   ----------------------------------------
	BYTE	W96
// 063   ----------------------------------------
	BYTE	W96
// 064   ----------------------------------------
	BYTE	W96
// 065   ----------------------------------------
	BYTE	W96
// 066   ----------------------------------------
	BYTE	W96
// 067   ----------------------------------------
	BYTE	W96
// 068   ----------------------------------------
	BYTE	W96
// 069   ----------------------------------------
	BYTE	W96
// 070   ----------------------------------------
	BYTE	W96
// 071   ----------------------------------------
	BYTE	W96
// 072   ----------------------------------------
	BYTE	W96
// 073   ----------------------------------------
	BYTE	W96
// 074   ----------------------------------------
	BYTE	W96
// 075   ----------------------------------------
	BYTE	W44
	BYTE	W03
	BYTE	GoTo
	 POIN2	imagine1_7_B1
imagine1_7_B2:
	BYTE	FINE

//******************************************************//
	ALIGN 4

imagine1:
	BYTE	7	// NumTrks
	BYTE	0	// NumBlks
	BYTE	imagine1_pri	// Priority
	BYTE	imagine1_rev	// Reverb.

	POIN2	imagine1_grp

	POIN2	imagine1_1
	POIN2	imagine1_2
	POIN2	imagine1_3
	POIN2	imagine1_4
	POIN2	imagine1_5
	POIN2	imagine1_6
	POIN2	imagine1_7

	
