//Event file generated from Sappy .s format.
	#include "MPlayDef.event"

	#define	taleselect_grp  voicegroup000
	#define	taleselect_pri  0
	#define	taleselect_rev  0
	#define	taleselect_mvl  75
	#define	taleselect_key  0
	#define	taleselect_tbs  1
	#define	taleselect_exg  0
	#define	taleselect_cmp  1

	// .rodata
	//	taleselect
	ALIGN 4

//**************** Track 1 (Midi-Chn.1) ****************//

taleselect_1:
	BYTE	KEYSH   taleselect_key+0
taleselect_1_B1:
// 000   ----------------------------------------
	BYTE	TEMPO   150*taleselect_tbs/2
	BYTE		VOICE   75
	BYTE		PAN     c_v+31
	BYTE		VOL     95*taleselect_mvl/mxv
	BYTE	W24
	BYTE		N04     En4   v088
	BYTE	W12
	BYTE		N04   
	BYTE	W12
	BYTE		N72   
	BYTE	W48
// 001   ----------------------------------------
	BYTE	W24
	BYTE		N12   
	BYTE	W12
	BYTE		        Cn4 
	BYTE	W12
	BYTE		N09     Dn4 
	BYTE	W24
	BYTE		        Bn3 
	BYTE	W24
// 002   ----------------------------------------
	BYTE		TIE     An3 
	BYTE	W96
// 003   ----------------------------------------
	BYTE	W96
	BYTE		EOT   
// 004   ----------------------------------------
	BYTE	W24
	BYTE		N06     Cn4 
	BYTE		N04     En4 
	BYTE	W12
	BYTE		N06     Cn4 
	BYTE		N02     En4 
	BYTE	W12
	BYTE		N72     Cn4 
	BYTE		N72     En4 
	BYTE	W48
// 005   ----------------------------------------
	BYTE	W24
	BYTE		N12     Cn4 
	BYTE		N12     En4 
	BYTE	W12
	BYTE		        An3   v116
	BYTE		N12     Cn4 
	BYTE	W12
	BYTE		N09     Dn4   v088
	BYTE	W24
	BYTE		        Bn3 
	BYTE	W24
// 006   ----------------------------------------
	BYTE		TIE     An3 
	BYTE	W96
// 007   ----------------------------------------
	BYTE	W96
	BYTE		EOT   
// 008   ----------------------------------------
taleselect_1_008:
	BYTE		N24     An3   v088
	BYTE	W24
	BYTE		N18     Cn4 
	BYTE	W18
	BYTE		N03     Bn3 
	BYTE	W03
	BYTE		        Cn4 
	BYTE	W03
	BYTE		N12     Bn3 
	BYTE	W24
	BYTE		        Gn3 
	BYTE	W24
	BYTE	PEND
// 009   ----------------------------------------
	BYTE		N96     En3 
	BYTE	W96
// 010   ----------------------------------------
	BYTE	PATT
	 POIN2	taleselect_1_008
// 011   ----------------------------------------
	BYTE		N96     En4   v088
	BYTE	W96
// 012   ----------------------------------------
	BYTE	PATT
	 POIN2	taleselect_1_008
// 013   ----------------------------------------
	BYTE		N72     En3   v088
	BYTE	W72
	BYTE		N24     Dn3 
	BYTE	W24
// 014   ----------------------------------------
	BYTE		TIE     En3 
	BYTE	W96
// 015   ----------------------------------------
	BYTE	W96
	BYTE		EOT   
// 016   ----------------------------------------
taleselect_1_016:
	BYTE		N24     Dn3   v088
	BYTE	W24
	BYTE		        En3 
	BYTE	W24
	BYTE		        Fn3 
	BYTE	W24
	BYTE		        Gs3 
	BYTE	W24
	BYTE	PEND
// 017   ----------------------------------------
	BYTE		N96     Bn3 
	BYTE	W96
// 018   ----------------------------------------
	BYTE		N24     Dn3 
	BYTE	W24
	BYTE		        En3 
	BYTE	W24
	BYTE		        Fn3 
	BYTE	W24
	BYTE		        Dn4 
	BYTE	W24
// 019   ----------------------------------------
	BYTE		N96     Bn3 
	BYTE	W96
// 020   ----------------------------------------
	BYTE	PATT
	 POIN2	taleselect_1_016
// 021   ----------------------------------------
	BYTE		N24     Fn3   v088
	BYTE	W24
	BYTE		        Gs3 
	BYTE	W24
	BYTE		        Bn3 
	BYTE	W24
	BYTE		        Dn4 
	BYTE	W24
// 022   ----------------------------------------
	BYTE		        Bn3 
	BYTE	W24
	BYTE		        Dn4 
	BYTE	W24
	BYTE		        Fn4 
	BYTE	W24
	BYTE		        Gs4 
	BYTE	W24
// 023   ----------------------------------------
	BYTE		TIE     Bn4   v080
	BYTE	W96
// 024   ----------------------------------------
	BYTE	W72
	BYTE		EOT   
	BYTE	W24
	BYTE	GoTo
	 POIN2	taleselect_1_B1
taleselect_1_B2:
// 025   ----------------------------------------
	BYTE	FINE

//**************** Track 2 (Midi-Chn.3) ****************//

taleselect_2:
	BYTE	KEYSH   taleselect_key+0
taleselect_2_B1:
// 000   ----------------------------------------
	BYTE		VOICE   61
	BYTE		PAN     c_v+31
	BYTE		VOL     127*taleselect_mvl/mxv
	BYTE	W96
// 001   ----------------------------------------
	BYTE	W96
// 002   ----------------------------------------
	BYTE	W96
// 003   ----------------------------------------
	BYTE	W96
// 004   ----------------------------------------
	BYTE	W96
// 005   ----------------------------------------
	BYTE	W96
// 006   ----------------------------------------
	BYTE	W96
// 007   ----------------------------------------
	BYTE	W96
// 008   ----------------------------------------
	BYTE		TIE     An2   v064
	BYTE	W96
// 009   ----------------------------------------
	BYTE	W24
	BYTE		EOT   
	BYTE		N12     Gn2   v076
	BYTE	W24
	BYTE		        Cn2   v068
	BYTE	W24
	BYTE		        Gn2 
	BYTE	W24
// 010   ----------------------------------------
	BYTE		TIE     Fn2   v064
	BYTE	W96
// 011   ----------------------------------------
	BYTE	W24
	BYTE		EOT   
	BYTE		N08     Cn2   v088
	BYTE	W12
	BYTE		        Fn2   v096
	BYTE	W12
	BYTE		N12     Gn2   v084
	BYTE	W24
	BYTE		        Cn3   v064
	BYTE	W24
// 012   ----------------------------------------
	BYTE		TIE     An2 
	BYTE	W96
// 013   ----------------------------------------
	BYTE	W24
	BYTE		EOT   
	BYTE		N12     Cn2 
	BYTE	W24
	BYTE		        Dn2   v068
	BYTE	W24
	BYTE		        Fn2   v072
	BYTE	W24
// 014   ----------------------------------------
	BYTE		N96     En2   v024
	BYTE	W96
// 015   ----------------------------------------
	BYTE		        En1 
	BYTE	W96
// 016   ----------------------------------------
	BYTE	W96
// 017   ----------------------------------------
	BYTE	W96
// 018   ----------------------------------------
	BYTE	W96
// 019   ----------------------------------------
	BYTE	W96
// 020   ----------------------------------------
	BYTE	W96
// 021   ----------------------------------------
	BYTE	W96
// 022   ----------------------------------------
	BYTE	W96
// 023   ----------------------------------------
	BYTE	W96
// 024   ----------------------------------------
	BYTE	W96
	BYTE	GoTo
	 POIN2	taleselect_2_B1
taleselect_2_B2:
// 025   ----------------------------------------
	BYTE	FINE

//**************** Track 3 (Midi-Chn.4) ****************//

taleselect_3:
	BYTE	KEYSH   taleselect_key+0
taleselect_3_B1:
// 000   ----------------------------------------
	BYTE		VOICE   10
	BYTE		PAN     c_v+12
	BYTE		VOL     105*taleselect_mvl/mxv
	BYTE	W96
// 001   ----------------------------------------
	BYTE	W96
// 002   ----------------------------------------
	BYTE	W96
// 003   ----------------------------------------
	BYTE	W96
// 004   ----------------------------------------
	BYTE	W96
// 005   ----------------------------------------
	BYTE	W96
// 006   ----------------------------------------
	BYTE	W96
// 007   ----------------------------------------
	BYTE	W96
// 008   ----------------------------------------
	BYTE	W96
// 009   ----------------------------------------
	BYTE	W96
// 010   ----------------------------------------
	BYTE	W96
// 011   ----------------------------------------
	BYTE	W96
// 012   ----------------------------------------
	BYTE	W96
// 013   ----------------------------------------
	BYTE	W96
// 014   ----------------------------------------
	BYTE	W96
// 015   ----------------------------------------
	BYTE	W96
// 016   ----------------------------------------
	BYTE		N96     En2   v072
	BYTE	W96
// 017   ----------------------------------------
	BYTE		        En2   v068
	BYTE	W04
	BYTE		N90     Gs2 
	BYTE	W05
	BYTE		N84     Bn2 
	BYTE	W04
	BYTE		N80     Dn3 
	BYTE	W05
	BYTE		N78     En3 
	BYTE	W04
	BYTE		N72     Gs3 
	BYTE	W05
	BYTE		N68     Bn3 
	BYTE	W68
	BYTE	W01
// 018   ----------------------------------------
	BYTE		TIE     En2   v076
	BYTE	W96
// 019   ----------------------------------------
	BYTE		N96     Gs3   v068
	BYTE	W04
	BYTE		N90     Bn3 
	BYTE	W05
	BYTE		N84     En4 
	BYTE	W84
	BYTE	W03
	BYTE		EOT     En2 
// 020   ----------------------------------------
	BYTE		TIE     En2   v076
	BYTE	W96
// 021   ----------------------------------------
	BYTE		N96     Gs2   v064
	BYTE	W04
	BYTE		N90     Bn2 
	BYTE	W05
	BYTE		N84     Dn3 
	BYTE	W36
	BYTE	W03
	BYTE		N48     Fn3   v068
	BYTE	W48
	BYTE		EOT     En2 
// 022   ----------------------------------------
	BYTE		N96     Gs2   v084
	BYTE	W04
	BYTE		N90     Bn2 
	BYTE	W05
	BYTE		N84     Dn3 
	BYTE	W04
	BYTE		N80     Fn3 
	BYTE	W32
	BYTE	W03
	BYTE		N48     Gs3   v072
	BYTE	W48
// 023   ----------------------------------------
	BYTE		N24     Bn3   v080
	BYTE	W24
	BYTE		        Dn4   v084
	BYTE	W24
	BYTE		        Fn4 
	BYTE	W24
	BYTE		        Gs4 
	BYTE	W24
// 024   ----------------------------------------
	BYTE		N96     Bn4 
	BYTE	W96
	BYTE	GoTo
	 POIN2	taleselect_3_B1
taleselect_3_B2:
// 025   ----------------------------------------
	BYTE	FINE

//**************** Track 4 (Midi-Chn.6) ****************//

taleselect_4:
	BYTE	KEYSH   taleselect_key+0
taleselect_4_B1:
// 000   ----------------------------------------
	BYTE		VOICE   75
	BYTE		PAN     c_v+47
	BYTE		VOL     95*taleselect_mvl/mxv
	BYTE		TIE     An3   v064
	BYTE	W96
// 001   ----------------------------------------
	BYTE	W48
	BYTE		EOT   
	BYTE		N09     Gn3 
	BYTE	W24
	BYTE		N09   
	BYTE	W24
// 002   ----------------------------------------
	BYTE		TIE     En3 
	BYTE	W96
// 003   ----------------------------------------
	BYTE	W48
	BYTE		EOT   
	BYTE		N09     Dn3 
	BYTE	W24
	BYTE		N09   
	BYTE	W24
// 004   ----------------------------------------
	BYTE		TIE     En3 
	BYTE	W96
// 005   ----------------------------------------
	BYTE	W48
	BYTE		EOT   
	BYTE		N09     Gn3 
	BYTE	W24
	BYTE		N09   
	BYTE	W24
// 006   ----------------------------------------
	BYTE		TIE     En3 
	BYTE	W96
// 007   ----------------------------------------
	BYTE	W72
	BYTE		EOT   
	BYTE	W24
// 008   ----------------------------------------
	BYTE		N96     Fn3 
	BYTE	W96
// 009   ----------------------------------------
	BYTE		        Cn3 
	BYTE	W96
// 010   ----------------------------------------
	BYTE		        Fn3 
	BYTE	W96
// 011   ----------------------------------------
	BYTE		        Cn3 
	BYTE	W96
// 012   ----------------------------------------
	BYTE		        Fn3 
	BYTE	W96
// 013   ----------------------------------------
	BYTE		        Cn3 
	BYTE	W96
// 014   ----------------------------------------
	BYTE		        Bn2 
	BYTE	W96
// 015   ----------------------------------------
	BYTE		        Gs2 
	BYTE	W96
// 016   ----------------------------------------
	BYTE	W96
// 017   ----------------------------------------
	BYTE	W48
	BYTE		N48     Dn3 
	BYTE	W48
// 018   ----------------------------------------
	BYTE		N96     Bn2 
	BYTE	W96
// 019   ----------------------------------------
	BYTE		        Dn3 
	BYTE	W96
// 020   ----------------------------------------
	BYTE		        Bn2 
	BYTE	W96
// 021   ----------------------------------------
	BYTE		        Dn3 
	BYTE	W96
// 022   ----------------------------------------
	BYTE	W96
// 023   ----------------------------------------
	BYTE	W96
// 024   ----------------------------------------
	BYTE	W96
	BYTE	GoTo
	 POIN2	taleselect_4_B1
taleselect_4_B2:
// 025   ----------------------------------------
	BYTE	FINE

//**************** Track 5 (Midi-Chn.8) ****************//

taleselect_5:
	BYTE	KEYSH   taleselect_key+0
taleselect_5_B1:
// 000   ----------------------------------------
	BYTE		VOICE   49
	BYTE		PAN     c_v+31
	BYTE		VOL     90*taleselect_mvl/mxv
	BYTE	W96
// 001   ----------------------------------------
	BYTE	W96
// 002   ----------------------------------------
	BYTE	W96
// 003   ----------------------------------------
	BYTE	W96
// 004   ----------------------------------------
	BYTE	W96
// 005   ----------------------------------------
	BYTE	W96
// 006   ----------------------------------------
	BYTE	W24
	BYTE		N12     Bn2   v072
	BYTE	W12
	BYTE		        Cn3   v080
	BYTE	W12
	BYTE		        Dn3 
	BYTE	W24
	BYTE		        Bn2   v068
	BYTE	W24
// 007   ----------------------------------------
	BYTE		N72     Gn2 
	BYTE	W72
	BYTE		N17     Fn2   v084
	BYTE	W24
// 008   ----------------------------------------
	BYTE	W96
// 009   ----------------------------------------
	BYTE	W96
// 010   ----------------------------------------
	BYTE	W96
// 011   ----------------------------------------
	BYTE	W96
// 012   ----------------------------------------
	BYTE	W96
// 013   ----------------------------------------
	BYTE	W96
// 014   ----------------------------------------
	BYTE	W96
// 015   ----------------------------------------
	BYTE	W96
// 016   ----------------------------------------
	BYTE	W96
// 017   ----------------------------------------
	BYTE	W96
// 018   ----------------------------------------
	BYTE	W96
// 019   ----------------------------------------
	BYTE	W96
// 020   ----------------------------------------
	BYTE	W96
// 021   ----------------------------------------
	BYTE	W96
// 022   ----------------------------------------
	BYTE	W96
// 023   ----------------------------------------
	BYTE	W96
// 024   ----------------------------------------
	BYTE	W96
	BYTE	GoTo
	 POIN2	taleselect_5_B1
taleselect_5_B2:
// 025   ----------------------------------------
	BYTE	FINE

//******************************************************//
	ALIGN 4

taleselect:
	BYTE	5	// NumTrks
	BYTE	0	// NumBlks
	BYTE	taleselect_pri	// Priority
	BYTE	taleselect_rev	// Reverb.

	POIN2	taleselect_grp

	POIN2	taleselect_1
	POIN2	taleselect_2
	POIN2	taleselect_3
	POIN2	taleselect_4
	POIN2	taleselect_5

	
