	.include "MPlayDef.s"

	.equ	taleselect_grp, voicegroup000
	.equ	taleselect_pri, 0
	.equ	taleselect_rev, 0
	.equ	taleselect_mvl, 75
	.equ	taleselect_key, 0
	.equ	taleselect_tbs, 1
	.equ	taleselect_exg, 0
	.equ	taleselect_cmp, 1

	.section .rodata
	.global	taleselect
	.align	2

@**************** Track 1 (Midi-Chn.1) ****************@

taleselect_1:
	.byte	KEYSH , taleselect_key+0
taleselect_1_B1:
@ 000   ----------------------------------------
	.byte	TEMPO , 150*taleselect_tbs/2
	.byte		VOICE , 75
	.byte		PAN   , c_v-29
	.byte		VOL   , 95*taleselect_mvl/mxv
	.byte	W24
	.byte		N04   , En4 , v088
	.byte	W12
	.byte		N04   
	.byte	W12
	.byte		N72   
	.byte	W48
@ 001   ----------------------------------------
	.byte	W24
	.byte		N12   
	.byte	W12
	.byte		        Cn4 
	.byte	W12
	.byte		N09   , Dn4 
	.byte	W24
	.byte		        Bn3 
	.byte	W24
@ 002   ----------------------------------------
	.byte		TIE   , An3 
	.byte	W96
@ 003   ----------------------------------------
	.byte	W96
	.byte		EOT   
@ 004   ----------------------------------------
	.byte	W24
	.byte		N06   , Cn4 
	.byte		N04   , En4 
	.byte	W12
	.byte		N06   , Cn4 
	.byte		N02   , En4 
	.byte	W12
	.byte		N72   , Cn4 
	.byte		N72   , En4 
	.byte	W48
@ 005   ----------------------------------------
	.byte	W24
	.byte		N12   , Cn4 
	.byte		N12   , En4 
	.byte	W12
	.byte		        An3 , v116
	.byte		N12   , Cn4 
	.byte	W12
	.byte		N09   , Dn4 , v088
	.byte	W24
	.byte		        Bn3 
	.byte	W24
@ 006   ----------------------------------------
	.byte		TIE   , An3 
	.byte	W96
@ 007   ----------------------------------------
	.byte	W96
	.byte		EOT   
@ 008   ----------------------------------------
taleselect_1_008:
	.byte		N24   , An3 , v088
	.byte	W24
	.byte		N18   , Cn4 
	.byte	W18
	.byte		N03   , Bn3 
	.byte	W03
	.byte		        Cn4 
	.byte	W03
	.byte		N12   , Bn3 
	.byte	W24
	.byte		        Gn3 
	.byte	W24
	.byte	PEND
@ 009   ----------------------------------------
	.byte		N96   , En3 
	.byte	W96
@ 010   ----------------------------------------
	.byte	PATT
	 .word	taleselect_1_008
@ 011   ----------------------------------------
	.byte		N96   , En4 , v088
	.byte	W96
@ 012   ----------------------------------------
	.byte	PATT
	 .word	taleselect_1_008
@ 013   ----------------------------------------
	.byte		N72   , En3 , v088
	.byte	W72
	.byte		N24   , Dn3 
	.byte	W24
@ 014   ----------------------------------------
	.byte		TIE   , En3 
	.byte	W96
@ 015   ----------------------------------------
	.byte	W96
	.byte		EOT   
@ 016   ----------------------------------------
taleselect_1_016:
	.byte		N24   , Dn3 , v088
	.byte	W24
	.byte		        En3 
	.byte	W24
	.byte		        Fn3 
	.byte	W24
	.byte		        Gs3 
	.byte	W24
	.byte	PEND
@ 017   ----------------------------------------
	.byte		N96   , Bn3 
	.byte	W96
@ 018   ----------------------------------------
	.byte		N24   , Dn3 
	.byte	W24
	.byte		        En3 
	.byte	W24
	.byte		        Fn3 
	.byte	W24
	.byte		        Dn4 
	.byte	W24
@ 019   ----------------------------------------
	.byte		N96   , Bn3 
	.byte	W96
@ 020   ----------------------------------------
	.byte	PATT
	 .word	taleselect_1_016
@ 021   ----------------------------------------
	.byte		N24   , Fn3 , v088
	.byte	W24
	.byte		        Gs3 
	.byte	W24
	.byte		        Bn3 
	.byte	W24
	.byte		        Dn4 
	.byte	W24
@ 022   ----------------------------------------
	.byte		        Bn3 
	.byte	W24
	.byte		        Dn4 
	.byte	W24
	.byte		        Fn4 
	.byte	W24
	.byte		        Gs4 
	.byte	W24
@ 023   ----------------------------------------
	.byte		TIE   , Bn4 , v080
	.byte	W96
@ 024   ----------------------------------------
	.byte	W72
	.byte		EOT   
	.byte	W24
	.byte	GOTO
	 .word	taleselect_1_B1
taleselect_1_B2:
@ 025   ----------------------------------------
	.byte	FINE

@**************** Track 2 (Midi-Chn.3) ****************@

taleselect_2:
	.byte	KEYSH , taleselect_key+0
taleselect_2_B1:
@ 000   ----------------------------------------
	.byte		VOICE , 61
	.byte		PAN   , c_v+11
	.byte		VOL   , 127*taleselect_mvl/mxv
	.byte	W96
@ 001   ----------------------------------------
	.byte	W96
@ 002   ----------------------------------------
	.byte	W96
@ 003   ----------------------------------------
	.byte	W96
@ 004   ----------------------------------------
	.byte	W96
@ 005   ----------------------------------------
	.byte	W96
@ 006   ----------------------------------------
	.byte	W96
@ 007   ----------------------------------------
	.byte	W96
@ 008   ----------------------------------------
	.byte		TIE   , An2 , v064
	.byte	W96
@ 009   ----------------------------------------
	.byte	W24
	.byte		EOT   
	.byte		N12   , Gn2 , v076
	.byte	W24
	.byte		        Cn2 , v068
	.byte	W24
	.byte		        Gn2 
	.byte	W24
@ 010   ----------------------------------------
	.byte		TIE   , Fn2 , v064
	.byte	W96
@ 011   ----------------------------------------
	.byte	W24
	.byte		EOT   
	.byte		N08   , Cn2 , v088
	.byte	W12
	.byte		        Fn2 , v096
	.byte	W12
	.byte		N12   , Gn2 , v084
	.byte	W24
	.byte		        Cn3 , v064
	.byte	W24
@ 012   ----------------------------------------
	.byte		TIE   , An2 
	.byte	W96
@ 013   ----------------------------------------
	.byte	W24
	.byte		EOT   
	.byte		N12   , Cn2 
	.byte	W24
	.byte		        Dn2 , v068
	.byte	W24
	.byte		        Fn2 , v072
	.byte	W24
@ 014   ----------------------------------------
	.byte		N96   , En2 , v024
	.byte	W96
@ 015   ----------------------------------------
	.byte		        En1 
	.byte	W96
@ 016   ----------------------------------------
	.byte	W96
@ 017   ----------------------------------------
	.byte	W96
@ 018   ----------------------------------------
	.byte	W96
@ 019   ----------------------------------------
	.byte	W96
@ 020   ----------------------------------------
	.byte	W96
@ 021   ----------------------------------------
	.byte	W96
@ 022   ----------------------------------------
	.byte	W96
@ 023   ----------------------------------------
	.byte	W96
@ 024   ----------------------------------------
	.byte	W96
	.byte	GOTO
	 .word	taleselect_2_B1
taleselect_2_B2:
@ 025   ----------------------------------------
	.byte	FINE

@**************** Track 3 (Midi-Chn.4) ****************@

taleselect_3:
	.byte	KEYSH , taleselect_key+0
taleselect_3_B1:
@ 000   ----------------------------------------
	.byte		VOICE , 10
	.byte		PAN   , c_v-25
	.byte		VOL   , 105*taleselect_mvl/mxv
	.byte	W96
@ 001   ----------------------------------------
	.byte	W96
@ 002   ----------------------------------------
	.byte	W96
@ 003   ----------------------------------------
	.byte	W96
@ 004   ----------------------------------------
	.byte	W96
@ 005   ----------------------------------------
	.byte	W96
@ 006   ----------------------------------------
	.byte	W96
@ 007   ----------------------------------------
	.byte	W96
@ 008   ----------------------------------------
	.byte	W96
@ 009   ----------------------------------------
	.byte	W96
@ 010   ----------------------------------------
	.byte	W96
@ 011   ----------------------------------------
	.byte	W96
@ 012   ----------------------------------------
	.byte	W96
@ 013   ----------------------------------------
	.byte	W96
@ 014   ----------------------------------------
	.byte	W96
@ 015   ----------------------------------------
	.byte	W96
@ 016   ----------------------------------------
	.byte		N96   , En2 , v072
	.byte	W96
@ 017   ----------------------------------------
	.byte		        En2 , v068
	.byte	W04
	.byte		N90   , Gs2 
	.byte	W05
	.byte		N84   , Bn2 
	.byte	W04
	.byte		N80   , Dn3 
	.byte	W05
	.byte		N78   , En3 
	.byte	W04
	.byte		N72   , Gs3 
	.byte	W05
	.byte		N68   , Bn3 
	.byte	W68
	.byte	W01
@ 018   ----------------------------------------
	.byte		TIE   , En2 , v076
	.byte	W96
@ 019   ----------------------------------------
	.byte		N96   , Gs3 , v068
	.byte	W04
	.byte		N90   , Bn3 
	.byte	W05
	.byte		N84   , En4 
	.byte	W84
	.byte	W03
	.byte		EOT   , En2 
@ 020   ----------------------------------------
	.byte		TIE   , En2 , v076
	.byte	W96
@ 021   ----------------------------------------
	.byte		N96   , Gs2 , v064
	.byte	W04
	.byte		N90   , Bn2 
	.byte	W05
	.byte		N84   , Dn3 
	.byte	W36
	.byte	W03
	.byte		N48   , Fn3 , v068
	.byte	W48
	.byte		EOT   , En2 
@ 022   ----------------------------------------
	.byte		N96   , Gs2 , v084
	.byte	W04
	.byte		N90   , Bn2 
	.byte	W05
	.byte		N84   , Dn3 
	.byte	W04
	.byte		N80   , Fn3 
	.byte	W32
	.byte	W03
	.byte		N48   , Gs3 , v072
	.byte	W48
@ 023   ----------------------------------------
	.byte		N24   , Bn3 , v080
	.byte	W24
	.byte		        Dn4 , v084
	.byte	W24
	.byte		        Fn4 
	.byte	W24
	.byte		        Gs4 
	.byte	W24
@ 024   ----------------------------------------
	.byte		N96   , Bn4 
	.byte	W96
	.byte	GOTO
	 .word	taleselect_3_B1
taleselect_3_B2:
@ 025   ----------------------------------------
	.byte	FINE

@**************** Track 4 (Midi-Chn.6) ****************@

taleselect_4:
	.byte	KEYSH , taleselect_key+0
taleselect_4_B1:
@ 000   ----------------------------------------
	.byte		VOICE , 75
	.byte		PAN   , c_v+2
	.byte		VOL   , 95*taleselect_mvl/mxv
	.byte		TIE   , An3 , v064
	.byte	W96
@ 001   ----------------------------------------
	.byte	W48
	.byte		EOT   
	.byte		N09   , Gn3 
	.byte	W24
	.byte		N09   
	.byte	W24
@ 002   ----------------------------------------
	.byte		TIE   , En3 
	.byte	W96
@ 003   ----------------------------------------
	.byte	W48
	.byte		EOT   
	.byte		N09   , Dn3 
	.byte	W24
	.byte		N09   
	.byte	W24
@ 004   ----------------------------------------
	.byte		TIE   , En3 
	.byte	W96
@ 005   ----------------------------------------
	.byte	W48
	.byte		EOT   
	.byte		N09   , Gn3 
	.byte	W24
	.byte		N09   
	.byte	W24
@ 006   ----------------------------------------
	.byte		TIE   , En3 
	.byte	W96
@ 007   ----------------------------------------
	.byte	W72
	.byte		EOT   
	.byte	W24
@ 008   ----------------------------------------
	.byte		N96   , Fn3 
	.byte	W96
@ 009   ----------------------------------------
	.byte		        Cn3 
	.byte	W96
@ 010   ----------------------------------------
	.byte		        Fn3 
	.byte	W96
@ 011   ----------------------------------------
	.byte		        Cn3 
	.byte	W96
@ 012   ----------------------------------------
	.byte		        Fn3 
	.byte	W96
@ 013   ----------------------------------------
	.byte		        Cn3 
	.byte	W96
@ 014   ----------------------------------------
	.byte		        Bn2 
	.byte	W96
@ 015   ----------------------------------------
	.byte		        Gs2 
	.byte	W96
@ 016   ----------------------------------------
	.byte	W96
@ 017   ----------------------------------------
	.byte	W48
	.byte		N48   , Dn3 
	.byte	W48
@ 018   ----------------------------------------
	.byte		N96   , Bn2 
	.byte	W96
@ 019   ----------------------------------------
	.byte		        Dn3 
	.byte	W96
@ 020   ----------------------------------------
	.byte		        Bn2 
	.byte	W96
@ 021   ----------------------------------------
	.byte		        Dn3 
	.byte	W96
@ 022   ----------------------------------------
	.byte	W96
@ 023   ----------------------------------------
	.byte	W96
@ 024   ----------------------------------------
	.byte	W96
	.byte	GOTO
	 .word	taleselect_4_B1
taleselect_4_B2:
@ 025   ----------------------------------------
	.byte	FINE

@**************** Track 5 (Midi-Chn.8) ****************@

taleselect_5:
	.byte	KEYSH , taleselect_key+0
taleselect_5_B1:
@ 000   ----------------------------------------
	.byte		VOICE , 49
	.byte		PAN   , c_v-15
	.byte		VOL   , 90*taleselect_mvl/mxv
	.byte	W96
@ 001   ----------------------------------------
	.byte	W96
@ 002   ----------------------------------------
	.byte	W96
@ 003   ----------------------------------------
	.byte	W96
@ 004   ----------------------------------------
	.byte	W96
@ 005   ----------------------------------------
	.byte	W96
@ 006   ----------------------------------------
	.byte	W24
	.byte		N12   , Bn2 , v072
	.byte	W12
	.byte		        Cn3 , v080
	.byte	W12
	.byte		        Dn3 
	.byte	W24
	.byte		        Bn2 , v068
	.byte	W24
@ 007   ----------------------------------------
	.byte		N72   , Gn2 
	.byte	W72
	.byte		N17   , Fn2 , v084
	.byte	W24
@ 008   ----------------------------------------
	.byte	W96
@ 009   ----------------------------------------
	.byte	W96
@ 010   ----------------------------------------
	.byte	W96
@ 011   ----------------------------------------
	.byte	W96
@ 012   ----------------------------------------
	.byte	W96
@ 013   ----------------------------------------
	.byte	W96
@ 014   ----------------------------------------
	.byte	W96
@ 015   ----------------------------------------
	.byte	W96
@ 016   ----------------------------------------
	.byte	W96
@ 017   ----------------------------------------
	.byte	W96
@ 018   ----------------------------------------
	.byte	W96
@ 019   ----------------------------------------
	.byte	W96
@ 020   ----------------------------------------
	.byte	W96
@ 021   ----------------------------------------
	.byte	W96
@ 022   ----------------------------------------
	.byte	W96
@ 023   ----------------------------------------
	.byte	W96
@ 024   ----------------------------------------
	.byte	W96
	.byte	GOTO
	 .word	taleselect_5_B1
taleselect_5_B2:
@ 025   ----------------------------------------
	.byte	FINE

@******************************************************@
	.align	2

taleselect:
	.byte	5	@ NumTrks
	.byte	0	@ NumBlks
	.byte	taleselect_pri	@ Priority
	.byte	taleselect_rev	@ Reverb.

	.word	taleselect_grp

	.word	taleselect_1
	.word	taleselect_2
	.word	taleselect_3
	.word	taleselect_4
	.word	taleselect_5

	.end
